<svg width="100" height="100" viewBox="0 0 100 100" fill="none" xmlns="http://www.w3.org/2000/svg">
<g clip-path="url(#clip0)">
<rect width="100" height="100" fill="#361154"/>
<path fill-rule="evenodd" clip-rule="evenodd" d="M90.3769 34.3731C85.0727 14.8095 70.3576 4.77073 50.3468 3.58337L50.3478 3.55549C50.2499 3.5574 50.1553 3.56245 50.0578 3.56532C49.9605 3.55962 49.8654 3.55106 49.7675 3.54664L49.7668 3.57547C29.7293 4.14397 14.7113 13.7257 8.80852 33.1157C4.60097 46.9362 11.3378 66.4397 19.6583 69.6123C31.9084 76.2544 23.1297 95.8901 48.3135 97.9072L48.3126 97.9446C48.4107 97.9405 48.505 97.9345 48.6032 97.9303C48.7008 97.937 48.794 97.9462 48.8929 97.9534L48.8928 97.9164C74.1275 96.6759 65.9575 76.7782 78.4072 70.517C86.8207 67.6041 94.1558 48.3162 90.3769 34.3731Z" fill="#FFF4D7"/>
<path fill-rule="evenodd" clip-rule="evenodd" d="M34.9828 47.1243C46.3256 56.3022 38.8867 63.7223 29.7366 52.3573C20.5587 63.7 13.1387 56.2612 24.5036 47.1111C13.1619 37.9329 20.5998 30.5131 29.7495 41.8772C38.9281 30.5363 46.3475 37.9733 34.9828 47.1243Z" fill="#D53954"/>
<path fill-rule="evenodd" clip-rule="evenodd" d="M33.4437 50.8276C34.9737 65.3365 24.4673 65.3242 26.0333 50.818C11.5241 52.3471 11.5367 41.8416 26.0428 43.4076C24.5125 28.8978 35.0183 28.9114 33.4533 43.4172C47.9621 41.8871 47.9505 52.3923 33.4437 50.8276Z" fill="#D53954"/>
<path fill-rule="evenodd" clip-rule="evenodd" d="M32.0293 51.8326C28.7368 66.0467 18.8103 62.603 25.0292 49.4034C10.8142 46.1112 14.2579 36.1848 27.4572 42.4027C30.7496 28.1886 40.6752 31.6326 34.4582 44.8316C48.6722 48.1241 45.2282 58.0496 32.0293 51.8326Z" fill="#D53954"/>
<path fill-rule="evenodd" clip-rule="evenodd" d="M27.4459 51.8262C30.7033 66.0485 40.6372 62.629 34.4521 49.4159C48.6744 46.1584 45.2556 36.2233 32.0411 42.4078C28.784 28.1865 18.8498 31.6049 25.0343 44.8194C10.8124 48.0778 14.2309 58.0119 27.4459 51.8262Z" fill="#D53954"/>
<path fill-rule="evenodd" clip-rule="evenodd" d="M40.6604 47.131C40.6521 53.1608 35.7591 58.0413 29.7296 58.034C23.701 58.0263 18.8196 53.1335 18.8269 47.104C18.8346 41.0754 23.7283 36.1937 29.7569 36.2014C35.7864 36.2087 40.6672 41.1027 40.6604 47.131Z" fill="#262238"/>
<path fill-rule="evenodd" clip-rule="evenodd" d="M72.3499 47.0065C83.6916 56.1848 76.2537 63.6045 67.1027 52.2399C57.9257 63.5823 50.5057 56.1434 61.8697 46.9937C50.5279 37.8154 57.9658 30.3957 67.1156 41.7597C76.2951 30.4186 83.7148 37.8565 72.3499 47.0065Z" fill="#D53954"/>
<path fill-rule="evenodd" clip-rule="evenodd" d="M70.8097 50.7104C72.3401 65.2202 61.8343 65.2066 63.3996 50.7017C48.8904 52.2308 48.9037 41.724 63.4092 43.2913C61.8795 28.7802 72.3853 28.7938 70.8193 43.2999C85.3291 41.7696 85.3168 52.276 70.8097 50.7104Z" fill="#D53954"/>
<path fill-rule="evenodd" clip-rule="evenodd" d="M77.8349 47.0139C83.6153 43.5015 81.1495 38.6996 73.2801 40.8457C75.4443 32.9804 70.6481 30.5041 67.1233 36.2756C63.6118 30.4949 58.8099 32.9608 60.955 40.8304C53.0904 38.665 50.6131 43.4615 56.385 46.9873C50.6049 50.4975 53.0691 55.301 60.9394 53.1546C58.7749 61.0189 63.5708 63.4975 67.0966 57.7256C70.6078 63.5054 75.41 61.0405 73.2649 53.1708C81.1295 55.3362 83.6068 50.5398 77.8349 47.0139Z" fill="#D53954"/>
<path fill-rule="evenodd" clip-rule="evenodd" d="M78.0265 47.0136C78.0182 53.0434 73.1252 57.9239 67.0969 57.9172C61.0674 57.9098 56.1866 53.0158 56.194 46.9863C56.2007 40.9581 61.0944 36.0763 67.1239 36.0837C73.1525 36.0913 78.0342 40.985 78.0265 47.0136Z" fill="#262238"/>
<path fill-rule="evenodd" clip-rule="evenodd" d="M62.0292 69.6518L59.7762 69.667L36.1064 69.5277L33.8527 69.5071C33.8527 69.5071 32.4013 83.2631 48.3836 83.2838C62.2512 83.2997 62.0292 69.6518 62.0292 69.6518Z" fill="#262238"/>
<path fill-rule="evenodd" clip-rule="evenodd" d="M48.9378 52.796C48.9378 52.796 42.9565 60.5976 44.332 62.5898C44.332 62.5898 44.8115 64.093 46.6486 63.9435C48.4863 63.7926 49.0031 63.1772 49.0031 63.1772C49.0031 63.1772 50.7612 63.9764 51.9867 63.8256C53.2116 63.6729 54.1317 62.909 53.3693 60.4578C52.6068 58.0066 48.9378 52.796 48.9378 52.796Z" fill="#262238"/>
<path fill-rule="evenodd" clip-rule="evenodd" d="M48.9536 32.7204C48.9536 32.7204 56.9719 22.2611 55.1275 19.5903C55.1275 19.5903 54.4859 17.5763 52.0219 17.7786C49.5586 17.9796 48.9639 21.3684 48.9639 21.3684C48.9639 21.3684 46.5099 17.7328 44.8672 17.9362C43.2244 18.1396 41.9914 19.1637 43.0139 22.4501C44.036 25.7355 48.9536 32.7204 48.9536 32.7204Z" fill="#D53954"/>
<path fill-rule="evenodd" clip-rule="evenodd" d="M71.5193 19.5939C72.8736 21.5924 72.2141 24.4114 70.0418 25.8945C67.8714 27.3864 57.3829 29.1888 57.38 29.1802C57.3742 29.1759 62.9338 20.097 65.1224 18.6337C67.3047 17.1641 70.1661 17.5961 71.5193 19.5939Z" fill="#2EB3AC"/>
<path fill-rule="evenodd" clip-rule="evenodd" d="M27.548 19.7517C26.1325 21.7072 26.7049 24.5447 28.8315 26.0941C30.9534 27.6514 41.3825 29.777 41.3859 29.7684C41.3918 29.7642 36.1143 20.5189 33.9718 18.9877C31.8353 17.4524 28.9625 17.7965 27.548 19.7517Z" fill="#2EB3AC"/>
</g>
<defs>
<clipPath id="clip0">
<rect width="100" height="100" fill="white"/>
</clipPath>
</defs>
</svg>
