<svg width="39" height="39" viewBox="0 0 39 39" fill="none" xmlns="http://www.w3.org/2000/svg">
<path fill-rule="evenodd" clip-rule="evenodd" d="M35.353 18.989C37.015 18.386 38.018 17.346 38.018 16.182C38.018 14.689 36.357 13.46 33.919 12.993C35.313 10.939 35.617 8.89597 34.563 7.84097C33.726 7.00397 32.234 6.96197 30.645 7.68997C31.393 6.08797 31.366 4.64497 30.543 3.82097C29.488 2.76597 27.444 3.06997 25.391 4.46397C24.924 2.02597 23.694 0.365967 22.202 0.365967C21.02 0.365967 19.935 1.39097 19.325 3.02997C18.722 1.36797 17.682 0.365967 16.519 0.365967C15.026 0.365967 13.796 2.02597 13.329 4.46397C11.275 3.06997 9.23103 2.76597 8.17703 3.81997C7.34003 4.65697 7.29903 6.14797 8.02603 7.73797C6.42503 6.98997 4.98003 7.01697 4.15703 7.83997C3.10303 8.89497 3.40603 10.938 4.80003 12.992C2.36203 13.459 0.702026 14.689 0.702026 16.182C0.702026 17.364 1.72803 18.448 3.36603 19.058C1.70403 19.661 0.702026 20.701 0.702026 21.865C0.702026 23.357 2.36203 24.587 4.80003 25.054C3.40603 27.107 3.10203 29.151 4.15703 30.206C4.99303 31.043 6.48403 31.085 8.07503 30.356C7.32603 31.958 7.35303 33.402 8.17603 34.226C9.23103 35.281 11.274 34.977 13.328 33.583C13.795 36.021 15.025 37.681 16.518 37.681C17.7 37.681 18.784 36.656 19.394 35.017C19.998 36.679 21.037 37.681 22.201 37.681C23.693 37.681 24.924 36.021 25.391 33.583C27.444 34.977 29.487 35.281 30.543 34.227C31.379 33.39 31.421 31.898 30.692 30.308C32.295 31.057 33.739 31.03 34.562 30.207C35.617 29.151 35.313 27.108 33.919 25.055C36.357 24.588 38.018 23.357 38.018 21.865C38.018 20.683 36.992 19.599 35.353 18.989Z" fill="#2EB3AC"/>
<path fill-rule="evenodd" clip-rule="evenodd" d="M26.499 19.0229C26.499 23.1339 23.167 26.4659 19.057 26.4659C14.946 26.4659 11.614 23.1339 11.614 19.0229C11.614 14.9129 14.946 11.5809 19.057 11.5809C23.167 11.5809 26.499 14.9129 26.499 19.0229Z" fill="#FFFFFE"/>
</svg>
