<svg width="49" height="49" viewBox="0 0 49 49" fill="none" xmlns="http://www.w3.org/2000/svg">
<path fill-rule="evenodd" clip-rule="evenodd" d="M0.890015 28.6331C0.890015 30.5521 3.02001 32.1341 6.16001 32.7341C4.37001 35.3751 3.98001 38.0031 5.33001 39.3601C6.39001 40.4191 8.25001 40.4531 10.31 39.4901C9.37002 41.5361 9.43001 43.4541 10.5 44.5291C11.86 45.8861 14.49 45.4951 17.13 43.7021C17.73 46.8371 19.31 48.9731 21.23 48.9731C22.73 48.9731 24.06 47.6831 24.84 45.5461C25.63 47.6541 27.02 48.9731 28.54 48.9731C30.46 48.9731 32.04 46.8371 32.64 43.7021C35.28 45.4951 37.91 45.8861 39.27 44.5291C40.33 43.4701 40.36 41.6131 39.4 39.5531C41.44 40.4891 43.36 40.4361 44.44 39.3601C45.79 38.0031 45.4 35.3751 43.61 32.7331C46.75 32.1331 48.88 30.5511 48.88 28.6321C48.88 27.1351 47.59 25.7981 45.45 25.0211C47.56 24.2381 48.88 22.8431 48.88 21.3221C48.88 19.4031 46.75 17.8211 43.61 17.2211C45.4 14.5801 45.79 11.9521 44.44 10.5951C43.38 9.53606 41.52 9.50206 39.46 10.4641C40.4 8.41906 40.34 6.50106 39.27 5.42506C37.91 4.06906 35.28 4.46006 32.64 6.25306C32.04 3.11806 30.46 0.982056 28.54 0.982056C27.04 0.982056 25.71 2.27106 24.93 4.40906C24.14 2.30106 22.75 0.982056 21.23 0.982056C19.31 0.982056 17.73 3.11806 17.13 6.25306C14.49 4.46006 11.86 4.06906 10.5 5.42606C9.44001 6.48506 9.41001 8.34206 10.37 10.4021C8.33001 9.46606 6.41001 9.51906 5.33001 10.5951C3.98001 11.9521 4.37001 14.5801 6.16001 17.2221C3.02001 17.8221 0.890015 19.4041 0.890015 21.3231C0.890015 22.8201 2.18001 24.1571 4.32001 24.9341C2.21001 25.7171 0.890015 27.1121 0.890015 28.6331Z" fill="#2EB3AC"/>
<path fill-rule="evenodd" clip-rule="evenodd" d="M7.92999 27.5601C7.92999 28.9161 9.43999 30.0331 11.66 30.4571C10.39 32.3231 10.11 34.1791 11.07 35.1381C11.82 35.8861 13.13 35.9091 14.59 35.2301C13.93 36.6741 13.96 38.0291 14.72 38.7891C15.68 39.7481 17.54 39.4711 19.41 38.2051C19.83 40.4201 20.95 41.9281 22.3 41.9281C23.36 41.9281 24.3 41.0171 24.85 39.5071C25.41 40.9971 26.39 41.9281 27.47 41.9281C28.82 41.9281 29.94 40.4201 30.36 38.2051C32.23 39.4711 34.09 39.7481 35.04 38.7891C35.79 38.0411 35.82 36.7291 35.14 35.2731C36.58 35.9351 37.94 35.8971 38.7 35.1371C39.66 34.1791 39.38 32.3221 38.11 30.4561C40.33 30.0321 41.83 28.9151 41.83 27.5591C41.83 26.5021 40.92 25.5571 39.42 25.0081C40.9 24.4551 41.83 23.4701 41.83 22.3961C41.83 21.0401 40.33 19.9221 38.11 19.4981C39.38 17.6321 39.65 15.7761 38.7 14.8171C37.95 14.0691 36.64 14.0451 35.18 14.7251C35.84 13.2811 35.8 11.9261 35.04 11.1661C34.09 10.2071 32.23 10.4841 30.36 11.7501C29.94 9.5351 28.82 8.0271 27.47 8.0271C26.41 8.0271 25.46 8.9371 24.92 10.4471C24.36 8.9581 23.38 8.0271 22.3 8.0271C20.95 8.0271 19.83 9.5351 19.41 11.7501C17.54 10.4841 15.68 10.2071 14.72 11.1661C13.98 11.9141 13.95 13.2261 14.63 14.6821C13.19 14.0201 11.83 14.0581 11.07 14.8181C10.11 15.7761 10.39 17.6331 11.66 19.4991C9.43999 19.9231 7.92999 21.0401 7.92999 22.3961C7.92999 23.4531 8.83999 24.3981 10.35 24.9461C8.86999 25.5001 7.92999 26.4851 7.92999 27.5601Z" fill="#EABA65"/>
<path fill-rule="evenodd" clip-rule="evenodd" d="M15.86 24.9781C15.86 29.9601 19.9 34.0001 24.88 34.0001C29.87 34.0001 33.91 29.9601 33.91 24.9781C33.91 19.9951 29.87 15.9551 24.88 15.9551C19.9 15.9551 15.86 19.9951 15.86 24.9781Z" fill="#FEFCF9"/>
</svg>
