<?xml version="1.0" encoding="UTF-8"?>
<svg viewBox="0 0 210 297" xmlns="http://www.w3.org/2000/svg">
 <defs>.str0 {stroke:#1F1A17;stroke-width:0.2}     .fil0 {fill:none}     .fil1 {fill:#1F1A17}</defs>
 <g fill="none" opacity=".75" stroke="#665851" stroke-width="2">
  <polyline class="fil0 str0" points="14.222 23.399 45.639 63.406 61.689 84.445 78.764 104.45 91.74 124.45"/>
  <polyline class="fil0 str0" points="190.77 12.018 177.11 29.605 160.72 55.128 145.01 79.616 134.43 98.93 121.11 122.73 114.87 133.43"/>
  <polyline class="fil0 str0" points="241.65 79.616 209.56 90.651 191.46 101.69 171.31 113.07 150.8 122.78"/>
  <polyline class="fil0 str0" points="261.46 176.87 240.29 172.05 209.9 161.7 185.99 156.87 159.99 152.17"/>
  <polyline class="fil0 str0" points="219.12 238.96 192.48 223.09 174.38 209.3 154.57 193.78 136.48 177.57 120.08 161.01"/>
  <polyline class="fil0 str0" points="142.62 291.72 136.48 272.06 127.26 243.44 118.72 218.61 111.55 194.81 106.6 174.26"/>
  <polyline class="fil0 str0" points="52.128 292.42 59.299 274.83 67.836 245.17 78.422 217.23 85.935 194.47 90.908 175.47"/>
  <polyline class="fil0 str0" points="-15.487 239.65 10.124 221.71 28.906 206.88 45.981 191.71 60.883 177.19 75.349 162.39 81.608 159.09"/>
  <polyline class="fil0 str0" points="-56.466 150.66 -35.977 151.01 -5.2427 152.04 19.686 151.7 43.932 151.36 73.166 147.38"/>
  <polyline class="fil0 str0" points="-28.806 69.958 -6.2672 94.1 16.954 106.86 36.761 117.21 57.25 126.87 77.398 133.42"/>
  <polyline class="fil0 str0" points="100.96 -10.401 102.67 10.637 104.38 39.952 106.42 67.543 107.79 93.066 107.79 117.9 108.65 129.98"/>
  <path class="fil0 str0" d="m15.222 22.399s17.831 2.3457 35.573-0.066402c17.742-2.4121 31.048-16.368 34.972-19.125 3.9236-2.7567 17.23-14.817 17.23-14.817s18.595 15.851 27.977 20.158c9.3826 4.3074 9.3826 4.9965 24.054 5.6857 14.671 0.68917 20.983-0.17231 25.93-0.5169 4.9472-0.34457 10.815-2.7004 10.815-2.7004s8.2915 27.683 11.874 34.747c3.5825 7.0641 9.7239 15.679 17.059 21.192 7.3355 5.5134 21.949 11.66 21.949 11.66s-9.9032 20.349-8.5372 33.455 3.7564 24.832 8.1958 34.489c4.4393 9.657 18.125 28.854 18.125 28.854s-17.442 17.706-24.613 21.5c-7.1713 3.7938-9.9032 13.106-14.343 23.453-4.4394 10.347-2.828 16.719-2.828 16.719s-26.199 5.0094-37.468 12.597c-11.269 7.5877-23.221 21.383-27.319 27.936-4.0979 6.553-10.245 13.106-10.245 13.106s-19.123-13.796-36.198-11.726c-17.074 2.0694-34.149 4.4836-42.345 7.5877-8.1958 3.104-11.952 4.8285-11.952 4.8285s-14.001-22.073-19.806-28.626c-5.8053-6.553-10.245-14.486-23.221-17.245-12.977-2.7591-23.256-7.8303-23.256-7.8303s-3.3807-32.522-6.4541-43.559-11.952-23.108-16.392-26.902c-4.4394-3.7938-19.465-17.59-19.465-17.59s18.099-18.279 22.538-31.73c4.4394-13.451 7.5128-25.867 7.5128-31.385 0-5.5183-2.3904-17.59-2.3904-17.59s16.05-2.0694 25.27-3.104c9.2202-1.0347 15.709-9.3121 17.074-15.52 1.366-6.2081 1.7093-26.629 1.7093-26.629"/>
  <path class="fil0 str0" d="m26.857 38.678l-0.1082-2.3273s6.255 5.4314 28.452 1.2927 29.71-14.486 34.832-18.624c5.1224-4.1387 12.498-13.066 12.498-13.066s3.5516 7.203 16.528 17.205c12.977 10.002 21.514 16.555 32.442 13.451 10.928-3.1041 25.612-10.002 25.612-10.002s-4.7808 5.8632 2.049 18.279c6.8298 12.416 14.343 24.488 21.172 30.696 6.8298 6.2081 13.003 10.771 13.003 10.771s-13.344 14.752-7.1976 30.617c6.1468 15.865 12.294 26.902 14.343 29.316 2.049 2.4142 19.124 20.004 19.124 20.004s-21.514 10.002-28.344 21.728c-6.8298 11.726-16.664 33.337-16.664 33.337s-24.998 2.5324-35.925 16.673c-10.928 14.141-22.538 33.8-22.538 33.8s-25.27-18.279-34.49-18.969c-9.2202-0.68979-18.099 1.3796-25.953 6.8979-7.8543 5.5183-16.392 12.071-16.392 12.071s2.049-13.796-9.2202-24.487c-11.269-10.692-20.831-16.21-26.636-21.038-5.8053-4.8285-13.318-7.5877-13.318-7.5877s4.0979-26.212-1.366-33.8c-5.4638-7.5877-20.489-19.314-23.563-22.418-3.0734-3.104-19.124-15.52-19.124-15.52s12.977-11.037 21.172-27.247c8.1958-16.21 6.4883-28.626 6.4883-28.626s11.952-0.6898 20.148-8.6224c8.1958-7.9326 14.684-20.004 14.684-27.936 0-7.9326-1.7074-15.865-1.7074-15.865z"/>
  <path class="fil0 str0" d="m45.639 63.406s15.026 4.1387 23.221 1.3796c8.1958-2.7592 24.246-10.692 25.953-13.451 1.7074-2.7591 9.5617-11.382 9.5617-11.382s5.4638 10.347 16.733 14.83c11.269 4.4836 18.782 4.8285 24.929 3.7938 6.1468-1.0347 16.392-4.1387 16.392-4.1387s-1.366 19.659 6.4883 27.592c7.8543 7.9326 8.5373 9.3122 12.977 12.761 4.4394 3.4489 11.318 5.8268 11.318 5.8268s-7.9033 12.453-6.5374 22.799c1.366 10.347-1.3659 15.52 6.1469 22.763 7.5128 7.2428 17.906 18.34 17.906 18.34s-16.54 6.8373-19.955 12.356c-3.4149 5.5183-11.489 16.496-14.343 24.142-2.854 7.6467-0.68297 11.382-0.68297 11.382s-19.124-4.1387-26.295 2.4143c-7.1713 6.553-18.099 16.21-20.148 20.694-2.049 4.4836-2.049 7.9326-2.049 7.9326s-25.953-11.726-32.1-10.692c-6.1468 1.0347-27.319 12.416-27.319 12.416s-6.4883-20.694-15.367-27.247-23.563-11.037-23.563-11.037 2.3904-11.726 0-21.728-8.1958-16.21-13.318-20.694c-5.1224-4.4836-22.197-14.486-22.197-14.486s4.0979-1.7245 10.928-6.8979c6.8298-5.1734 13.66-14.141 13.66-22.073 0-7.9326 0.062719-13.573 0.062719-13.573s12.914-0.56796 18.719-7.8107c5.8053-7.2428 7.5128-20.694 8.1958-27.247 0.68297-6.553 0.68297-8.9672 0.68297-8.9672z"/>
  <path class="fil0 str0" d="m106.42 67.543s4.4394 7.5877 14.001 9.3121c9.5617 1.7245 13.66 2.0694 16.05 2.0694 2.3904 0 9.3075-0.51107 9.3075-0.51107s2.3032 11.203 5.0351 17.066c2.7319 5.8632 12.635 11.382 12.635 11.382l8.6654 5.75s-2.8601 12.184-1.8356 21.842c1.0245 9.657 4.4394 12.416 8.5372 15.865 4.0979 3.4489 7.1713 6.553 7.1713 6.553s-17.758 9.3121-21.514 16.555c-3.7564 7.2428-6.8298 13.106-6.8298 13.106l-3.0734 7.2428s-12.977-4.8285-20.148 3.104c-7.1713 7.9326-11.269 13.451-11.952 15.52-0.683 2.0694-3.0158 8.3626-3.0158 8.3626s-13.376-10.432-21.23-9.0523c-7.8543 1.3796-20.578 7.5534-20.578 7.5534s4.869-10.312-11.181-18.59c-16.05-8.2775-20.489-8.9672-20.489-8.9672s4.7809-6.553-3.0734-18.969-21.855-21.058-21.855-21.058 5.4638-1.36 11.269-13.776c5.8053-12.416 4.4394-20.694 4.4394-20.694s7.5128 2.7591 17.416-5.8632 7.5128-26.902 7.5128-26.902 2.8525 3.1711 18.44 0.3449c15.588-2.8262 26.295-17.245 26.295-17.245z"/>
  <path class="fil0 str0" d="m107.74 92.016s6.2029 7.603 12.35 8.2928c6.1468 0.6898 15.081-2.7276 15.081-2.7276s-1.7632 7.901 1.6517 13.074c3.4149 5.1734 13.983 12.125 13.983 12.125s-3.7379 4.775-3.3964 11.673c0.34151 6.8979 9.6578 16.617 9.6578 16.617s-12.001 6.1114-14.78 13.389c-2.7789 7.2776-5.8053 13.106-5.8053 13.106s-7.3398-0.65518-13.318 1.7245c-5.9784 2.3796-11.611 15.52-11.611 15.52s-7.5128-6.2081-15.026-4.1387c-7.5128 2.0694-10.586 3.7938-10.586 3.7938s-3.0734-8.2775-9.5617-11.382c-6.4883-3.1041-15.49-5.8938-15.49-5.8938s4.9039-15.49 0.12303-18.594c-4.7809-3.104-13.66-8.9672-13.66-8.9672s1.366 0.68974 7.1713-7.2428c5.8053-7.9326 3.76-15.186 3.76-15.186s6.4847 1.7348 11.948-4.8181c5.4638-6.553 7.4486-19.21 7.4486-19.21s7.5485 3.4272 13.724 1.2756c6.1753-2.1517 16.336-12.432 16.336-12.432z"/>
  <path class="fil0 str0" d="m77.238 161.39s1.5253-4.52 1.1839-6.9343c-0.34149-2.4143-6.4883-8.9672-6.4883-8.9672s4.8657-7.7223 4.4463-10.13c-0.41936-2.4081 4.4624 0.47957 8.7272-1.9326 4.2648-2.4121 5.6296-9.4761 5.6296-9.4761s0 0.1723 4.0942 0.68918 9.5532-1.723 12.453-4.1351c2.9001-2.4121 0.50572-2.6064 0.50572-2.6064s-0.67633 1.4004 2.0532 3.4679c2.7295 2.0675 10.914 1.9638 10.914 1.9638s-1.7014 0.62065 2.3928 3.5496c4.0942 2.929 9.6614 7.9742 9.6614 7.9742s-0.96114 7.0154-0.61996 9.2552c0.34119 2.2398 0.23422 6.8997 0.23422 6.8997s-6.3756 2.5764-7.2286 3.6102c-0.85297 1.0338-8.1885 2.7567-8.1885 2.7567l-4.0943 3.2736s-22.518 2.5844-24.054 2.5844c-1.5354 0-11.622-1.8423-11.622-1.8423z"/>
 </g>
 <path class="fil1" d="m55.277 186.97s0.68237-8.787 1.1942-13.784c0.51175-4.9965 4.4354-12.405 7.8473-16.885 3.4119-4.4797 4.606-10.338 7.8473-12.922s4.9472-5.1688 6.4826-5.1688c1.5353 0 7.3355 0.1723 8.5297 0.1723s6.9944 0.17226 6.9944 0.17226 1.7059-2.2398 0.51178-2.2398c-1.1942 0-12.453-0.8615-18.595-0.51692-6.1414 0.34462-12.794-0.17227-14.842 0.51692-2.0471 0.68915-4.606 0-4.606 0s2.5589-3.2736 3.7531-3.6182c1.1941-0.34457 11.43-1.3783 17.059-1.3783 5.6296 0 9.3827-0.17232 11.942 0.1723 2.5589 0.34457 6.4825 2.7567 8.3591 2.0675 1.8765-0.68918 0.17059-1.2061-3.2413-2.7567-3.4119-1.5506-9.0414-3.2736-10.577-6.2026-1.5353-2.929-2.2177-5.1688-7.1649-8.4424s-7.5061-7.4086-10.406-9.8207c-2.9001-2.4121-6.4825-4.652-7.6767-5.3411-1.1942-0.68919-2.3883-1.723-2.3883-1.723s9.3827 2.0675 12.283 4.3074c2.9001 2.2398 6.6531 7.2363 6.6531 7.2363s5.2884 2.5845 7.1649 4.3074c1.8766 1.723 4.4355 2.929 5.2884 4.4797 0.85297 1.5506 1.8765 3.1013 3.2413 4.6519s4.7766 2.4121 5.9708 2.7567c1.1942 0.34457 3.2413 2.4121 3.2413 2.4121s-2.9001-5.858-2.9001-15.334c0-9.4762-0.34119-14.645-1.3648-20.675-1.0236-6.0303 0.68237-9.8208-0.853-14.473-1.5353-4.6519-1.7059-8.6147-2.9001-11.199-1.1941-2.5844-2.9001-9.993-2.9001-9.993v-3.2736s0.51178 2.4121 2.3883 5.5134c1.8765 3.1013 5.1178 11.371 6.1414 13.611 1.0236 2.2398 3.0707 15.679 3.0707 17.574 0 1.8953-1.1942 14.3-0.17059 17.057 1.0236 2.7567 2.9001 13.267 3.0707 14.473 0.17059 1.2061 2.3883 4.6519 2.3883 4.6519l3.0707-2.7567s4.2648-4.3074 4.9472-2.2398c0.68234 2.0675-0.51178 0.68915-1.8765 2.7567-1.3648 2.0675-0.51178 4.135-0.51178 4.135l4.2648 0.3446s-0.68234-3.2736-0.68234-4.135 2.0471-3.1013 2.0471-1.723c0 1.3784 0.68234 4.135 0.68234 5.5134 0 1.3783 1.0236 2.2398 1.0236 2.2398s3.7531-4.1351 10.918-6.0303c7.1649-1.8953 15.012-10.338 17.571-12.233 2.5589-1.8952 14.842-7.0641 16.889-7.5809 2.0472-0.51688 8.1885-3.1013 10.577-3.4459 2.3883-0.3446 9.8944-1.7229 9.8944-1.7229s-4.606 3.6182-6.312 4.3074c-1.706 0.68913-17.912 5.5134-19.96 6.8917-2.0471 1.3783-12.965 10.51-13.989 11.371-1.0236 0.8615-11.771 7.4087-13.477 8.0978-1.7059 0.68919-9.0414 2.5844-9.0414 3.7905s1.1942 3.1013 2.3883 4.135c1.1942 1.0338 4.0942 2.4121 7.1649 2.4121s9.8944-0.51688 15.012 1.8952c5.1178 2.4121 16.206 5.858 18.595 7.5809 2.3883 1.723 4.4354 3.4459 4.4354 3.4459s-3.753-1.5507-6.6531-2.5845-11.089-2.5844-12.794-2.5844c-1.706 0-12.794-1.5506-14.33-1.5506-1.5353 0-10.577-1.723-11.43-2.5844-0.85297-0.86145-5.2884-3.4458-5.2884-3.4458s0.85294 0.34457 4.2648 5.6857c3.4119 5.3411 5.1178 9.6484 5.1178 9.6484s6.6531 7.5809 8.0179 8.9593c1.3648 1.3783 6.4826 5.858 7.3355 8.787 0.853 2.929-2.5589 1.2061-2.5589 1.2061s-7.3355-8.0978-7.8473-8.9593-6.6531-7.7532-7.5061-9.1316c-0.85297-1.3783-4.7766-6.7194-4.7766-6.7194l-3.0707-2.2398s1.0236 6.0303 2.2177 9.6485c1.1942 3.6182 1.3648 12.577 1.0236 14.99-0.34119 2.4121-1.3648 13.784-1.3648 14.645 0 0.8615-2.0471 8.0978-2.5589 9.4762-0.51178 1.3784-2.5589 7.4087-2.5589 7.4087l-2.7295-3.9628s1.3648-5.3411 1.8765-6.3749c0.51178-1.0338 1.1942-6.0303 1.1942-7.0641v-6.3749l1.7059-7.2363s-0.68234-9.8208-0.85297-10.854c-0.17059-1.0338-2.9001-11.199-2.9001-11.199s-1.0235 2.0675-1.3648 4.6519c-0.34116 2.5844-2.9001 13.094-6.312 13.611-3.4119 0.51688-11.43 3.7905-15.695 1.2061-4.2649-2.5844-8.3591-4.652-8.7003-9.8208-0.34122-5.1688-1.3648-10.682-0.34122-13.094 1.0236-2.4121 1.706-5.5134 1.706-5.5134s-3.2413-0.68918-4.0943 0.86145c-0.85297 1.5506-5.2884 7.581-6.312 9.1316s-6.6531 8.6147-6.8237 9.993c-0.17059 1.3784-4.7766 8.6147-5.459 10.165-0.6824 1.5506-3.4119 10.51-3.4119 11.544 0 1.0338-1.1942 2.2398-1.1942 2.2398z" fill="#211c1c"/>
</svg>
