<svg width="224" height="224" viewBox="0 0 224 224" fill="none" xmlns="http://www.w3.org/2000/svg">
<g clip-path="url(#clip0)">
<rect width="224" height="224"/>
<path fill-rule="evenodd" clip-rule="evenodd" d="M201.404 74.9053C188.458 31.4361 154.985 9.79198 110.153 8.24593L110.154 8.18283C109.935 8.19327 109.721 8.20996 109.503 8.22041C109.289 8.2137 109.073 8.19926 108.855 8.19339L108.856 8.2593C64.06 10.6426 30.9972 32.905 18.8657 76.6096C10.2188 107.759 26.3712 151.018 45.1557 157.652C72.9311 171.831 54.3797 216.245 110.828 219.362L110.826 219.446C111.048 219.432 111.258 219.414 111.476 219.398C111.695 219.409 111.903 219.426 112.125 219.435L112.123 219.35C168.504 215.177 149.127 171.12 176.631 156.424C195.292 149.442 210.63 105.888 201.404 74.9053Z" fill="#DD4141"/>
<path fill-rule="evenodd" clip-rule="evenodd" d="M80.4109 116.475C103.605 136.711 89.0873 153.971 70.1715 128.65C52.3691 154.915 37.1218 138.421 59.4171 117.014C36.2255 96.7794 50.7428 79.5194 69.6587 104.84C87.461 78.5755 102.708 95.0693 80.4109 116.475Z" fill="#B82E2E"/>
<path fill-rule="evenodd" clip-rule="evenodd" d="M77.518 124.972C81.3297 157.851 60.2834 158.394 62.6722 125.354C33.6849 129.618 33.1714 105.749 62.3121 108.519C58.4989 75.6358 79.5466 75.0966 77.1551 108.137C106.143 103.872 106.659 127.741 77.518 124.972Z" fill="#B82E2E"/>
<path fill-rule="evenodd" clip-rule="evenodd" d="M91.4013 116.193C102.8 107.9 97.613 97.1252 81.9568 102.427C85.8902 84.4414 76.1556 79.0749 69.3904 92.3799C62.0565 79.4373 52.5634 85.2997 57.2661 103.062C41.4007 98.5702 36.6856 109.601 48.4287 117.297C37.0279 125.59 42.2149 136.364 57.8711 131.062C53.9377 149.048 63.6745 154.415 70.4396 141.11C77.7736 154.053 87.2666 148.19 82.5639 130.428C98.4293 134.92 103.144 123.889 91.4013 116.193Z" fill="#B82E2E"/>
<path fill-rule="evenodd" clip-rule="evenodd" d="M91.7845 116.182C92.0795 129.881 82.5269 141.234 70.4491 141.547C58.3719 141.857 48.339 131.005 48.044 117.306C47.7506 103.61 57.301 92.2553 69.3781 91.945C81.4581 91.6332 91.4889 102.485 91.7845 116.182Z" fill="#FFF4D7"/>
<path fill-rule="evenodd" clip-rule="evenodd" d="M88.2621 116.274C88.5081 127.765 80.4942 137.29 70.3632 137.551C60.2301 137.811 51.8161 128.707 51.568 117.216C51.322 105.726 59.3337 96.1999 69.4669 95.9397C79.5979 95.6789 88.0118 104.783 88.2621 116.274Z" fill="#262238"/>
<path fill-rule="evenodd" clip-rule="evenodd" d="M162.987 115.891C186.18 136.127 171.66 153.388 152.744 128.067C134.942 154.332 119.695 137.836 141.992 116.433C118.798 96.1969 133.319 78.9354 152.232 104.258C170.034 77.993 185.281 94.4869 162.987 115.891Z" fill="#B82E2E"/>
<path fill-rule="evenodd" clip-rule="evenodd" d="M160.094 124.388C163.907 157.27 142.856 157.811 145.248 124.77C116.261 129.034 115.745 105.165 144.885 107.936C141.074 75.0541 162.12 74.512 159.731 107.554C188.718 103.29 189.234 127.159 160.094 124.388Z" fill="#B82E2E"/>
<path fill-rule="evenodd" clip-rule="evenodd" d="M173.977 115.609C185.375 107.318 180.189 96.5412 164.535 101.844C168.465 83.8595 158.729 78.4923 151.964 91.7952C144.63 78.8526 135.137 84.7149 139.842 102.478C123.976 97.9883 119.259 109.018 131.002 116.714C119.604 125.006 124.79 135.782 140.446 130.48C136.514 148.464 146.248 153.83 153.015 140.528C160.347 153.47 169.84 147.608 165.137 129.845C181.003 134.335 185.718 123.305 173.977 115.609Z" fill="#B82E2E"/>
<path fill-rule="evenodd" clip-rule="evenodd" d="M174.36 115.6C174.655 129.296 165.102 140.652 153.025 140.963C140.948 141.273 130.914 130.423 130.619 116.724C130.324 103.027 139.877 91.6713 151.954 91.3609C164.033 91.0513 174.064 101.903 174.36 115.6Z" fill="#FFF4D7"/>
<path fill-rule="evenodd" clip-rule="evenodd" d="M170.984 115.688C171.232 127.27 163.157 136.873 152.941 137.136C142.727 137.399 134.245 128.221 133.994 116.638C133.747 105.053 141.822 95.4506 152.036 95.187C162.251 94.9261 170.734 104.103 170.984 115.688Z" fill="#262238"/>
<path fill-rule="evenodd" clip-rule="evenodd" d="M142.291 160.734L137.253 160.893L84.2936 161.893L79.2544 161.972C79.2544 161.972 76.7656 192.825 112.519 191.984C143.543 191.254 142.291 160.734 142.291 160.734Z" fill="#262238"/>
<path fill-rule="evenodd" clip-rule="evenodd" d="M109.766 121.135C109.766 121.135 99.0805 135.81 101.711 139.424C101.711 139.424 102.665 142.177 106.049 141.815C109.436 141.453 110.36 140.295 110.36 140.295C110.36 140.295 113.643 141.69 115.897 141.353C118.151 141.017 119.814 139.564 118.295 135.074C116.775 130.585 109.766 121.135 109.766 121.135Z" fill="#262238"/>
<path fill-rule="evenodd" clip-rule="evenodd" d="M73.3542 64.5138C73.3542 64.5138 64.9495 36.2477 57.6873 36.078C57.6873 36.078 53.1917 34.5935 50.3214 39.3215C47.4516 44.0475 52.805 49.5791 52.805 49.5791C52.805 49.5791 42.9959 49.247 41.2056 52.4891C39.4152 55.7311 39.6523 59.3095 46.9458 61.776C54.2393 64.2426 73.3542 64.5138 73.3542 64.5138Z" fill="#FFF4D7"/>
<path fill-rule="evenodd" clip-rule="evenodd" d="M145.548 62.5506C145.548 62.5506 153.553 34.167 160.81 33.8945C160.81 33.8945 165.286 32.3476 168.223 37.0351C171.159 41.7198 165.883 47.3269 165.883 47.3269C165.883 47.3269 175.689 46.8566 177.525 50.0709C179.361 53.2873 179.173 56.8693 171.917 59.4387C164.657 62.0067 145.548 62.5506 145.548 62.5506Z" fill="#FFF4D7"/>
<path fill-rule="evenodd" clip-rule="evenodd" d="M74.1258 78.3325C78.2089 79.7636 80.4405 73.4224 76.3517 71.9872C72.2686 70.5561 70.0363 76.8994 74.1258 78.3325Z" fill="#FFF4D7"/>
<path fill-rule="evenodd" clip-rule="evenodd" d="M57.8198 76.2017C61.9007 77.6322 64.1323 71.291 60.0456 69.8564C55.9626 68.4253 53.7309 74.7665 57.8198 76.2017Z" fill="#FFF4D7"/>
<path fill-rule="evenodd" clip-rule="evenodd" d="M43.2585 82.4829C47.3416 83.914 49.5732 77.5729 45.4816 76.1391C41.4013 74.7065 39.169 81.0498 43.2585 82.4829Z" fill="#FFF4D7"/>
<path fill-rule="evenodd" clip-rule="evenodd" d="M34.9366 97.147C39.0169 98.5796 41.2492 92.2363 37.1618 90.8039C33.0794 89.3706 30.8471 95.714 34.9366 97.147Z" fill="#FFF4D7"/>
<path fill-rule="evenodd" clip-rule="evenodd" d="M31.1333 115.712C35.2157 117.145 37.448 110.802 33.3591 109.366C29.2782 107.936 27.0459 114.279 31.1333 115.712Z" fill="#FFF4D7"/>
<path fill-rule="evenodd" clip-rule="evenodd" d="M131.464 83.5452C135.544 84.9778 137.777 78.6344 133.688 77.1992C129.605 75.7681 127.372 82.1114 131.464 83.5452Z" fill="#FFF4D7"/>
<path fill-rule="evenodd" clip-rule="evenodd" d="M147.136 75.5693C151.219 77.0026 153.451 70.6593 149.359 69.2255C145.276 67.7944 143.045 74.1356 147.136 75.5693Z" fill="#FFF4D7"/>
<path fill-rule="evenodd" clip-rule="evenodd" d="M108.696 71.1218C112.777 72.5544 115.009 66.2111 110.922 64.7765C106.839 63.3454 104.607 69.6887 108.696 71.1218Z" fill="#FFF4D7"/>
<path fill-rule="evenodd" clip-rule="evenodd" d="M103.833 32.2466C114.117 35.8525 119.737 19.8795 109.438 16.2668C99.1552 12.6615 93.5359 28.6345 103.833 32.2466Z" fill="#FFF4D7"/>
<path fill-rule="evenodd" clip-rule="evenodd" d="M107.081 52.4283C114.049 54.8725 117.858 44.0455 110.878 41.5973C103.909 39.1552 100.099 49.9795 107.081 52.4283Z" fill="#FFF4D7"/>
<path fill-rule="evenodd" clip-rule="evenodd" d="M164.005 77.6988C168.086 79.1293 170.315 72.7874 166.229 71.3529C162.146 69.9217 159.914 76.2629 164.005 77.6988Z" fill="#FFF4D7"/>
<path fill-rule="evenodd" clip-rule="evenodd" d="M171.925 81.5263C171.926 81.7142 171.925 81.9013 171.929 82.0898C171.941 83.9051 173.142 85.5402 175.054 85.6724C176.763 85.7919 178.65 84.3722 178.639 82.5477C178.635 82.3592 178.636 82.1742 178.632 81.9857C178.62 80.1705 177.419 78.5353 175.509 78.4038C173.798 78.2836 171.911 79.7034 171.925 81.5263Z" fill="#FFF4D7"/>
<path fill-rule="evenodd" clip-rule="evenodd" d="M181.564 98.3585C185.647 99.7917 187.879 93.4484 183.787 92.0147C179.705 90.5814 177.473 96.9247 181.564 98.3585Z" fill="#FFF4D7"/>
<path fill-rule="evenodd" clip-rule="evenodd" d="M186.26 126.976C190.343 128.407 192.574 122.066 188.485 120.631C184.402 119.2 182.171 125.541 186.26 126.976Z" fill="#FFF4D7"/>
<path fill-rule="evenodd" clip-rule="evenodd" d="M157.992 159.179C155.062 159.612 150.342 159.896 145.32 158.398C140.344 156.961 135.181 153.575 132.49 148.914C137.35 151.103 142.151 152.561 146.526 153.306C150.89 154.04 154.753 153.991 157.217 153.636C160.305 153.162 161.953 152.886 162.97 153.047C163.987 153.215 164.364 153.822 164.653 154.539C164.943 155.253 165.124 155.934 164.331 156.765C163.546 157.591 161.726 158.609 157.992 159.179Z" fill="#B82E2E"/>
<path fill-rule="evenodd" clip-rule="evenodd" d="M144.3 197.947C142.002 200.602 137.81 204.303 132.147 206.469C126.532 208.684 119.839 209.289 113.794 208.083C119.433 205.544 125.093 203.419 129.627 200.943C134.169 198.529 137.599 195.748 139.453 193.627C141.775 190.967 142.828 189.454 143.823 188.806C144.762 188.133 145.571 188.315 146.399 188.659C147.226 189.003 147.939 189.402 147.971 190.775C147.951 192.098 147.256 194.564 144.3 197.947Z" fill="#FFF3D9"/>
<path fill-rule="evenodd" clip-rule="evenodd" d="M129.928 199.064C128.762 200.616 126.788 202.958 123.921 204.837C121.086 206.719 117.348 208.056 113.777 207.885C116.76 205.954 119.536 203.989 121.839 202.035C124.136 200.087 125.926 198.164 126.953 196.805C128.23 195.089 128.945 194.192 129.532 193.813C130.119 193.433 130.572 193.576 131.032 193.81C131.491 194.042 131.881 194.309 131.856 195.063C131.835 195.814 131.401 197.089 129.928 199.064Z" fill="#FFF3D9"/>
<path fill-rule="evenodd" clip-rule="evenodd" d="M91.6957 62.2331C95.5158 64.8001 101.238 69.4016 105.448 76.3718C109.67 83.2284 112.069 92.5154 110.288 100.684C106.989 93.0928 102.992 86.3986 98.7417 80.9699C94.4903 75.5666 89.9974 71.5824 86.7927 69.4168C82.7477 66.7342 80.5638 65.3306 79.5628 64.0825C78.5643 62.8258 78.771 61.736 79.1858 60.609C79.6007 59.4821 80.101 58.5125 81.8829 58.3871C83.6483 58.2542 86.8064 58.9854 91.6957 62.2331Z" fill="#B82E2E"/>
<path fill-rule="evenodd" clip-rule="evenodd" d="M125.557 60.7837C121.979 63.6807 116.687 68.77 113.114 76.0883C109.519 83.2924 107.954 92.7574 110.457 100.738C113.067 92.8816 116.452 85.8594 120.205 80.0749C123.956 74.3131 128.081 69.945 131.081 67.5063C134.87 64.4722 136.921 62.8824 137.806 61.5502C138.69 60.2102 138.388 59.143 137.876 58.0563C137.36 56.9704 136.775 56.0486 134.988 56.0834C133.221 56.1057 130.138 57.1152 125.557 60.7837Z" fill="#B82E2E"/>
<path fill-rule="evenodd" clip-rule="evenodd" d="M67.2127 154.271C69.6828 154.593 73.5469 154.586 77.901 153.789C82.2648 152.984 87.0436 151.457 91.8695 149.202C89.2493 153.901 84.1338 157.357 79.1752 158.866C74.1769 160.436 69.4564 160.216 66.5174 159.826C62.7762 159.308 60.9422 158.316 60.1447 157.498C59.3402 156.68 59.511 155.999 59.7921 155.279C60.0711 154.558 60.4386 153.946 61.4549 153.765C62.4692 153.59 64.1188 153.843 67.2127 154.271Z" fill="#B82E2E"/>
<path fill-rule="evenodd" clip-rule="evenodd" d="M85.5411 194.008C87.4225 196.102 90.8945 198.834 95.4699 201.185C100.038 203.598 105.729 205.64 111.403 208.099C105.374 209.392 98.6728 208.883 93.0273 206.744C87.3349 204.659 83.0908 201.018 80.7551 198.394C77.7522 195.055 77.0243 192.599 76.9834 191.277C76.9957 189.903 77.7043 189.494 78.5255 189.138C79.3489 188.782 80.1551 188.591 81.1017 189.25C82.1086 189.882 83.1812 191.379 85.5411 194.008Z" fill="#FFF3D9"/>
<path fill-rule="evenodd" clip-rule="evenodd" d="M98.0826 197.008C99.1286 198.354 100.951 200.252 103.273 202.166C105.604 204.086 108.405 206.016 111.416 207.904C107.846 208.122 104.09 206.838 101.23 204.996C98.3373 203.158 96.3312 200.843 95.1429 199.31C93.6435 197.354 93.1871 196.088 93.1563 195.338C93.1246 194.583 93.5055 194.31 93.9647 194.073C94.4201 193.833 94.8694 193.682 95.4635 194.053C96.0555 194.424 96.7825 195.312 98.0826 197.008Z" fill="#FFF3D9"/>
</g>
<defs>
<clipPath id="clip0">
<rect width="224" height="224" fill="white"/>
</clipPath>
</defs>
</svg>
