<svg width="224" height="224" viewBox="0 0 224 224" fill="none" xmlns="http://www.w3.org/2000/svg">
<g clip-path="url(#clip0)">
<rect width="224" height="224" />
<path fill-rule="evenodd" clip-rule="evenodd" d="M18.1164 150C31.062 193.47 64.5349 215.114 109.367 216.66L109.366 216.723C109.585 216.712 109.799 216.696 110.017 216.685C110.231 216.692 110.447 216.706 110.665 216.712L110.664 216.646C155.46 214.263 188.523 192.001 200.654 148.296C209.301 117.147 193.149 73.8875 174.364 67.2539C146.589 53.0745 165.14 8.66107 108.692 5.54369L108.694 5.45997C108.472 5.47404 108.262 5.49207 108.044 5.50745C107.825 5.49664 107.617 5.47985 107.395 5.47053L107.397 5.55556C51.0163 9.72841 70.393 53.7858 42.8892 68.4816C24.2282 75.464 8.89003 119.018 18.1164 150Z" fill="#DD4182"/>
<path fill-rule="evenodd" clip-rule="evenodd" d="M139.109 108.431C115.915 88.1948 130.433 70.9348 149.349 96.2557C167.151 69.9909 182.398 86.4848 160.103 107.891C183.295 128.126 168.777 145.386 149.861 120.065C132.059 146.33 116.812 129.836 139.109 108.431Z" fill="#B82E6A"/>
<path fill-rule="evenodd" clip-rule="evenodd" d="M142.002 99.934C138.19 67.0541 159.237 66.512 156.848 99.5515C185.835 95.2878 186.349 119.156 157.208 116.387C161.021 149.27 139.973 149.809 142.365 116.768C113.377 121.034 112.861 97.1647 142.002 99.934Z" fill="#B82E6A"/>
<path fill-rule="evenodd" clip-rule="evenodd" d="M128.119 108.712C116.72 117.006 121.907 127.78 137.563 122.478C133.63 140.464 143.364 145.831 150.13 132.526C157.464 145.468 166.957 139.606 162.254 121.843C178.119 126.335 182.834 115.305 171.091 107.609C182.492 99.316 177.305 88.5414 161.649 93.8435C165.582 75.8576 155.846 70.4904 149.08 83.7954C141.746 70.8528 132.253 76.7151 136.956 94.4777C121.091 89.9857 116.376 101.016 128.119 108.712Z" fill="#B82E6A"/>
<path fill-rule="evenodd" clip-rule="evenodd" d="M127.735 108.724C127.441 95.0251 136.993 83.6714 149.071 83.3589C161.148 83.0486 171.181 93.9011 171.476 107.6C171.769 121.296 162.219 132.65 150.142 132.961C138.062 133.272 128.031 122.421 127.735 108.724Z" fill="#FFF4D7"/>
<path fill-rule="evenodd" clip-rule="evenodd" d="M131.258 108.631C131.012 97.141 139.026 87.6158 149.157 87.3549C159.29 87.0947 167.704 96.1984 167.952 107.689C168.198 119.18 160.186 128.706 150.053 128.966C139.922 129.227 131.508 120.123 131.258 108.631Z" fill="#262238"/>
<path fill-rule="evenodd" clip-rule="evenodd" d="M56.5333 109.014C33.3396 88.7788 47.8597 71.5173 66.7756 96.8381C84.5779 70.5734 99.8246 87.0694 77.5279 108.473C100.722 128.709 86.2014 145.97 67.2884 120.648C49.486 146.913 34.2388 130.419 56.5333 109.014Z" fill="#B82E6A"/>
<path fill-rule="evenodd" clip-rule="evenodd" d="M59.4262 100.518C55.613 67.6352 76.6636 67.0945 74.272 100.135C103.259 95.8718 103.775 119.741 74.6349 116.969C78.446 149.852 57.3997 150.394 59.7891 117.352C30.8019 121.616 30.2862 97.7465 59.4262 100.518Z" fill="#B82E6A"/>
<path fill-rule="evenodd" clip-rule="evenodd" d="M45.5429 109.296C34.1449 117.588 39.3312 128.364 54.9853 123.062C51.0547 141.046 60.7914 146.413 67.5559 133.11C74.8899 146.053 84.3829 140.191 79.678 122.428C95.5441 126.917 100.261 115.888 88.5182 108.191C99.9162 99.9001 94.7299 89.1233 79.0737 94.4255C83.0065 76.4417 73.2719 71.0751 66.5053 84.3774C59.1734 71.4354 49.6804 77.2978 54.3831 95.0603C38.517 90.5705 33.8019 101.601 45.5429 109.296Z" fill="#B82E6A"/>
<path fill-rule="evenodd" clip-rule="evenodd" d="M45.1603 109.306C44.8647 95.6092 54.4179 84.2533 66.4951 83.943C78.5723 83.6327 88.6059 94.483 88.9008 108.182C89.1964 121.879 79.6432 133.234 67.5661 133.545C55.4867 133.854 45.4559 123.003 45.1603 109.306Z" fill="#FFF4D7"/>
<path fill-rule="evenodd" clip-rule="evenodd" d="M48.5361 109.218C48.2877 97.6354 56.3628 88.0328 66.5789 87.7698C76.7927 87.5062 85.2752 96.6847 85.5256 108.268C85.7733 119.852 77.6982 129.455 67.4843 129.719C57.269 129.98 48.7859 120.803 48.5361 109.218Z" fill="#262238"/>
<path fill-rule="evenodd" clip-rule="evenodd" d="M77.2291 64.1717L82.2669 64.0129L135.226 63.0124L140.266 62.9337C140.266 62.9337 142.754 32.0809 107.001 32.9212C75.9768 33.6515 77.2291 64.1717 77.2291 64.1717Z" fill="#262238"/>
<path fill-rule="evenodd" clip-rule="evenodd" d="M109.754 103.77C109.754 103.77 120.44 89.0953 117.809 85.4812C117.809 85.4812 116.855 82.7289 113.471 83.0909C110.084 83.4522 109.16 84.611 109.16 84.611C109.16 84.611 105.877 83.2159 103.623 83.5531C101.369 83.8882 99.7061 85.3413 101.225 89.8318C102.745 94.3202 109.754 103.77 109.754 103.77Z" fill="#262238"/>
<path fill-rule="evenodd" clip-rule="evenodd" d="M146.166 160.392C146.166 160.392 154.571 188.658 161.833 188.828C161.833 188.828 166.328 190.312 169.199 185.584C172.068 180.858 166.715 175.327 166.715 175.327C166.715 175.327 176.524 175.659 178.314 172.417C180.105 169.175 179.868 165.596 172.574 163.13C165.281 160.663 146.166 160.392 146.166 160.392Z" fill="#FFF4D7"/>
<path fill-rule="evenodd" clip-rule="evenodd" d="M73.9719 162.355C73.9719 162.355 65.9667 190.739 58.71 191.011C58.71 191.011 54.2343 192.558 51.2968 187.871C48.3608 183.186 53.6372 177.579 53.6372 177.579C53.6372 177.579 43.8312 178.049 41.9947 174.835C40.1588 171.618 40.347 168.036 47.6029 165.467C54.8631 162.899 73.9719 162.355 73.9719 162.355Z" fill="#FFF4D7"/>
<path fill-rule="evenodd" clip-rule="evenodd" d="M145.394 146.573C141.311 145.142 139.08 151.483 143.168 152.918C147.251 154.35 149.484 148.006 145.394 146.573Z" fill="#FFF4D7"/>
<path fill-rule="evenodd" clip-rule="evenodd" d="M161.7 148.704C157.619 147.273 155.388 153.615 159.474 155.049C163.557 156.48 165.789 150.139 161.7 148.704Z" fill="#FFF4D7"/>
<path fill-rule="evenodd" clip-rule="evenodd" d="M176.261 142.423C172.178 140.992 169.947 147.333 174.038 148.766C178.119 150.199 180.351 143.856 176.261 142.423Z" fill="#FFF4D7"/>
<path fill-rule="evenodd" clip-rule="evenodd" d="M184.583 127.759C180.503 126.326 178.271 132.669 182.358 134.102C186.441 135.535 188.673 129.192 184.583 127.759Z" fill="#FFF4D7"/>
<path fill-rule="evenodd" clip-rule="evenodd" d="M188.387 109.194C184.304 107.761 182.072 114.104 186.161 115.539C190.242 116.97 192.474 110.626 188.387 109.194Z" fill="#FFF4D7"/>
<path fill-rule="evenodd" clip-rule="evenodd" d="M88.056 141.36C83.9758 139.928 81.7435 146.271 85.8323 147.706C89.9154 149.137 92.1477 142.794 88.056 141.36Z" fill="#FFF4D7"/>
<path fill-rule="evenodd" clip-rule="evenodd" d="M72.3838 149.336C68.3014 147.903 66.0691 154.246 70.1608 155.68C74.2438 157.111 76.4755 150.77 72.3838 149.336Z" fill="#FFF4D7"/>
<path fill-rule="evenodd" clip-rule="evenodd" d="M110.824 153.784C106.743 152.351 104.511 158.695 108.598 160.129C112.681 161.56 114.913 155.217 110.824 153.784Z" fill="#FFF4D7"/>
<path fill-rule="evenodd" clip-rule="evenodd" d="M115.687 192.659C105.403 189.053 99.7834 205.026 110.082 208.639C120.365 212.244 125.984 196.271 115.687 192.659Z" fill="#FFF4D7"/>
<path fill-rule="evenodd" clip-rule="evenodd" d="M112.439 172.477C105.471 170.033 101.662 180.86 108.642 183.308C115.611 185.75 119.421 174.926 112.439 172.477Z" fill="#FFF4D7"/>
<path fill-rule="evenodd" clip-rule="evenodd" d="M55.515 147.207C51.434 145.776 49.2045 152.118 53.2912 153.553C57.3743 154.984 59.6059 148.643 55.515 147.207Z" fill="#FFF4D7"/>
<path fill-rule="evenodd" clip-rule="evenodd" d="M47.5948 143.379C47.5936 143.191 47.5946 143.004 47.5913 142.816C47.5792 141.001 46.3777 139.365 44.466 139.233C42.7566 139.114 40.8696 140.533 40.8813 142.358C40.8846 142.546 40.8842 142.731 40.8875 142.92C40.8997 144.735 42.1011 146.37 44.0107 146.502C45.7222 146.622 47.6093 145.202 47.5948 143.379Z" fill="#FFF4D7"/>
<path fill-rule="evenodd" clip-rule="evenodd" d="M37.9557 126.547C33.8733 125.114 31.641 131.457 35.7327 132.891C39.8151 134.324 42.0474 127.981 37.9557 126.547Z" fill="#FFF4D7"/>
<path fill-rule="evenodd" clip-rule="evenodd" d="M33.2604 97.9296C29.1773 96.4985 26.9457 102.84 31.0345 104.275C35.1176 105.706 37.3492 99.3648 33.2604 97.9296Z" fill="#FFF4D7"/>
<path fill-rule="evenodd" clip-rule="evenodd" d="M61.5279 65.7269C64.4584 65.2941 69.1783 65.01 74.1996 66.5076C79.176 67.9447 84.3395 71.3302 87.0297 75.9913C82.1705 73.8026 77.3693 72.3442 72.9943 71.5995C68.6303 70.8652 64.7672 70.9145 62.3034 71.2697C59.2152 71.7433 57.5675 72.02 56.5504 71.859C55.5331 71.6909 55.1564 71.0836 54.8669 70.3671C54.5768 69.6526 54.396 68.9717 55.189 68.1408C55.9736 67.3144 57.7942 66.2961 61.5279 65.7269Z" fill="#B82E6A"/>
<path fill-rule="evenodd" clip-rule="evenodd" d="M75.2201 26.9591C77.5178 24.3034 81.7098 20.6027 87.373 18.4369C92.9881 16.2212 99.6808 15.6169 105.726 16.823C100.087 19.3618 94.4273 21.4865 89.8926 23.9622C85.3508 26.3771 81.9206 29.1576 80.0674 31.279C77.745 33.939 76.6919 35.4519 75.6972 36.0993C74.7577 36.7729 73.9485 36.5911 73.1211 36.2468C72.2937 35.9024 71.5812 35.5041 71.5489 34.1303C71.5689 32.8077 72.2643 30.3417 75.2201 26.9591Z" fill="#FFF3D9"/>
<path fill-rule="evenodd" clip-rule="evenodd" d="M89.5924 25.8414C90.7579 24.2901 92.7324 21.948 95.599 20.0685C98.4336 18.1862 102.172 16.8498 105.743 17.0205C102.76 18.9512 99.9844 20.9171 97.6811 22.8704C95.3841 24.8186 93.5941 26.7414 92.5669 28.1006C91.2898 29.817 90.575 30.7139 89.9883 31.0923C89.4009 31.4728 88.9479 31.3296 88.4876 31.0952C88.0288 30.8635 87.6393 30.5968 87.6637 29.8426C87.6846 29.092 88.1191 27.8164 89.5924 25.8414Z" fill="#FFF3D9"/>
<path fill-rule="evenodd" clip-rule="evenodd" d="M127.824 162.673C124.004 160.106 118.282 155.504 114.072 148.534C109.85 141.677 107.451 132.39 109.232 124.221C112.53 131.813 116.528 138.507 120.778 143.936C125.03 149.339 129.523 153.323 132.727 155.489C136.772 158.171 138.956 159.575 139.957 160.823C140.956 162.08 140.749 163.17 140.334 164.297C139.919 165.424 139.419 166.393 137.637 166.519C135.872 166.651 132.714 165.92 127.824 162.673Z" fill="#B82E6A"/>
<path fill-rule="evenodd" clip-rule="evenodd" d="M93.963 164.122C97.5413 161.225 102.833 156.136 106.406 148.817C110.001 141.613 111.566 132.148 109.063 124.168C106.453 132.024 103.068 139.046 99.3148 144.831C95.5637 150.592 91.4394 154.961 88.4394 157.399C84.6504 160.433 82.5989 162.023 81.7135 163.355C80.8304 164.695 81.1322 165.763 81.6436 166.849C82.16 167.935 82.7453 168.857 84.5323 168.822C86.2991 168.8 89.3824 167.79 93.963 164.122Z" fill="#B82E6A"/>
<path fill-rule="evenodd" clip-rule="evenodd" d="M152.307 70.6344C149.837 70.3128 145.973 70.3195 141.619 71.1162C137.255 71.9217 132.476 73.4486 127.651 75.7041C130.271 71.0049 135.386 67.5491 140.345 66.0397C145.343 64.4697 150.064 64.6896 153.003 65.0796C156.744 65.5977 158.578 66.5896 159.375 67.4076C160.18 68.2254 160.009 68.9067 159.728 69.6269C159.449 70.3478 159.081 70.9595 158.065 71.141C157.051 71.3159 155.401 71.0624 152.307 70.6344Z" fill="#B82E6A"/>
<path fill-rule="evenodd" clip-rule="evenodd" d="M133.979 30.8976C132.097 28.8038 128.625 26.0714 124.05 23.7211C119.482 21.3075 113.791 19.2652 108.117 16.8063C114.146 15.5139 120.847 16.0231 126.493 18.1615C132.185 20.2464 136.429 23.8874 138.765 26.5114C141.768 29.8504 142.496 32.3063 142.537 33.6288C142.524 35.003 141.816 35.4121 140.994 35.768C140.171 36.1232 139.365 36.3149 138.418 35.6553C137.411 35.024 136.339 33.5267 133.979 30.8976Z" fill="#FFF3D9"/>
<path fill-rule="evenodd" clip-rule="evenodd" d="M121.437 27.8978C120.391 26.5516 118.569 24.6541 116.247 22.7393C113.916 20.8198 111.115 18.8901 108.104 17.0018C111.674 16.7834 115.43 18.0675 118.29 19.9099C121.183 21.748 123.189 24.0627 124.377 25.5954C125.877 27.5513 126.333 28.818 126.364 29.568C126.395 30.3229 126.014 30.5955 125.555 30.8324C125.1 31.0728 124.651 31.2237 124.056 30.8522C123.464 30.4814 122.738 29.5936 121.437 27.8978Z" fill="#FFF3D9"/>
</g>
<defs>
<clipPath id="clip0">
<rect width="224" height="224" fill="white"/>
</clipPath>
</defs>
</svg>
