<svg width="200px" height="200px" viewBox="0 0 100 100" fill="none" xmlns="http://www.w3.org/2000/svg">
<g clip-path="url(#clip0)">
<rect width="100" height="100" fill="#361154"/>
<path fill-rule="evenodd" clip-rule="evenodd" d="M8.08771 66.9644C13.867 86.3703 28.8102 96.0329 48.8244 96.7231L48.8241 96.7513C48.9218 96.7466 49.0172 96.7391 49.1149 96.7345C49.2102 96.7375 49.3066 96.7439 49.4041 96.7465L49.4037 96.7171C69.4018 95.6531 84.162 85.7146 89.5778 66.2036C93.4381 52.2975 86.2272 32.9855 77.8412 30.0241C65.4415 23.6939 73.7234 3.86652 48.5232 2.47483L48.5241 2.43746C48.4249 2.44374 48.3314 2.45178 48.2341 2.45865C48.1362 2.45383 48.0433 2.44634 47.9441 2.44217L47.9451 2.48013C22.7751 4.34301 31.4254 24.0115 19.147 30.5721C10.8162 33.6893 3.96877 53.1329 8.08771 66.9644Z" fill="#DD4182"/>
<path fill-rule="evenodd" clip-rule="evenodd" d="M62.1022 48.4065C51.7479 39.3727 58.2288 31.6673 66.6734 42.9713C74.6209 31.246 81.4277 38.6093 71.4745 48.1657C81.8279 57.1992 75.3469 64.9046 66.9024 53.6006C58.9549 65.326 52.1481 57.9626 62.1022 48.4065Z" fill="#B82E6A"/>
<path fill-rule="evenodd" clip-rule="evenodd" d="M63.3938 44.6134C61.6921 29.9349 71.0878 29.6929 70.0214 44.4426C82.9621 42.5392 83.1914 53.1948 70.1821 51.9585C71.8845 66.6383 62.4881 66.879 63.5558 52.1286C50.6148 54.033 50.3846 43.3771 63.3938 44.6134Z" fill="#B82E6A"/>
<path fill-rule="evenodd" clip-rule="evenodd" d="M57.1958 48.5322C52.1071 52.2347 54.4227 57.0448 61.4121 54.6777C59.6561 62.7072 64.002 65.103 67.0221 59.1632C70.2962 64.9412 74.5342 62.324 72.4347 54.3943C79.5175 56.3997 81.6225 51.4754 76.38 48.0396C81.4696 44.3375 79.154 39.5274 72.1647 41.8944C73.9206 33.8649 69.5739 31.4689 66.5537 37.4086C63.2796 31.6307 59.0417 34.2478 61.1411 42.1775C54.0583 40.1721 51.9533 45.0965 57.1958 48.5322Z" fill="#B82E6A"/>
<path fill-rule="evenodd" clip-rule="evenodd" d="M57.0247 48.5375C56.8931 42.4219 61.1576 37.3533 66.5495 37.2138C71.9411 37.0753 76.4201 41.9201 76.5517 48.0357C76.6827 54.15 72.4192 59.2189 67.0276 59.3574C61.6347 59.4966 57.1567 54.6521 57.0247 48.5375Z" fill="#FFF4D7"/>
<path fill-rule="evenodd" clip-rule="evenodd" d="M58.5973 48.4961C58.4874 43.3665 62.0651 39.1142 66.5879 38.9978C71.1116 38.8816 74.8678 42.9457 74.9786 48.0757C75.0884 53.2053 71.5117 57.4579 66.988 57.5741C62.4652 57.6905 58.709 53.6264 58.5973 48.4961Z" fill="#262238"/>
<path fill-rule="evenodd" clip-rule="evenodd" d="M25.2381 48.6673C14.8837 39.6335 21.3659 31.9274 29.8105 43.2314C37.758 31.5061 44.5645 38.8703 34.6106 48.4255C44.965 57.4593 38.4828 65.1653 30.0394 53.8607C22.092 65.586 15.2852 58.2227 25.2381 48.6673Z" fill="#B82E6A"/>
<path fill-rule="evenodd" clip-rule="evenodd" d="M26.5296 44.8741C24.8273 30.1944 34.2248 29.953 33.1572 44.7034C46.0979 42.8 46.3281 53.4558 33.3192 52.2186C35.0205 66.8981 25.6249 67.1401 26.6916 52.3894C13.7508 54.2928 13.5206 43.6369 26.5296 44.8741Z" fill="#B82E6A"/>
<path fill-rule="evenodd" clip-rule="evenodd" d="M20.3317 48.793C15.2433 52.4945 17.5586 57.3056 24.547 54.9382C22.7923 62.967 27.139 65.3631 30.1589 59.4243C33.433 65.2023 37.6709 62.5851 35.5706 54.6551C42.6536 56.6595 44.7596 51.7355 39.5171 48.2997C44.6055 44.5983 42.2902 39.7872 35.3008 42.1542C37.0565 34.1257 32.7107 31.73 29.6899 37.6685C26.4167 31.8908 22.1788 34.5079 24.2782 42.4376C17.1951 40.4332 15.0901 45.3576 20.3317 48.793Z" fill="#B82E6A"/>
<path fill-rule="evenodd" clip-rule="evenodd" d="M20.1609 48.7972C20.0289 42.6826 24.2937 37.613 29.6853 37.4745C35.0769 37.336 39.5562 42.1798 39.6879 48.2954C39.8198 54.41 35.555 59.4796 30.1634 59.6181C24.7709 59.7564 20.2928 54.9118 20.1609 48.7972Z" fill="#FFF4D7"/>
<path fill-rule="evenodd" clip-rule="evenodd" d="M21.6679 48.7579C21.557 43.5871 25.162 39.3003 29.7227 39.1829C34.2825 39.0652 38.0693 43.1628 38.1811 48.3338C38.2916 53.5055 34.6867 57.7923 30.1269 57.91C25.5665 58.0265 21.7794 53.9299 21.6679 48.7579Z" fill="#262238"/>
<path fill-rule="evenodd" clip-rule="evenodd" d="M34.4773 28.6481L36.7263 28.5772L60.3689 28.1305L62.6186 28.0954C62.6186 28.0954 63.7297 14.3218 47.7681 14.697C33.9182 15.023 34.4773 28.6481 34.4773 28.6481Z" fill="#262238"/>
<path fill-rule="evenodd" clip-rule="evenodd" d="M48.9975 46.326C48.9975 46.326 53.7676 39.7746 52.5933 38.1612C52.5933 38.1612 52.1675 36.9325 50.6566 37.0941C49.1447 37.2554 48.7323 37.7727 48.7323 37.7727C48.7323 37.7727 47.2666 37.1499 46.2601 37.3004C45.254 37.45 44.5116 38.0987 45.1897 40.1034C45.8681 42.1072 48.9975 46.326 48.9975 46.326Z" fill="#262238"/>
<path fill-rule="evenodd" clip-rule="evenodd" d="M65.2526 71.6036C65.2526 71.6036 69.0047 84.2223 72.2467 84.2981C72.2467 84.2981 74.2537 84.9609 75.5351 82.8501C76.8162 80.7403 74.4263 78.2709 74.4263 78.2709C74.4263 78.2709 78.8054 78.4191 79.6047 76.9717C80.4039 75.5244 80.2981 73.9269 77.0421 72.8258C73.786 71.7247 65.2526 71.6036 65.2526 71.6036Z" fill="#FFF4D7"/>
<path fill-rule="evenodd" clip-rule="evenodd" d="M33.0232 72.4799C33.0232 72.4799 29.4494 85.1511 26.2098 85.2728C26.2098 85.2728 24.2117 85.9634 22.9004 83.8708C21.5896 81.7794 23.9452 79.2762 23.9452 79.2762C23.9452 79.2762 19.5675 79.4862 18.7476 78.0512C17.928 76.6153 18.012 75.0162 21.2513 73.8692C24.4925 72.7227 33.0232 72.4799 33.0232 72.4799Z" fill="#FFF4D7"/>
<path fill-rule="evenodd" clip-rule="evenodd" d="M64.9081 65.4345C63.0853 64.7956 62.0891 67.6265 63.9144 68.2672C65.7372 68.9061 66.7338 66.0743 64.9081 65.4345Z" fill="#FFF4D7"/>
<path fill-rule="evenodd" clip-rule="evenodd" d="M72.1876 66.3857C70.3658 65.7471 69.3695 68.578 71.1939 69.2184C73.0167 69.8573 74.013 67.0264 72.1876 66.3857Z" fill="#FFF4D7"/>
<path fill-rule="evenodd" clip-rule="evenodd" d="M78.6882 63.5815C76.8654 62.9426 75.8691 65.7735 77.6958 66.4136C79.5173 67.0531 80.5139 64.2213 78.6882 63.5815Z" fill="#FFF4D7"/>
<path fill-rule="evenodd" clip-rule="evenodd" d="M82.4033 57.0352C80.5817 56.3956 79.5852 59.2274 81.4099 59.8669C83.2324 60.5068 84.2289 57.6749 82.4033 57.0352Z" fill="#FFF4D7"/>
<path fill-rule="evenodd" clip-rule="evenodd" d="M84.1012 48.7473C82.2787 48.1075 81.2822 50.9393 83.1075 51.5801C84.9294 52.2187 85.9259 49.3868 84.1012 48.7473Z" fill="#FFF4D7"/>
<path fill-rule="evenodd" clip-rule="evenodd" d="M39.3107 63.1074C37.4892 62.4678 36.4926 65.2996 38.318 65.9404C40.1408 66.5792 41.1374 63.7474 39.3107 63.1074Z" fill="#FFF4D7"/>
<path fill-rule="evenodd" clip-rule="evenodd" d="M32.3142 66.668C30.4917 66.0281 29.4952 68.86 31.3218 69.5C33.1446 70.1389 34.1409 67.3081 32.3142 66.668Z" fill="#FFF4D7"/>
<path fill-rule="evenodd" clip-rule="evenodd" d="M49.4748 68.6535C47.6533 68.0139 46.6567 70.8458 48.4812 71.4862C50.3039 72.1251 51.3005 69.2933 49.4748 68.6535Z" fill="#FFF4D7"/>
<path fill-rule="evenodd" clip-rule="evenodd" d="M51.6461 86.0086C47.0548 84.3987 44.5462 91.5296 49.1439 93.1424C53.7343 94.7519 56.2429 87.6211 51.6461 86.0086Z" fill="#FFF4D7"/>
<path fill-rule="evenodd" clip-rule="evenodd" d="M50.196 76.9989C47.0855 75.9077 45.3849 80.7412 48.5011 81.8341C51.6119 82.9243 53.3132 78.0921 50.196 76.9989Z" fill="#FFF4D7"/>
<path fill-rule="evenodd" clip-rule="evenodd" d="M24.7835 65.7173C22.9616 65.0787 21.9663 67.9099 23.7907 68.5503C25.6135 69.1892 26.6098 66.3583 24.7835 65.7173Z" fill="#FFF4D7"/>
<path fill-rule="evenodd" clip-rule="evenodd" d="M21.2477 64.0086C21.2472 63.9248 21.2476 63.8412 21.2461 63.7571C21.2407 62.9467 20.7043 62.2167 19.8509 62.1577C19.0878 62.1043 18.2453 62.7381 18.2506 63.5526C18.252 63.6368 18.2519 63.7194 18.2534 63.8035C18.2588 64.6139 18.7952 65.3439 19.6476 65.4026C20.4117 65.4563 21.2541 64.8224 21.2477 64.0086Z" fill="#FFF4D7"/>
<path fill-rule="evenodd" clip-rule="evenodd" d="M16.9446 56.4943C15.1221 55.8544 14.1255 58.6862 15.9521 59.3263C17.7746 59.9661 18.7712 57.1343 16.9446 56.4943Z" fill="#FFF4D7"/>
<path fill-rule="evenodd" clip-rule="evenodd" d="M14.8484 43.7186C13.0256 43.0797 12.0293 45.9106 13.8547 46.5513C15.6775 47.1902 16.6738 44.3593 14.8484 43.7186Z" fill="#FFF4D7"/>
<path fill-rule="evenodd" clip-rule="evenodd" d="M27.4678 29.3424C28.7761 29.1491 30.8832 29.0223 33.1248 29.6909C35.3464 30.3325 37.6516 31.8438 38.8525 33.9247C36.6833 32.9476 34.5399 32.2965 32.5868 31.9641C30.6385 31.6362 28.9139 31.6582 27.814 31.8168C26.4353 32.0283 25.6998 32.1518 25.2457 32.0799C24.7916 32.0049 24.6234 31.7338 24.4942 31.4139C24.3647 31.0949 24.2839 30.7909 24.638 30.42C24.9882 30.0511 25.801 29.5965 27.4678 29.3424Z" fill="#B82E6A"/>
<path fill-rule="evenodd" clip-rule="evenodd" d="M33.5804 12.0353C34.6061 10.8497 36.4776 9.19765 39.0058 8.23076C41.5125 7.24163 44.5003 6.97183 47.1991 7.51029C44.6818 8.64369 42.155 9.59218 40.1306 10.6974C38.103 11.7755 36.5716 13.0168 35.7444 13.9639C34.7076 15.1513 34.2374 15.8268 33.7933 16.1158C33.3739 16.4165 33.0127 16.3353 32.6433 16.1816C32.2739 16.0279 31.9558 15.8501 31.9414 15.2368C31.9504 14.6463 32.2608 13.5454 33.5804 12.0353Z" fill="#FFF3D9"/>
<path fill-rule="evenodd" clip-rule="evenodd" d="M39.9966 11.5363C40.5169 10.8438 41.3984 9.79821 42.6781 8.95913C43.9436 8.11882 45.6126 7.52221 47.2067 7.59843C45.8751 8.46034 44.6359 9.33796 43.6076 10.21C42.5822 11.0797 41.783 11.9381 41.3245 12.5449C40.7544 13.3111 40.4353 13.7116 40.1733 13.8805C39.9111 14.0504 39.7089 13.9864 39.5034 13.8818C39.2986 13.7783 39.1247 13.6593 39.1355 13.3226C39.1449 12.9875 39.3389 12.4181 39.9966 11.5363Z" fill="#FFF3D9"/>
<path fill-rule="evenodd" clip-rule="evenodd" d="M57.0644 72.6217C55.359 71.4757 52.8045 69.4215 50.9248 66.3097C49.04 63.2488 47.9693 59.1028 48.7641 55.456C50.2368 58.845 52.0213 61.8335 53.9189 64.257C55.8168 66.6692 57.8226 68.4479 59.2532 69.4147C61.059 70.6123 62.034 71.2388 62.4809 71.796C62.9266 72.3571 62.8343 72.8436 62.6492 73.3467C62.464 73.8498 62.2406 74.2826 61.4451 74.3387C60.657 74.398 59.2471 74.0715 57.0644 72.6217Z" fill="#B82E6A"/>
<path fill-rule="evenodd" clip-rule="evenodd" d="M41.9477 73.2688C43.5452 71.9755 45.9075 69.7035 47.5027 66.4363C49.1074 63.2203 49.806 58.9948 48.6888 55.432C47.5234 58.9393 46.0126 62.0743 44.3369 64.6566C42.6623 67.2289 40.8211 69.1789 39.4818 70.2676C37.7903 71.6221 36.8745 72.3318 36.4792 72.9266C36.085 73.5248 36.2197 74.0012 36.448 74.4864C36.6785 74.9711 36.9398 75.3827 37.7376 75.3671C38.5263 75.3572 39.9028 74.9065 41.9477 73.2688Z" fill="#B82E6A"/>
<path fill-rule="evenodd" clip-rule="evenodd" d="M67.9944 31.5332C66.8916 31.3896 65.1665 31.3926 63.2228 31.7483C61.2747 32.1079 59.1412 32.7896 56.9869 33.7965C58.1566 31.6986 60.4402 30.1559 62.6539 29.482C64.8853 28.7811 66.9927 28.8793 68.3047 29.0534C69.9749 29.2847 70.7937 29.7275 71.1497 30.0927C71.5088 30.4578 71.4326 30.7619 71.3071 31.0834C71.1825 31.4052 71.0185 31.6784 70.5648 31.7594C70.112 31.8375 69.3755 31.7243 67.9944 31.5332Z" fill="#B82E6A"/>
<path fill-rule="evenodd" clip-rule="evenodd" d="M59.812 13.7936C58.9721 12.8588 57.4221 11.639 55.3795 10.5898C53.3403 9.51229 50.7996 8.60054 48.2665 7.50282C50.9579 6.92587 53.9496 7.15317 56.47 8.10784C59.0112 9.03857 60.9059 10.664 61.9486 11.8355C63.2892 13.3261 63.6142 14.4225 63.6324 15.0129C63.6269 15.6263 63.3106 15.809 62.9439 15.9678C62.5764 16.1264 62.2165 16.212 61.7939 15.9175C61.3444 15.6357 60.8656 14.9673 59.812 13.7936Z" fill="#FFF3D9"/>
<path fill-rule="evenodd" clip-rule="evenodd" d="M54.2131 12.4544C53.7462 11.8534 52.9328 11.0063 51.8958 10.1515C50.8552 9.29456 49.6048 8.43309 48.2608 7.5901C49.8546 7.49258 51.5312 8.06582 52.8082 8.88833C54.0994 9.70891 54.995 10.7423 55.5255 11.4265C56.1949 12.2997 56.3986 12.8652 56.4124 13.2C56.4265 13.537 56.2565 13.6587 56.0515 13.7645C55.8481 13.8718 55.6476 13.9391 55.3824 13.7733C55.1181 13.6078 54.7935 13.2114 54.2131 12.4544Z" fill="#FFF3D9"/>
</g>
<defs>
<clipPath id="clip0">
<rect width="100" height="100" fill="white"/>
</clipPath>
</defs>
</svg>
