<svg width="200px" height="200px" viewBox="0 0 224 224" fill="none" xmlns="http://www.w3.org/2000/svg">
<g clip-path="url(#clip0)">
<rect width="224" height="224" fill="#361154"/>
<path fill-rule="evenodd" clip-rule="evenodd" d="M17.0756 148.594C28.9571 192.417 61.9189 214.903 106.743 217.563L106.741 217.625C106.96 217.621 107.172 217.61 107.391 217.603C107.609 217.616 107.822 217.635 108.041 217.645L108.042 217.581C152.926 216.307 186.567 194.844 199.789 151.411C209.214 120.453 194.123 76.7649 175.485 69.6583C148.045 54.7799 167.71 10.796 111.298 6.27762L111.3 6.19389C111.08 6.20316 110.869 6.21659 110.649 6.22585C110.43 6.21098 110.221 6.19035 110 6.17409L110 6.25708C53.4744 9.03586 71.7753 53.6066 43.8879 67.6316C25.0416 74.1565 8.61096 117.361 17.0756 148.594Z" fill="#FFF4D7"/>
<path fill-rule="evenodd" clip-rule="evenodd" d="M141.158 120.031C115.751 99.4729 132.414 82.8519 152.91 108.309C173.468 82.9018 190.089 99.5648 164.632 120.061C190.037 140.62 173.377 157.24 152.881 131.785C132.321 157.188 115.702 140.53 141.158 120.031Z" fill="#D53954"/>
<path fill-rule="evenodd" clip-rule="evenodd" d="M144.606 111.736C141.179 79.236 164.713 79.2635 161.206 111.757C193.706 108.332 193.678 131.864 161.184 128.357C164.612 160.859 141.079 160.828 144.585 128.335C112.085 131.762 112.111 108.231 144.606 111.736Z" fill="#D53954"/>
<path fill-rule="evenodd" clip-rule="evenodd" d="M147.774 109.485C155.15 77.6451 177.385 85.359 163.455 114.926C195.296 122.301 187.582 144.536 158.016 130.608C150.641 162.447 128.408 154.733 142.334 125.167C110.494 117.792 118.209 95.5586 147.774 109.485Z" fill="#D53954"/>
<path fill-rule="evenodd" clip-rule="evenodd" d="M158.041 109.499C150.744 77.641 128.493 85.3006 142.347 114.898C110.489 122.195 118.148 144.449 147.748 130.596C155.044 162.452 177.296 154.795 163.443 125.194C195.3 117.895 187.643 95.6429 158.041 109.499Z" fill="#D53954"/>
<path fill-rule="evenodd" clip-rule="evenodd" d="M128.441 120.016C128.459 106.509 139.42 95.577 152.926 95.5935C166.43 95.6108 177.364 106.57 177.348 120.077C177.33 133.581 166.369 144.516 152.865 144.499C139.359 144.482 128.425 133.519 128.441 120.016Z" fill="#262238"/>
<path fill-rule="evenodd" clip-rule="evenodd" d="M57.4563 120.295C32.0508 99.7357 48.7117 83.1155 69.21 108.572C89.7664 83.1653 106.387 99.8283 80.9319 120.324C106.337 140.883 89.6765 157.503 69.1811 132.048C48.619 157.452 31.9988 140.791 57.4563 120.295Z" fill="#D53954"/>
<path fill-rule="evenodd" clip-rule="evenodd" d="M60.9062 111.999C57.4782 79.4967 81.0112 79.5271 77.5049 112.018C110.005 108.593 109.976 132.128 77.4834 128.617C80.91 161.122 57.377 161.092 60.8847 128.598C28.3828 132.026 28.4103 108.492 60.9062 111.999Z" fill="#D53954"/>
<path fill-rule="evenodd" clip-rule="evenodd" d="M45.1697 120.278C32.2217 128.146 37.7452 138.903 55.3725 134.095C50.5247 151.713 61.2681 157.26 69.1639 144.332C77.0296 157.281 87.7859 151.757 82.9807 134.129C100.598 138.98 106.147 128.236 93.2177 120.338C106.165 112.475 100.645 101.715 83.0156 106.523C87.8642 88.9072 77.1214 83.3552 69.2235 96.2842C61.3585 83.3376 50.6015 88.859 55.4067 106.487C37.7898 101.636 32.2407 112.381 45.1697 120.278Z" fill="#D53954"/>
<path fill-rule="evenodd" clip-rule="evenodd" d="M44.7406 120.279C44.7592 106.772 55.7196 95.8401 69.2229 95.8552C82.729 95.8717 93.6621 106.834 93.6456 120.34C93.6305 133.844 82.6686 144.779 69.1625 144.762C55.6585 144.745 44.7234 133.783 44.7406 120.279Z" fill="#262238"/>
<path fill-rule="evenodd" clip-rule="evenodd" d="M80.5746 69.5698L85.6214 69.5356L138.642 69.8478L143.69 69.8938C143.69 69.8938 146.941 39.0804 111.141 39.0341C80.0773 38.9985 80.5746 69.5698 80.5746 69.5698Z" fill="#262238"/>
<path fill-rule="evenodd" clip-rule="evenodd" d="M109.899 107.327C109.899 107.327 123.298 89.8513 120.216 85.3887C120.216 85.3887 119.142 82.0215 115.027 82.3565C110.911 82.6944 109.753 84.073 109.753 84.073C109.753 84.073 105.815 82.2828 103.07 82.6206C100.326 82.9627 98.265 84.6737 99.9729 90.1643C101.681 95.655 109.899 107.327 109.899 107.327Z" fill="#262238"/>
<path fill-rule="evenodd" clip-rule="evenodd" d="M109.864 152.296C109.864 152.296 91.903 175.725 96.0343 181.707C96.0343 181.707 97.4715 186.219 102.991 185.766C108.509 185.316 109.841 177.725 109.841 177.725C109.841 177.725 115.338 185.868 119.018 185.413C122.697 184.957 125.459 182.663 123.169 175.302C120.879 167.942 109.864 152.296 109.864 152.296Z" fill="#D53954"/>
<path fill-rule="evenodd" clip-rule="evenodd" d="M59.3168 181.699C56.283 177.223 57.7603 170.908 62.6263 167.586C67.4879 164.244 90.9823 160.207 90.9888 160.226C91.0017 160.236 78.5484 180.572 73.6457 183.85C68.7574 187.142 62.3478 186.175 59.3168 181.699Z" fill="#2EB3AC"/>
<path fill-rule="evenodd" clip-rule="evenodd" d="M157.813 181.346C160.983 176.966 159.701 170.61 154.937 167.139C150.184 163.651 126.823 158.889 126.816 158.909C126.802 158.918 138.624 179.628 143.423 183.057C148.209 186.496 154.644 185.726 157.813 181.346Z" fill="#2EB3AC"/>
</g>
<defs>
<clipPath id="clip0">
<rect width="224" height="224" fill="white"/>
</clipPath>
</defs>
</svg>
