<svg width="100" height="100" viewBox="0 0 100 100" fill="none" xmlns="http://www.w3.org/2000/svg" >
<style type="text/css">
    .bg{
       fill:none; 
    }
    .animate-svg{
        fill-opacity: 0;
        stroke-width:.5;
        stroke:white;
        stroke-opacity:1;
        stroke-dasharray: 500;
        stroke-dashoffset: 500;
        animation-name: interno;
        animation-duration: 6s;
        animation-direction: normal;
        animation-timing-function: ease-in-out;
        animation-fill-mode: forwards;   
    }
    .animate-svg-opacity{
        fill-opacity: 0;
        animation-name: opacidad;
        animation-duration: 3s;
        animation-direction: normal;
        animation-timing-function: ease-in-out;
        animation-fill-mode: forwards;   
    }
    @keyframes interno {
        0%{
            fill-opacity: 0;
            stroke-opacity:1;
            stroke-dashoffset: 500;
        }
        50%{
            fill-opacity: 0;
            stroke-opacity:1;
        }
        60%{
            fill-opacity: 1;
        }
        100%{
            fill-opacity: 1;
            stroke-opacity:0;
            stroke-dashoffset: 0;
        }
    }
    @keyframes opacidad {
        0%{
            fill-opacity: 0;
        }
        50%{
            fill-opacity: 0;
        }
        60%{
            fill-opacity: 1;
        }
        100%{
            fill-opacity: 1;
        }
    }

    <!-- Animacion de fondos -->
    .bgAnimate{
        fill:#FFFFFF;
        fill-opacity: 0;
        animation-name: animatebg;
        animation-delay: 3s;
        animation-duration: 25s;
        animation-iteration-count: infinite;
        animation-direction: normal;
        animation-timing-function: ease-in-out;
        animation-fill-mode: forwards;   
    }
    @keyframes animatebg{
        0%{
            fill:#FFF4D7;
            fill-opacity: 0; 
        }
        50%{
            fill:#EFBB14; 
            fill-opacity: 1; 
        }
        60%{
            fill:#88657C; 
            fill-opacity: 1; 
        }
        100%{
            fill:FFFFFF; 
            fill-opacity: 0; 
        }
    }
</style>
<g clip-path="url(#clip0)">
<rect class="bg" width="100" height="100"/>
<path class="animate-svg bgAnimate" fill-rule="evenodd" clip-rule="evenodd" d="M89.9123 33.4399C84.133 14.034 69.1898 4.37142 49.1756 3.68122L49.1759 3.65304C49.0782 3.65771 48.9828 3.66516 48.8851 3.66982C48.7898 3.66683 48.6934 3.66038 48.5959 3.65776L48.5963 3.68718C28.5982 4.75115 13.838 14.6897 8.42217 34.2007C4.56194 48.1067 11.7728 67.4188 20.1588 70.3802C32.5585 76.7104 24.2766 96.5378 49.4768 97.9295L49.4759 97.9668C49.5751 97.9606 49.6686 97.9525 49.7659 97.9456C49.8638 97.9505 49.9567 97.958 50.0559 97.9621L50.0549 97.9242C75.2249 96.0613 66.5746 76.3928 78.853 69.8322C87.1838 66.715 94.0312 47.2714 89.9123 33.4399Z" fill="#DD4182"/>
<path class="animate-svg" fill-rule="evenodd" clip-rule="evenodd" d="M35.8978 51.9978C46.2521 61.0316 39.7712 68.737 31.3266 57.433C23.3791 69.1583 16.5723 61.795 26.5255 52.2386C16.1721 43.2051 22.6531 35.4997 31.0976 46.8037C39.0451 35.0783 45.8519 42.4417 35.8978 51.9978Z" fill="#B82E6A"/>
<path class="animate-svg" fill-rule="evenodd" clip-rule="evenodd" d="M34.6062 55.7909C36.3079 70.4694 26.9122 70.7114 27.9786 55.9617C15.0379 57.8651 14.8086 47.2095 27.8179 48.4458C26.1155 33.766 35.5119 33.5253 34.4442 48.2757C47.3852 46.3713 47.6154 57.0272 34.6062 55.7909Z" fill="#B82E6A"/>
<path class="animate-svg" fill-rule="evenodd" clip-rule="evenodd" d="M40.8042 51.872C45.8929 48.1696 43.5773 43.3595 36.5879 45.7265C38.3439 37.6971 33.998 35.3013 30.9779 41.241C27.7038 35.4631 23.4658 38.0802 25.5653 46.0099C18.4825 44.0045 16.3775 48.9289 21.62 52.3646C16.5304 56.0668 18.846 60.8769 25.8353 58.5098C24.0794 66.5393 28.4261 68.9354 31.4463 62.9956C34.7204 68.7736 38.9583 66.1565 36.8589 58.2267C43.9417 60.2321 46.0467 55.3078 40.8042 51.872Z" fill="#B82E6A"/>
<path class="animate-svg" fill-rule="evenodd" clip-rule="evenodd" d="M40.9753 51.8668C41.1069 57.9824 36.8424 63.051 31.4505 63.1905C26.0589 63.329 21.5799 58.4842 21.4483 52.3686C21.3173 46.2543 25.5808 41.1854 30.9724 41.0469C36.3653 40.9077 40.8433 45.7522 40.9753 51.8668Z" fill="#FFF4D7"/>
<path class="animate-svg" fill-rule="evenodd" clip-rule="evenodd" d="M39.4027 51.9081C39.5126 57.0378 35.9349 61.2901 31.4121 61.4065C26.8884 61.5227 23.1322 57.4585 23.0214 52.3286C22.9116 47.199 26.4883 42.9464 31.012 42.8302C35.5348 42.7138 39.291 46.7779 39.4027 51.9081Z" fill="#262238"/>
<path class="animate-svg" fill-rule="evenodd" clip-rule="evenodd" d="M72.7619 51.7371C83.1163 60.7709 76.6341 68.4769 68.1895 57.173C60.242 68.8983 53.4355 61.534 63.3894 51.9788C53.035 42.9451 59.5172 35.239 67.9606 46.5437C75.908 34.8183 82.7148 42.1816 72.7619 51.7371Z" fill="#B82E6A"/>
<path class="animate-svg" fill-rule="evenodd" clip-rule="evenodd" d="M71.4704 55.5302C73.1727 70.21 63.7752 70.4514 64.8428 55.701C51.9021 57.6044 51.6719 46.9485 64.6808 48.1858C62.9795 33.5063 72.3751 33.2643 71.3084 48.015C84.2492 46.1116 84.4794 56.7674 71.4704 55.5302Z" fill="#B82E6A"/>
<path class="animate-svg" fill-rule="evenodd" clip-rule="evenodd" d="M77.6683 51.6113C82.7567 47.9098 80.4414 43.0987 73.453 45.4661C75.2077 37.4373 70.861 35.0412 67.8411 40.98C64.567 35.202 60.3291 37.8192 62.4294 45.7492C55.3464 43.7448 53.2404 48.6688 58.4829 52.1046C53.3945 55.806 55.7098 60.6171 62.6992 58.2501C60.9435 66.2786 65.2893 68.6743 68.3101 62.7358C71.5833 68.5135 75.8212 65.8964 73.7218 57.9667C80.8049 59.9711 82.9099 55.0467 77.6683 51.6113Z" fill="#B82E6A"/>
<path class="animate-svg-opacity" fill-rule="evenodd" clip-rule="evenodd" d="M77.8391 51.607C77.9711 57.7216 73.7063 62.7912 68.3147 62.9297C62.9231 63.0683 58.4438 58.2244 58.3121 52.1088C58.1802 45.9942 62.445 40.9247 67.8366 40.7861C73.2291 40.6479 77.7072 45.4924 77.8391 51.607Z" fill="#FFF4D7"/>
<path class="animate-svg-opacity" fill-rule="evenodd" clip-rule="evenodd" d="M76.3321 51.6463C76.443 56.8171 72.838 61.1039 68.2773 61.2213C63.7175 61.339 59.9307 57.2415 59.8189 52.0704C59.7084 46.8987 63.3133 42.6119 67.8731 42.4942C72.4335 42.3777 76.2206 46.4743 76.3321 51.6463Z" fill="#262238"/>
<path class="animate-svg" fill-rule="evenodd" clip-rule="evenodd" d="M63.5227 71.7562L61.2737 71.8271L37.6311 72.2738L35.3814 72.3089C35.3814 72.3089 34.2703 86.0825 50.2319 85.7073C64.0818 85.3813 63.5227 71.7562 63.5227 71.7562Z" fill="#262238"/>
<path class="animate-svg-opacity" fill-rule="evenodd" clip-rule="evenodd" d="M49.0025 54.0783C49.0025 54.0783 44.2324 60.6296 45.4067 62.2431C45.4067 62.2431 45.8325 63.4717 47.3434 63.3101C48.8553 63.1488 49.2677 62.6315 49.2677 62.6315C49.2677 62.6315 50.7334 63.2543 51.7399 63.1038C52.746 62.9542 53.4884 62.3055 52.8103 60.3008C52.1319 58.2971 49.0025 54.0783 49.0025 54.0783Z" fill="#262238"/>
<path class="animate-svg-opacity" fill-rule="evenodd" clip-rule="evenodd" d="M32.7474 28.8008C32.7474 28.8008 28.9953 16.182 25.7533 16.1063C25.7533 16.1063 23.7463 15.4435 22.4649 17.5543C21.1838 19.664 23.5737 22.1335 23.5737 22.1335C23.5737 22.1335 19.1946 21.9853 18.3953 23.4326C17.5961 24.88 17.7019 26.4774 20.9579 27.5786C24.214 28.6797 32.7474 28.8008 32.7474 28.8008Z" fill="#FFF4D7"/>
<path class="animate-svg-opacity" fill-rule="evenodd" clip-rule="evenodd" d="M64.9768 27.9244C64.9768 27.9244 68.5506 15.2532 71.7902 15.1315C71.7902 15.1315 73.7883 14.4409 75.0996 16.5335C76.4104 18.6249 74.0548 21.1281 74.0548 21.1281C74.0548 21.1281 78.4325 20.9181 79.2524 22.3531C80.072 23.789 79.988 25.3881 76.7487 26.5351C73.5075 27.6816 64.9768 27.9244 64.9768 27.9244Z" fill="#FFF4D7"/>
<path class="animate-svg-opacity" fill-rule="evenodd" clip-rule="evenodd" d="M33.0919 34.9699C34.9147 35.6087 35.9109 32.7779 34.0856 32.1371C32.2628 31.4983 31.2662 34.3301 33.0919 34.9699Z" fill="#FFF4D7"/>
<path class="animate-svg-opacity" fill-rule="evenodd" clip-rule="evenodd" d="M25.8124 34.0186C27.6342 34.6572 28.6305 31.8263 26.8061 31.1859C24.9833 30.547 23.987 33.3779 25.8124 34.0186Z" fill="#FFF4D7"/>
<path class="animate-svg-opacity" fill-rule="evenodd" clip-rule="evenodd" d="M19.3118 36.8227C21.1346 37.4616 22.1309 34.6307 20.3042 33.9907C18.4827 33.3511 17.4861 36.183 19.3118 36.8227Z" fill="#FFF4D7"/>
<path class="animate-svg-opacity" fill-rule="evenodd" clip-rule="evenodd" d="M15.5967 43.3692C17.4183 44.0088 18.4148 41.1769 16.5901 40.5374C14.7676 39.8976 13.7711 42.7294 15.5967 43.3692Z" fill="#FFF4D7"/>
<path class="animate-svg-opacity" fill-rule="evenodd" clip-rule="evenodd" d="M13.8988 51.657C15.7213 52.2969 16.7178 49.465 14.8925 48.8243C13.0706 48.1857 12.0741 51.0175 13.8988 51.657Z" fill="#FFF4D7"/>
<path class="animate-svg-opacity" fill-rule="evenodd" clip-rule="evenodd" d="M58.6893 37.2969C60.5108 37.9365 61.5074 35.1047 59.682 34.4639C57.8592 33.8251 56.8626 36.6569 58.6893 37.2969Z" fill="#FFF4D7"/>
<path class="animate-svg-opacity" fill-rule="evenodd" clip-rule="evenodd" d="M65.6858 33.7363C67.5083 34.3761 68.5048 31.5443 66.6782 30.9043C64.8554 30.2654 63.8591 33.0962 65.6858 33.7363Z" fill="#FFF4D7"/>
<path class="animate-svg-opacity" fill-rule="evenodd" clip-rule="evenodd" d="M48.5252 31.7508C50.3467 32.3904 51.3433 29.5585 49.5188 28.9181C47.6961 28.2792 46.6995 31.111 48.5252 31.7508Z" fill="#FFF4D7"/>
<path class="animate-svg-opacity" fill-rule="evenodd" clip-rule="evenodd" d="M46.3539 14.3958C50.9452 16.0056 53.4538 8.87479 48.8561 7.26197C44.2657 5.65245 41.7571 12.7833 46.3539 14.3958Z" fill="#FFF4D7"/>
<path class="animate-svg-opacity" fill-rule="evenodd" clip-rule="evenodd" d="M47.804 23.4055C50.9145 24.4966 52.6151 19.6631 49.4989 18.5702C46.3881 17.48 44.6868 22.3123 47.804 23.4055Z" fill="#FFF4D7"/>
<path class="animate-svg-opacity" fill-rule="evenodd" clip-rule="evenodd" d="M73.2165 34.687C75.0384 35.3256 76.0337 32.4944 74.2093 31.854C72.3865 31.2151 71.3902 34.046 73.2165 34.687Z" fill="#FFF4D7"/>
<path class="animate-svg-opacity" fill-rule="evenodd" clip-rule="evenodd" d="M76.7523 36.3957C76.7528 36.4795 76.7524 36.5631 76.7539 36.6472C76.7593 37.4576 77.2957 38.1876 78.1491 38.2466C78.9122 38.3 79.7547 37.6662 79.7494 36.8517C79.748 36.7675 79.7481 36.6849 79.7466 36.6008C79.7412 35.7904 79.2048 35.0604 78.3524 35.0017C77.5883 34.948 76.7459 35.5819 76.7523 36.3957Z" fill="#FFF4D7"/>
<path class="animate-svg-opacity" fill-rule="evenodd" clip-rule="evenodd" d="M81.0554 43.91C82.8779 44.5499 83.8745 41.7181 82.0479 41.078C80.2254 40.4381 79.2288 43.27 81.0554 43.91Z" fill="#FFF4D7"/>
<path class="animate-svg-opacity" fill-rule="evenodd" clip-rule="evenodd" d="M83.1516 56.6857C84.9744 57.3246 85.9707 54.4937 84.1453 53.853C82.3225 53.2141 81.3262 56.045 83.1516 56.6857Z" fill="#FFF4D7"/>
<path class="animate-svg-opacity" fill-rule="evenodd" clip-rule="evenodd" d="M70.5322 71.0619C69.2239 71.2551 67.1168 71.382 64.8752 70.7134C62.6536 70.0718 60.3484 68.5605 59.1475 66.4796C61.3167 67.4567 63.4601 68.1078 65.4132 68.4402C67.3615 68.768 69.0861 68.7461 70.186 68.5875C71.5647 68.376 72.3002 68.2525 72.7543 68.3244C73.2084 68.3994 73.3766 68.6705 73.5058 68.9904C73.6353 69.3094 73.7161 69.6134 73.362 69.9843C73.0118 70.3532 72.199 70.8078 70.5322 71.0619Z" fill="#B82E6A"/>
<path class="animate-svg-opacity" fill-rule="evenodd" clip-rule="evenodd" d="M64.4196 88.369C63.3939 89.5546 61.5224 91.2067 58.9942 92.1735C56.4875 93.1627 53.4997 93.4325 50.8009 92.894C53.3182 91.7606 55.845 90.8121 57.8694 89.7069C59.897 88.6288 61.4284 87.3875 62.2556 86.4404C63.2924 85.253 63.7626 84.5775 64.2067 84.2885C64.6261 83.9878 64.9873 84.069 65.3567 84.2227C65.7261 84.3764 66.0442 84.5542 66.0586 85.1675C66.0496 85.758 65.7392 86.8589 64.4196 88.369Z" fill="#FFF3D9"/>
<path class="animate-svg-opacity" fill-rule="evenodd" clip-rule="evenodd" d="M58.0034 88.868C57.4831 89.5605 56.6016 90.6061 55.3219 91.4452C54.0564 92.2855 52.3874 92.8821 50.7933 92.8059C52.1249 91.944 53.3641 91.0663 54.3924 90.1943C55.4178 89.3246 56.217 88.4662 56.6755 87.8594C57.2456 87.0932 57.5647 86.6927 57.8267 86.5238C58.0889 86.3539 58.2911 86.4179 58.4966 86.5225C58.7014 86.626 58.8753 86.745 58.8645 87.0817C58.8551 87.4168 58.6611 87.9862 58.0034 88.868Z" fill="#FFF3D9"/>
<path class="animate-svg-opacity" fill-rule="evenodd" clip-rule="evenodd" d="M40.9356 27.7826C42.641 28.9286 45.1955 30.9828 47.0752 34.0946C48.96 37.1555 50.0307 41.3015 49.2359 44.9483C47.7632 41.5593 45.9787 38.5708 44.0811 36.1472C42.1832 33.7351 40.1774 31.9564 38.7468 30.9896C36.941 29.792 35.966 29.1655 35.5191 28.6082C35.0734 28.0472 35.1657 27.5607 35.3508 27.0576C35.536 26.5545 35.7594 26.1216 36.5549 26.0656C37.343 26.0063 38.7529 26.3328 40.9356 27.7826Z" fill="#B82E6A"/>
<path class="animate-svg-opacity" fill-rule="evenodd" clip-rule="evenodd" d="M56.0523 27.1356C54.4548 28.4289 52.0925 30.7009 50.4973 33.968C48.8926 37.1841 48.194 41.4095 49.3112 44.9724C50.4766 41.465 51.9874 38.3301 53.6631 35.7477C55.3377 33.1755 57.1789 31.2254 58.5182 30.1367C60.2097 28.7822 61.1255 28.0725 61.5208 27.4778C61.915 26.8795 61.7803 26.4031 61.552 25.918C61.3215 25.4332 61.0602 25.0217 60.2624 25.0372C59.4737 25.0472 58.0972 25.4978 56.0523 27.1356Z" fill="#B82E6A"/>
<path class="animate-svg-opacity" fill-rule="evenodd" clip-rule="evenodd" d="M30.0056 68.8711C31.1084 69.0147 32.8335 69.0117 34.7772 68.656C36.7253 68.2964 38.8588 67.6147 41.0131 66.6078C39.8434 68.7057 37.5598 70.2484 35.3461 70.9223C33.1147 71.6232 31.0073 71.525 29.6953 71.3509C28.0251 71.1196 27.2063 70.6768 26.8503 70.3116C26.4912 69.9465 26.5674 69.6424 26.6929 69.3209C26.8175 68.9991 26.9815 68.7259 27.4352 68.6449C27.888 68.5668 28.6245 68.68 30.0056 68.8711Z" fill="#B82E6A"/>
<path class="animate-svg-opacity" fill-rule="evenodd" clip-rule="evenodd" d="M38.188 86.6107C39.0279 87.5454 40.5779 88.7653 42.6205 89.8145C44.6597 90.892 47.2004 91.8038 49.7335 92.9015C47.0421 93.4784 44.0504 93.2511 41.53 92.2965C38.9888 91.3657 37.0941 89.7403 36.0514 88.5688C34.7108 87.0782 34.3858 85.9818 34.3676 85.3914C34.3731 84.7779 34.6894 84.5953 35.0561 84.4364C35.4236 84.2779 35.7835 84.1923 36.2061 84.4868C36.6556 84.7686 37.1344 85.437 38.188 86.6107Z" fill="#FFF3D9"/>
<path class="animate-svg-opacity" fill-rule="evenodd" clip-rule="evenodd" d="M43.7869 87.9499C44.2538 88.5509 45.0672 89.398 46.1042 90.2528C47.1448 91.1097 48.3952 91.9712 49.7392 92.8142C48.1454 92.9117 46.4688 92.3385 45.1918 91.516C43.9006 90.6954 43.005 89.662 42.4745 88.9778C41.8051 88.1046 41.6014 87.5391 41.5876 87.2043C41.5735 86.8673 41.7435 86.7456 41.9485 86.6398C42.1519 86.5325 42.3524 86.4652 42.6176 86.631C42.8819 86.7965 43.2065 87.1929 43.7869 87.9499Z" fill="#FFF3D9"/>
</g>
<defs>
<clipPath id="clip0">
<rect width="100" height="100" fill="white"/>
</clipPath>
</defs>
</svg>

