<svg
  width="52"
  height="52"
  viewBox="0 0 52 52"
  fill="none"
  xmlns="http://www.w3.org/2000/svg"
>
  <path
    fill-rule="evenodd"
    clip-rule="evenodd"
    d="M26.15 1.50194L25.46 0.814941L24.78 1.50194C19.946 6.33094 19.946 14.1589 24.78 18.9869L25.46 19.6739L26.15 18.9869C30.98 14.1589 30.98 6.33094 26.15 1.50194Z"
    fill="#D53954"
  />
  <path
    fill-rule="evenodd"
    clip-rule="evenodd"
    d="M25.46 11.8369C24.77 11.8369 24.23 12.4189 24.27 13.1069L24.63 18.8269C24.68 18.8789 24.72 18.9359 24.78 18.9869L25.46 19.6739L26.15 18.9869C26.2 18.9359 26.24 18.8789 26.29 18.8269L26.66 13.1069C26.7 12.4189 26.15 11.8369 25.46 11.8369Z"
    fill="#FFFFFE"
  />
  <path
    fill-rule="evenodd"
    clip-rule="evenodd"
    d="M24.78 50.351L25.46 51.038L26.15 50.351C30.98 45.522 30.98 37.694 26.15 32.866L25.46 32.179L24.78 32.866C19.946 37.694 19.946 45.522 24.78 50.351Z"
    fill="#D53954"
  />
  <path
    fill-rule="evenodd"
    clip-rule="evenodd"
    d="M25.46 40.016C26.15 40.016 26.7 39.434 26.66 38.746L26.29 33.026C26.24 32.974 26.2 32.917 26.15 32.866L25.46 32.179L24.78 32.866C24.72 32.917 24.68 32.974 24.63 33.026L24.27 38.746C24.23 39.434 24.77 40.016 25.46 40.016Z"
    fill="#FFFFFE"
  />
  <path
    fill-rule="evenodd"
    clip-rule="evenodd"
    d="M49.89 26.6139L50.57 25.9269L49.89 25.2389C45.06 20.4109 37.23 20.4109 32.4 25.2389L31.71 25.9269L32.4 26.6139C37.23 31.4419 45.06 31.4419 49.89 26.6139Z"
    fill="#D53954"
  />
  <path
    fill-rule="evenodd"
    clip-rule="evenodd"
    d="M39.55 25.9269C39.55 25.2369 38.97 24.6899 38.28 24.7339L32.56 25.0939C32.51 25.1449 32.45 25.1879 32.4 25.2389L31.71 25.9269L32.4 26.6139C32.45 26.6659 32.51 26.7079 32.56 26.7589L38.28 27.1189C38.97 27.1629 39.55 26.6159 39.55 25.9269Z"
    fill="#FFFFFE"
  />
  <path
    fill-rule="evenodd"
    clip-rule="evenodd"
    d="M1.03801 25.2389L0.351013 25.9269L1.03801 26.6139C5.86601 31.4419 13.694 31.4419 18.523 26.6139L19.21 25.9269L18.523 25.2389C13.694 20.4109 5.86601 20.4109 1.03801 25.2389Z"
    fill="#D53954"
  />
  <path
    fill-rule="evenodd"
    clip-rule="evenodd"
    d="M11.373 25.9269C11.373 26.6159 11.955 27.1629 12.643 27.1189L18.362 26.7589C18.415 26.7079 18.472 26.6659 18.523 26.6139L19.21 25.9269L18.523 25.2389C18.472 25.1879 18.415 25.1449 18.362 25.0939L12.643 24.7339C11.955 24.6899 11.373 25.2369 11.373 25.9269Z"
    fill="#FFFFFE"
  />
  <path
    fill-rule="evenodd"
    clip-rule="evenodd"
    d="M43.12 42.8159L44.09 42.7679L44.04 41.7969C43.7 34.9769 37.89 29.7269 31.07 30.0709L30.1 30.1199L30.15 31.0899C30.49 37.9099 36.3 43.1599 43.12 42.8159Z"
    fill="#D53954"
  />
  <path
    fill-rule="evenodd"
    clip-rule="evenodd"
    d="M35.91 35.375C36.38 34.864 36.31 34.068 35.77 33.639L31.29 30.071C31.21 30.073 31.14 30.067 31.07 30.071L30.1 30.12L30.15 31.09C30.15 31.163 30.17 31.233 30.17 31.306L34.17 35.408C34.65 35.902 35.45 35.887 35.91 35.375Z"
    fill="#FFFFFE"
  />
  <path
    fill-rule="evenodd"
    clip-rule="evenodd"
    d="M7.80602 9.03698L6.83502 9.08598L6.88402 10.056C7.22802 16.876 13.034 22.126 19.854 21.783L20.824 21.733L20.775 20.763C20.433 13.943 14.625 8.69298 7.80602 9.03698Z"
    fill="#D53954"
  />
  <path
    fill-rule="evenodd"
    clip-rule="evenodd"
    d="M15.011 16.4779C14.549 16.9889 14.614 17.7849 15.153 18.2139L19.638 21.7829C19.71 21.7799 19.781 21.7859 19.854 21.7829L20.824 21.7339L20.775 20.7629C20.772 20.6899 20.759 20.6199 20.754 20.5479L16.753 16.4449C16.271 15.9509 15.474 15.9659 15.011 16.4779Z"
    fill="#FFFFFE"
  />
  <path
    fill-rule="evenodd"
    clip-rule="evenodd"
    d="M7.00804 41.9409L6.96704 42.9119L7.93804 42.9529C14.76 43.2439 20.525 37.9489 20.816 31.1259L20.857 30.1549L19.887 30.1139C13.064 29.8239 7.29904 35.1189 7.00804 41.9409Z"
    fill="#D53954"
  />
  <path
    fill-rule="evenodd"
    clip-rule="evenodd"
    d="M15.085 35.4569C15.551 35.9639 16.35 35.9729 16.827 35.4759L20.796 31.3419C20.8 31.2699 20.813 31.1989 20.816 31.1259L20.857 30.1549L19.887 30.1139C19.813 30.1109 19.742 30.1179 19.67 30.1159L15.214 33.7189C14.678 34.1529 14.618 34.9489 15.085 35.4569Z"
    fill="#FFFFFE"
  />
  <path
    fill-rule="evenodd"
    clip-rule="evenodd"
    d="M43.92 9.91192L43.96 8.94092L42.99 8.89992C36.17 8.60992 30.4 13.9049 30.11 20.7269L30.07 21.6979L31.04 21.7389C37.86 22.0289 43.63 16.7339 43.92 9.91192Z"
    fill="#D53954"
  />
  <path
    fill-rule="evenodd"
    clip-rule="evenodd"
    d="M35.84 16.396C35.37 15.889 34.58 15.88 34.1 16.377L30.13 20.511C30.12 20.584 30.11 20.654 30.11 20.727L30.07 21.698L31.04 21.739C31.11 21.742 31.18 21.735 31.25 21.737L35.71 18.134C36.25 17.701 36.31 16.904 35.84 16.396Z"
    fill="#FFFFFE"
  />
  <path
    fill-rule="evenodd"
    clip-rule="evenodd"
    d="M30.66 26.204C30.66 29.079 28.33 31.409 25.46 31.409C22.58 31.409 20.251 29.079 20.251 26.204C20.251 23.33 22.58 21 25.46 21C28.33 21 30.66 23.33 30.66 26.204Z"
    fill="#2EB3AC"
  />
</svg>
