<svg
  width="41"
  height="47"
  viewBox="0 0 41 47"
  fill="none"
  xmlns="http://www.w3.org/2000/svg"
>
  <path
    fill-rule="evenodd"
    clip-rule="evenodd"
    d="M36.036 23.451C37.698 22.847 38.7001 21.808 38.7001 20.644C38.7001 19.151 37.0401 17.921 34.6031 17.455C35.9961 15.401 36.301 13.357 35.245 12.302C34.409 11.465 32.918 11.424 31.327 12.152C32.076 10.55 32.05 9.106 31.227 8.283C30.171 7.228 28.128 7.532 26.074 8.926C25.607 6.488 24.377 4.828 22.885 4.828C21.702 4.828 20.618 5.853 20.009 7.492C19.405 5.83 18.365 4.828 17.201 4.828C15.709 4.828 14.479 6.488 14.013 8.926C11.959 7.532 9.91505 7.228 8.85905 8.282C8.02305 9.119 7.98105 10.61 8.71005 12.2C7.10705 11.452 5.66405 11.479 4.84105 12.302C3.78505 13.356 4.09005 15.4 5.48305 17.454C3.04605 17.921 1.38605 19.151 1.38605 20.643C1.38605 21.826 2.41005 22.91 4.05005 23.519C2.38805 24.123 1.38605 25.163 1.38605 26.327C1.38605 27.819 3.04605 29.049 5.48305 29.516C4.09005 31.569 3.78505 33.613 4.84005 34.668C5.67705 35.504 7.16805 35.546 8.75805 34.818C8.01005 36.42 8.03605 37.864 8.85905 38.688C9.91505 39.743 11.958 39.438 14.012 38.044C14.479 40.482 15.709 42.143 17.2 42.143C18.384 42.143 19.468 41.118 20.077 39.478C20.681 41.14 21.721 42.143 22.885 42.143C24.377 42.143 25.606 40.482 26.073 38.044C28.127 39.438 30.171 39.743 31.226 38.688C32.063 37.852 32.104 36.36 31.376 34.77C32.978 35.518 34.422 35.492 35.245 34.668C36.3 33.613 35.9961 31.57 34.6031 29.516C37.0401 29.049 38.7001 27.819 38.7001 26.327C38.7001 25.145 37.675 24.061 36.036 23.451Z"
    fill="#2EB3AC"
  />
  <path
    fill-rule="evenodd"
    clip-rule="evenodd"
    d="M17.888 27.2179C38.165 -7.90305 1.92102 -7.90305 22.198 27.2179C1.92102 -7.90305 -16.2 23.4849 24.354 23.4849C-16.2 23.4849 1.92102 54.8729 22.198 19.7519C1.92102 54.8729 38.165 54.8729 17.888 19.7519C38.165 54.8729 56.286 23.4849 15.732 23.4849C56.286 23.4849 38.165 -7.90305 17.888 27.2179Z"
    fill="#EABA65"
  />
  <path
    fill-rule="evenodd"
    clip-rule="evenodd"
    d="M27.183 23.485C27.183 27.596 23.851 30.928 19.74 30.928C15.63 30.928 12.298 27.596 12.298 23.485C12.298 19.375 15.63 16.043 19.74 16.043C23.851 16.043 27.183 19.375 27.183 23.485Z"
    fill="#FFFFFE"
  />
</svg>
