<svg
  width="100"
  height="100"
  viewBox="0 0 100 100"
  fill="none"
  xmlns="http://www.w3.org/2000/svg"
>
  <g clip-path="url(#clip0)">
    <rect width="100" height="100" fill="#361154" />
    <path
      fill-rule="evenodd"
      clip-rule="evenodd"
      d="M7.62306 66.3366C12.9273 85.9002 27.6424 95.939 47.6532 97.1263L47.6522 97.1542C47.7501 97.1523 47.8447 97.1473 47.9422 97.1444C48.0395 97.1501 48.1346 97.1587 48.2325 97.1631L48.2332 97.1342C68.2707 96.5657 83.2887 86.9841 89.1915 67.5941C93.399 53.7736 86.6622 34.27 78.3417 31.0974C66.0916 24.4553 74.8703 4.81965 49.6865 2.8025L49.6874 2.76512C49.5893 2.76926 49.495 2.77526 49.3968 2.77939C49.2992 2.77275 49.206 2.76354 49.1071 2.75628L49.1072 2.79333C23.8725 4.03386 32.0425 23.9315 19.5928 30.1927C11.1793 33.1056 3.84419 52.3935 7.62306 66.3366Z"
      fill="#FFF4D7"
    />
    <path
      fill-rule="evenodd"
      clip-rule="evenodd"
      d="M63.0172 53.5854C51.6744 44.4075 59.1133 36.9874 68.2634 48.3524C77.4413 37.0097 84.8613 44.4485 73.4964 53.5986C84.8381 62.7769 77.4002 70.1966 68.2505 58.8326C59.0719 70.1734 51.6525 62.7364 63.0172 53.5854Z"
      fill="#D53954"
    />
    <path
      fill-rule="evenodd"
      clip-rule="evenodd"
      d="M64.5563 49.8821C63.0263 35.3733 73.5327 35.3856 71.9667 49.8917C86.4759 48.3626 86.4633 58.8681 71.9572 57.3021C73.4875 71.8119 62.9817 71.7984 64.5467 57.2926C50.0379 58.8226 50.0495 48.3174 64.5563 49.8821Z"
      fill="#D53954"
    />
    <path
      fill-rule="evenodd"
      clip-rule="evenodd"
      d="M65.9707 48.8771C69.2632 34.663 79.1897 38.1067 72.9708 51.3064C87.1858 54.5985 83.7421 64.525 70.5428 58.3071C67.2504 72.5211 57.3248 69.0771 63.5418 55.8781C49.3278 52.5857 52.7718 42.6601 65.9707 48.8771Z"
      fill="#D53954"
    />
    <path
      fill-rule="evenodd"
      clip-rule="evenodd"
      d="M70.5541 48.8835C67.2967 34.6612 57.3628 38.0807 63.5479 51.2938C49.3256 54.5513 52.7444 64.4864 65.9589 58.3019C69.216 72.5233 79.1502 69.1048 72.9657 55.8903C87.1876 52.6319 83.7691 42.6978 70.5541 48.8835Z"
      fill="#D53954"
    />
    <path
      fill-rule="evenodd"
      clip-rule="evenodd"
      d="M57.3396 53.5787C57.3479 47.5489 62.2409 42.6684 68.2704 42.6758C74.299 42.6835 79.1804 47.5762 79.1731 53.6057C79.1654 59.6343 74.2717 64.516 68.2431 64.5083C62.2136 64.501 57.3328 59.607 57.3396 53.5787Z"
      fill="#262238"
    />
    <path
      fill-rule="evenodd"
      clip-rule="evenodd"
      d="M25.6501 53.7032C14.3084 44.5249 21.7463 37.1052 30.8973 48.4698C40.0743 37.1275 47.4943 44.5663 36.1303 53.716C47.4721 62.8943 40.0342 70.314 30.8844 58.95C21.7049 70.2911 14.2852 62.8532 25.6501 53.7032Z"
      fill="#D53954"
    />
    <path
      fill-rule="evenodd"
      clip-rule="evenodd"
      d="M27.1903 49.9993C25.6599 35.4895 36.1657 35.5031 34.6004 50.008C49.1096 48.4789 49.0963 58.9857 34.5908 57.4184C36.1205 71.9295 25.6147 71.9159 27.1807 57.4098C12.6709 58.9401 12.6832 48.4337 27.1903 49.9993Z"
      fill="#D53954"
    />
    <path
      fill-rule="evenodd"
      clip-rule="evenodd"
      d="M20.1651 53.6958C14.3847 57.2082 16.8505 62.0101 24.7199 59.864C22.5557 67.7293 27.3519 70.2057 30.8767 64.4341C34.3882 70.2148 39.1901 67.749 37.045 59.8793C44.9096 62.0448 47.3869 57.2483 41.615 53.7224C47.3951 50.2122 44.9309 45.4087 37.0606 47.5551C39.2251 39.6908 34.4292 37.2122 30.9034 42.9841C27.3922 37.2044 22.59 39.6693 24.7352 47.5389C16.8705 45.3735 14.3932 50.17 20.1651 53.6958Z"
      fill="#D53954"
    />
    <path
      fill-rule="evenodd"
      clip-rule="evenodd"
      d="M19.9735 53.6961C19.9818 47.6663 24.8748 42.7858 30.9031 42.7925C36.9326 42.7999 41.8134 47.6939 41.806 53.7234C41.7993 59.7517 36.9056 64.6334 30.8761 64.6261C24.8475 64.6184 19.9658 59.7247 19.9735 53.6961Z"
      fill="#262238"
    />
    <path
      fill-rule="evenodd"
      clip-rule="evenodd"
      d="M35.9708 31.058L38.2238 31.0427L61.8936 31.182L64.1473 31.2026C64.1473 31.2026 65.5987 17.4466 49.6164 17.4259C35.7488 17.41 35.9708 31.058 35.9708 31.058Z"
      fill="#262238"
    />
    <path
      fill-rule="evenodd"
      clip-rule="evenodd"
      d="M49.0622 47.9137C49.0622 47.9137 55.0435 40.1121 53.668 38.1199C53.668 38.1199 53.1885 36.6167 51.3514 36.7663C49.5137 36.9171 48.9969 37.5325 48.9969 37.5325C48.9969 37.5325 47.2388 36.7333 46.0133 36.8842C44.7884 37.0369 43.8683 37.8007 44.6307 40.2519C45.3932 42.7031 49.0622 47.9137 49.0622 47.9137Z"
      fill="#262238"
    />
    <path
      fill-rule="evenodd"
      clip-rule="evenodd"
      d="M49.0464 67.9893C49.0464 67.9893 41.0281 78.4486 42.8725 81.1194C42.8725 81.1194 43.5141 83.1334 45.9781 82.9312C48.4414 82.7301 49.0361 79.3413 49.0361 79.3413C49.0361 79.3413 51.4901 82.9769 53.1328 82.7735C54.7756 82.5701 56.0086 81.546 54.9861 78.2597C53.964 74.9742 49.0464 67.9893 49.0464 67.9893Z"
      fill="#D53954"
    />
    <path
      fill-rule="evenodd"
      clip-rule="evenodd"
      d="M26.4807 81.1158C25.1264 79.1173 25.7859 76.2983 27.9582 74.8152C30.1286 73.3233 40.6171 71.521 40.62 71.5295C40.6258 71.5339 35.0662 80.6127 32.8776 82.0761C30.6953 83.5456 27.8339 83.1137 26.4807 81.1158Z"
      fill="#2EB3AC"
    />
    <path
      fill-rule="evenodd"
      clip-rule="evenodd"
      d="M70.452 80.958C71.8675 79.0026 71.2951 76.165 69.1685 74.6157C67.0466 73.0584 56.6175 70.9327 56.6141 70.9413C56.6082 70.9455 61.8857 80.1908 64.0282 81.722C66.1647 83.2573 69.0375 82.9132 70.452 80.958Z"
      fill="#2EB3AC"
    />
  </g>
  <defs>
    <clipPath id="clip0">
      <rect width="100" height="100" fill="white" />
    </clipPath>
  </defs>
</svg>
