<svg
  width="100"
  height="100"
  viewBox="0 0 100 100"
  fill="none"
  xmlns="http://www.w3.org/2000/svg"
>
  <g clip-path="url(#clip0)">
    <rect width="100" height="100" fill="#361154" />
    <path
      fill-rule="evenodd"
      clip-rule="evenodd"
      d="M8.6626 33.739C14.0889 14.2405 28.8423 4.31747 48.8381 3.26425L48.8302 3.23843C48.9349 3.23884 49.0309 3.24504 49.1261 3.24837C49.2191 3.24501 49.3206 3.2349 49.4137 3.23153L49.4123 3.26123C69.4119 3.96467 84.3503 13.6294 90.1143 33.0299C94.2167 46.8587 87.3675 66.2861 79.0331 69.3978C66.7616 75.9468 75.3887 95.6139 50.2289 97.4595L50.2296 97.4959C50.1342 97.4916 50.0381 97.4854 49.9424 97.4802C49.8496 97.4845 49.7487 97.4965 49.6557 97.4999L49.6547 97.4625C24.4631 96.0574 32.7623 76.2421 20.3691 69.9088C11.9861 66.9442 4.79633 47.6346 8.6626 33.739Z"
      fill="#E0963F"
    />
    <path
      fill-rule="evenodd"
      clip-rule="evenodd"
      d="M36.7235 69.1553L38.9804 69.1837L62.6092 69.2053L64.8654 69.1973C64.8654 69.1973 66.2233 82.9418 50.2607 82.8561C36.4135 82.7803 36.7235 69.1553 36.7235 69.1553Z"
      fill="#262238"
    />
    <path
      fill-rule="evenodd"
      clip-rule="evenodd"
      d="M49.9143 52.4111C49.9143 52.4111 55.8324 60.242 54.4406 62.2224C54.4406 62.2224 53.9571 63.7192 52.1195 63.5574C50.2917 63.3936 49.7786 62.7756 49.7786 62.7756C49.7786 62.7756 48.0121 63.5646 46.7919 63.4043C45.5715 63.2431 44.6566 62.474 45.4368 60.0322C46.2164 57.5884 49.9143 52.4111 49.9143 52.4111Z"
      fill="#262238"
    />
    <path
      fill-rule="evenodd"
      clip-rule="evenodd"
      d="M50.0292 32.3677C50.0292 32.3677 42.0936 21.8712 43.9489 19.2178C43.9489 19.2178 44.61 17.2077 47.0713 17.4256C49.523 17.6464 50.098 21.0323 50.098 21.0323C50.098 21.0323 52.5698 17.4197 54.2135 17.6314C55.848 17.8469 57.0729 18.8779 56.0344 22.1505C54.9863 25.4261 50.0292 32.3677 50.0292 32.3677Z"
      fill="#B82E6A"
    />
    <path
      fill-rule="evenodd"
      clip-rule="evenodd"
      d="M27.5921 19.1083C26.2233 21.0953 26.8654 23.9137 29.0174 25.412C31.1808 26.9131 41.6351 28.7854 41.6426 28.7757C41.6513 28.77 36.1604 19.6687 33.9837 18.1926C31.8157 16.7107 28.9517 17.1251 27.5921 19.1083Z"
      fill="#FFF4D7"
    />
    <path
      fill-rule="evenodd"
      clip-rule="evenodd"
      d="M71.4927 19.5608C72.8875 21.5237 72.2991 24.3534 70.1641 25.8866C68.0413 27.4255 57.6061 29.4803 57.6034 29.4716C57.6017 29.4659 62.9357 20.2685 65.0774 18.7573C67.2267 17.2365 70.0882 17.6007 71.4927 19.5608Z"
      fill="#FFF4D7"
    />
    <path
      fill-rule="evenodd"
      clip-rule="evenodd"
      d="M63.8862 46.8407C52.4959 55.9301 59.869 63.3893 69.0822 52.1046C78.1777 63.4877 85.6368 56.1105 74.3501 46.8979C85.7308 37.8114 78.3577 30.3522 69.1451 41.6389C60.0588 30.2519 52.5998 37.629 63.8862 46.8407Z"
      fill="#C72761"
    />
    <path
      fill-rule="evenodd"
      clip-rule="evenodd"
      d="M65.3964 50.5492C63.7684 65.0278 74.2634 65.0839 72.7917 50.5909C87.2695 52.216 87.325 41.7264 72.8303 43.1923C74.4586 28.7146 63.9732 28.6557 65.435 43.1507C50.9575 41.5265 50.9019 52.0161 65.3964 50.5492Z"
      fill="#C72761"
    />
    <path
      fill-rule="evenodd"
      clip-rule="evenodd"
      d="M66.804 51.5619C69.9898 65.7787 79.9276 62.4047 73.8053 49.1861C88.0226 45.9918 84.6511 36.0585 71.4325 42.1776C68.2372 27.9638 58.2994 31.3377 64.4217 44.5563C50.2044 47.7506 53.5759 57.6839 66.804 51.5619Z"
      fill="#C72761"
    />
    <path
      fill-rule="evenodd"
      clip-rule="evenodd"
      d="M71.3813 51.5868C68.0307 65.767 58.1308 62.2874 64.3988 49.133C50.2204 45.7851 53.6992 35.8896 66.8553 42.1528C70.1965 27.9765 80.0961 31.4551 73.8282 44.6095C88.0063 47.9565 84.5274 57.852 71.3813 51.5868Z"
      fill="#C72761"
    />
    <path
      fill-rule="evenodd"
      clip-rule="evenodd"
      d="M58.2193 46.8092C58.1785 52.8323 63.035 57.7378 69.0576 57.7703C75.0705 57.8049 79.9854 52.9487 80.0169 46.9294C80.0485 40.9102 75.192 36.0047 69.1694 35.9722C63.1565 35.9377 58.2509 40.79 58.2193 46.8092Z"
      fill="#FFF4D7"
    />
    <path
      fill-rule="evenodd"
      clip-rule="evenodd"
      d="M59.498 46.8187C59.4694 52.1291 63.7519 56.4572 69.0623 56.4858C74.3727 56.5144 78.7004 52.2341 78.729 46.9237C78.7576 41.6133 74.4751 37.2853 69.1644 37.2557C63.854 37.227 59.5266 41.5083 59.498 46.8187Z"
      fill="#262238"
    />
    <path
      fill-rule="evenodd"
      clip-rule="evenodd"
      d="M22.5189 45.5761C22.4902 50.8865 26.7728 55.2145 32.0832 55.2432C37.3936 55.2718 41.7212 50.9915 41.7499 45.6811C41.7785 40.3707 37.496 36.0427 32.1853 36.0131C26.8749 35.9844 22.5475 40.2657 22.5189 45.5761Z"
      fill="#262238"
    />
    <path
      fill-rule="evenodd"
      clip-rule="evenodd"
      d="M26.8354 45.9452C15.4544 55.0307 22.8278 62.4909 32.0404 51.2042C41.1267 62.5912 48.5854 55.2131 37.299 46.0014C48.6895 36.913 41.3066 29.4557 32.094 40.7424C23.0077 29.3554 15.5487 36.7326 26.8354 45.9452Z"
      fill="#C72761"
    />
    <path
      fill-rule="evenodd"
      clip-rule="evenodd"
      d="M28.3453 49.6527C26.7269 64.1284 37.2123 64.1874 35.7502 49.6915C50.228 51.3166 50.2835 40.827 35.7891 42.2939C37.4171 27.8152 26.9221 27.7592 28.3935 42.2513C13.916 40.6271 13.8509 51.1196 28.3453 49.6527Z"
      fill="#C72761"
    />
    <path
      fill-rule="evenodd"
      clip-rule="evenodd"
      d="M29.7529 50.6654C32.948 64.8783 42.8768 61.5092 36.7638 48.2867C50.9715 45.0953 47.6 35.162 34.3815 41.2811C31.1861 27.0673 21.2579 30.4383 27.3802 43.6569C13.1629 46.8512 16.5344 56.7845 29.7529 50.6654Z"
      fill="#C72761"
    />
    <path
      fill-rule="evenodd"
      clip-rule="evenodd"
      d="M34.3302 50.6903C30.9794 64.8695 21.0893 61.3879 27.3477 48.2365C13.1693 44.8886 16.6577 34.9902 29.8042 41.2563C33.155 27.0771 43.045 30.5586 36.7867 43.71C50.965 47.058 47.4862 56.9535 34.3302 50.6903Z"
      fill="#C72761"
    />
    <path
      fill-rule="evenodd"
      clip-rule="evenodd"
      d="M21.6032 46.1404C21.5625 52.1635 26.4189 57.0689 32.4416 57.1015C38.4544 57.136 43.3693 52.2798 43.4009 46.2606C43.4324 40.2414 38.576 35.3359 32.5533 35.3034C26.5405 35.2688 21.6348 40.1211 21.6032 46.1404Z"
      fill="#FFF4D7"
    />
    <path
      fill-rule="evenodd"
      clip-rule="evenodd"
      d="M22.5285 45.9598C22.4999 51.2702 26.7824 55.5983 32.0928 55.6269C37.3939 55.6594 41.7308 51.3752 41.7595 46.0648C41.7881 40.7544 37.5056 36.4264 32.1952 36.3977C26.8845 36.3681 22.5571 40.6494 22.5285 45.9598Z"
      fill="#262238"
    />
  </g>
  <defs>
    <clipPath id="clip0">
      <rect width="100" height="100" fill="white" />
    </clipPath>
  </defs>
</svg>
