<svg width="200px" height="200px" viewBox="0 0 224 224" fill="none" xmlns="http://www.w3.org/2000/svg">
<g clip-path="url(#clip0)">
<rect width="224" height="224" fill="#361154"/>
<path fill-rule="evenodd" clip-rule="evenodd" d="M202.444 76.9957C190.563 33.1733 157.601 10.6864 112.777 8.02674L112.779 7.96429C112.56 7.96858 112.348 7.97989 112.129 7.9863C111.911 7.97355 111.698 7.95437 111.479 7.94448L111.478 8.00905C66.5936 9.28249 32.9534 30.7455 19.7311 74.1791C10.3062 105.137 25.3966 148.825 44.0346 155.931C71.4749 170.81 51.8105 214.794 108.222 219.312L108.22 219.396C108.44 219.387 108.651 219.373 108.871 219.364C109.09 219.379 109.299 219.399 109.52 219.416L109.52 219.333C166.046 216.554 147.745 171.983 175.632 157.958C194.478 151.433 210.909 108.228 202.444 76.9957Z" fill="#FFF4D7"/>
<path fill-rule="evenodd" clip-rule="evenodd" d="M78.3616 105.558C103.769 126.117 87.1063 142.738 66.6101 117.28C46.0515 142.688 29.4306 126.025 54.8882 105.529C29.4826 84.9696 46.1435 68.3494 66.6389 93.8048C87.1989 68.4014 103.818 85.0601 78.3616 105.558Z" fill="#D53954"/>
<path fill-rule="evenodd" clip-rule="evenodd" d="M74.9139 113.854C78.3411 146.354 54.8067 146.326 58.3144 113.833C25.8139 117.258 25.8422 93.7254 58.3359 97.2331C54.9079 64.7312 78.441 64.7616 74.9353 97.2546C107.435 93.8273 107.409 117.359 74.9139 113.854Z" fill="#D53954"/>
<path fill-rule="evenodd" clip-rule="evenodd" d="M71.7457 116.105C64.3706 147.945 42.1353 140.231 56.0655 110.664C24.2239 103.289 31.9378 81.054 61.5042 94.9821C68.8793 63.1427 91.1125 70.8573 77.1865 100.423C109.026 107.798 101.311 130.031 71.7457 116.105Z" fill="#D53954"/>
<path fill-rule="evenodd" clip-rule="evenodd" d="M61.4789 116.091C68.7756 147.949 91.0274 140.289 77.1728 110.692C109.031 103.395 101.373 81.1404 71.7723 94.9936C64.4763 63.1378 42.2237 70.7952 56.077 100.396C24.2198 107.694 31.8772 129.947 61.4789 116.091Z" fill="#D53954"/>
<path fill-rule="evenodd" clip-rule="evenodd" d="M91.0795 105.574C91.0609 119.08 80.1004 130.013 66.5943 129.996C53.0903 129.979 42.1559 119.019 42.1724 105.513C42.1896 92.0091 53.1514 81.074 66.6554 81.0912C80.1616 81.1077 91.0946 92.0703 91.0795 105.574Z" fill="#262238"/>
<path fill-rule="evenodd" clip-rule="evenodd" d="M162.064 105.295C187.469 125.854 170.808 142.474 150.31 117.017C129.754 142.424 113.133 125.761 138.588 105.266C113.183 84.7067 129.843 68.0865 150.339 93.5419C170.901 68.1377 187.521 84.7986 162.064 105.295Z" fill="#D53954"/>
<path fill-rule="evenodd" clip-rule="evenodd" d="M158.614 113.591C162.042 146.093 138.509 146.063 142.015 113.572C109.515 116.997 109.544 93.4617 142.037 96.9724C138.61 64.4676 162.143 64.498 158.635 96.9917C191.137 93.5637 191.11 117.098 158.614 113.591Z" fill="#D53954"/>
<path fill-rule="evenodd" clip-rule="evenodd" d="M174.35 105.311C187.298 97.4434 181.775 86.6872 164.148 91.4945C168.995 73.8763 158.252 68.3293 150.356 81.2575C142.49 68.3088 131.734 73.8323 136.539 91.4603C118.922 86.6097 113.373 97.3538 126.302 105.252C113.355 113.115 118.875 123.874 136.504 119.066C131.656 136.683 142.399 142.234 150.296 129.305C158.162 142.252 168.919 136.731 164.113 119.103C181.73 123.953 187.279 113.209 174.35 105.311Z" fill="#D53954"/>
<path fill-rule="evenodd" clip-rule="evenodd" d="M174.78 105.311C174.761 118.817 163.8 129.75 150.297 129.735C136.791 129.718 125.858 118.756 125.875 105.249C125.89 91.7462 136.852 80.811 150.358 80.8275C163.862 80.8447 174.797 91.8066 174.78 105.311Z" fill="#262238"/>
<path fill-rule="evenodd" clip-rule="evenodd" d="M138.945 156.02L133.899 156.054L80.8785 155.742L75.8302 155.696C75.8302 155.696 72.579 186.509 108.379 186.556C139.443 186.591 138.945 156.02 138.945 156.02Z" fill="#262238"/>
<path fill-rule="evenodd" clip-rule="evenodd" d="M109.621 118.263C109.621 118.263 96.2226 135.738 99.3038 140.201C99.3038 140.201 100.378 143.568 104.493 143.233C108.609 142.895 109.767 141.517 109.767 141.517C109.767 141.517 113.705 143.307 116.45 142.969C119.194 142.627 121.255 140.916 119.547 135.425C117.839 129.935 109.621 118.263 109.621 118.263Z" fill="#262238"/>
<path fill-rule="evenodd" clip-rule="evenodd" d="M109.656 73.2937C109.656 73.2937 127.617 49.8648 123.486 43.8822C123.486 43.8822 122.049 39.3708 116.529 39.8239C111.011 40.2742 109.679 47.8651 109.679 47.8651C109.679 47.8651 104.182 39.7215 100.502 40.1771C96.8227 40.6327 94.0607 42.9266 96.3511 50.2881C98.6407 57.6474 109.656 73.2937 109.656 73.2937Z" fill="#D53954"/>
<path fill-rule="evenodd" clip-rule="evenodd" d="M160.203 43.8904C163.237 48.3669 161.76 54.6815 156.894 58.0036C152.032 61.3456 128.538 65.3828 128.531 65.3637C128.518 65.3539 140.972 45.0172 145.874 41.7394C150.763 38.4476 157.172 39.4152 160.203 43.8904Z" fill="#2EB3AC"/>
<path fill-rule="evenodd" clip-rule="evenodd" d="M61.7075 44.2438C58.5368 48.624 59.8191 54.9802 64.5826 58.4507C69.3356 61.9391 92.6967 66.7004 92.7044 66.6812C92.7177 66.6718 80.8961 45.9623 76.0969 42.5326C71.311 39.0935 64.876 39.8643 61.7075 44.2438Z" fill="#2EB3AC"/>
</g>
<defs>
<clipPath id="clip0">
<rect width="224" height="224" fill="white"/>
</clipPath>
</defs>
</svg>
