<?xml version="1.0" encoding="UTF-8" standalone="no"?> <!-- Created with Vectornator for iOS (http://vectornator.io/) --><!DOCTYPE svg PUBLIC "-//W3C//DTD SVG 1.1//EN" "http://www.w3.org/Graphics/SVG/1.1/DTD/svg11.dtd">
<svg style="fill-rule:evenodd;clip-rule:evenodd;stroke-linecap:round;stroke-linejoin:round;" xmlns:vectornator="http://vectornator.io" xmlns:xlink="http://www.w3.org/1999/xlink" xmlns="http://www.w3.org/2000/svg" xml:space="preserve" version="1.1" viewBox="0 0 210 235">
<metadata>
<vectornator:setting key="DynamicGuides" value="1"/>
<vectornator:setting key="Units" value="Points"/>
<vectornator:setting key="GuidesVisible" value="1"/>
<vectornator:setting key="RulersVisible" value="1"/>
<vectornator:setting key="SnapToGuides" value="1"/>
<vectornator:setting key="GridSpacing" value="14.17500019073486"/>
</metadata>
<defs/>
<g id="Untitled" vectornator:layerName="Untitled">
<g opacity="1">
<path stroke="#ff0070" fill-rule="evenodd" stroke-width="6" d="M7.57684+157.323C20.5599+203.876+55.82+227.558+103.555+230.039L103.553+230.106C103.787+230.099+104.015+230.085+104.248+230.078C104.476+230.089+104.705+230.109+104.938+230.119L104.938+230.049C152.708+228.343+188.347+205.239+202.085+158.901C211.877+125.876+195.472+79.4868+175.582+72.0699C146.254+56.4469+166.845+9.47289+106.762+5.102L106.766+5.013C106.53+5.02301+106.306+5.039+106.074+5.05101C105.839+5.03601+105.619+5.01401+105.382+5L105.382+5.091C45.2366+8.48812+65.0607+55.7881+35.4857+70.9331C15.4737+78.0252-1.67721+124.142+7.57684+157.323Z" fill="#ff0070" stroke-linecap="butt" opacity="1" stroke-linejoin="miter"/>
<path d="M137.256+115.284C112.921+93.294+128.709+75.175+148.391+102.504C167.846+74.8519+183.784+92.7079+159.633+115.1C183.965+137.089+168.177+155.209+148.495+127.879C129.04+155.531+113.102+137.675+137.256+115.284Z" fill-rule="evenodd" fill="#ffffff" opacity="1"/>
<path d="M140.496+106.285C137.046+71.1839+159.479+70.9989+156.32+106.155C187.282+102.151+187.385+127.589+156.39+124.097C159.841+159.202+137.407+159.385+140.569+124.228C109.606+128.233+109.501+102.793+140.496+106.285Z" fill-rule="evenodd" fill="#ffffff" opacity="1"/>
<path d="M125.541+115.379C113.243+124.004+118.569+135.58+135.347+130.222C130.822+149.311+141.094+155.21+148.549+141.16C156.122+155.086+166.345+149.016+161.665+130.005C178.484+135.086+183.713+123.422+171.345+115.004C183.645+106.38+178.32+94.8039+161.541+100.162C166.066+81.0729+155.792+75.1739+148.337+89.2239C140.764+75.2979+130.541+81.367+135.221+100.378C118.402+95.297+113.173+106.963+125.541+115.379Z" fill-rule="evenodd" fill="#ffffff" opacity="1"/>
<path d="M125.133+115.385C125.073+100.785+135.462+88.8659+148.335+88.7579C161.208+88.6519+171.695+100.401+171.755+115.001C171.813+129.598+161.427+141.517+148.554+141.624C135.678+141.731+125.193+129.983+125.133+115.385Z" fill-rule="evenodd" fill="#ff0070" opacity="1"/>
<path d="M128.887+115.352C128.839+103.105+137.554+93.107+148.352+93.0169C159.153+92.9279+167.948+102.784+167.999+115.031C168.047+127.278+159.334+137.277+148.534+137.366C137.735+137.456+128.94+127.6+128.887+115.352Z" fill-rule="evenodd" fill="#ffffff" opacity="1"/>
<path d="M49.2678+114.37C24.9337+92.3802+40.7247+74.2601+60.4058+101.589C79.8617+73.937+95.7987+91.795+71.6458+114.184C95.9798+136.175+80.1898+154.295+60.5098+126.964C41.0548+154.617+25.1178+136.76+49.2678+114.37Z" fill-rule="evenodd" fill="#ffffff" opacity="1"/>
<path d="M52.5088+105.372C49.0567+70.2681+71.4947+70.0831+68.3318+105.241C99.2947+101.238+99.4008+126.677+68.4058+123.183C71.8539+158.286+49.4218+158.472+52.5808+123.314C21.6188+127.318+21.5138+101.878+52.5088+105.372Z" fill-rule="evenodd" fill="#ffffff" opacity="1"/>
<path d="M37.5528+114.466C25.2558+123.088+30.5818+134.666+47.3568+129.308C42.8348+148.396+53.1088+154.295+60.5638+140.248C68.1358+154.173+78.3598+148.104+73.6768+129.091C90.4978+134.17+95.7278+122.507+83.3598+114.089C95.6578+105.467+90.3327+93.889+73.5537+99.2471C78.0777+80.159+67.8077+74.2611+60.3507+88.3071C52.7787+74.3831+42.5567+80.4521+47.2357+99.4641C30.4167+94.3861+25.1868+106.05+37.5528+114.466Z" fill-rule="evenodd" fill="#ffffff" opacity="1"/>
<path d="M37.1458+114.47C37.0857+99.8721+47.4747+87.9511+60.3477+87.8451C73.2207+87.7381+83.7087+99.486+83.7678+114.085C83.8288+128.683+73.4388+140.604+60.5658+140.71C47.6908+140.816+37.2058+129.067+37.1458+114.47Z" fill-rule="evenodd" fill="#ff0070" opacity="1"/>
<path d="M40.7438+114.439C40.6948+102.094+49.4767+92.0141+60.3657+91.9231C71.2527+91.8321+80.1188+101.768+80.1708+114.114C80.2188+126.461+71.4368+136.542+60.5508+136.633C49.6618+136.721+40.7938+126.787+40.7438+114.439Z" fill-rule="evenodd" fill="#ffffff" opacity="1"/>
<path d="M72.1517+66.9801L77.5217+66.905L133.963+66.8229L139.334+66.8329C139.334+66.8329+142.559+34.0079+104.451+34.239C71.3836+34.4401+72.1517+66.9801+72.1517+66.9801Z" fill-rule="evenodd" fill="#ffffff" opacity="1"/>
<path d="M106.067+109.773C106.067+109.773+117.724+94.336+114.989+90.437C114.989+90.437+114.024+87.488+110.411+87.81C106.797+88.132+105.791+89.35+105.791+89.35C105.791+89.35+102.319+87.802+99.9107+88.119C97.5037+88.435+95.7047+89.951+97.2397+94.764C98.7747+99.574+106.067+109.773+106.067+109.773Z" fill-rule="evenodd" fill="#ffffff" opacity="1"/>
<path d="M143.807+170.775C143.807+170.775+152.236+201.046+159.97+201.362C159.97+201.362+164.732+203.027+167.878+198.043C171.024+193.062+165.423+187.069+165.423+187.069C165.423+187.069+175.868+187.605+177.835+184.184C179.803+180.763+179.617+176.946+171.892+174.183C164.168+171.42+143.807+170.775+143.807+170.775Z" fill-rule="evenodd" fill="#ffffff" opacity="1"/>
<path d="M66.8549+171.524C66.8549+171.524+57.7989+201.615+50.0619+201.771C50.0619+201.771+45.2649+203.336+42.2229+198.287C39.1809+193.241+44.9069+187.366+44.9069+187.366C44.9069+187.366+34.4519+187.684+32.5539+184.226C30.6589+180.765+30.9249+176.952+38.7039+174.349C46.4859+171.748+66.8549+171.524+66.8549+171.524Z" fill-rule="evenodd" fill="#ffffff" opacity="1"/>
<path d="M143.242+156.038C138.919+154.438+136.423+161.152+140.753+162.757C145.077+164.358+147.573+157.641+143.242+156.038Z" fill-rule="evenodd" fill="#ffffff" opacity="1"/>
<path d="M160.575+158.612C156.254+157.012+153.759+163.726+158.086+165.331C162.41+166.931+164.905+160.217+160.575+158.612Z" fill-rule="evenodd" fill="#ffffff" opacity="1"/>
<path d="M176.206+152.19C171.882+150.59+169.387+157.304+173.719+158.908C178.04+160.51+180.536+153.793+176.206+152.19Z" fill-rule="evenodd" fill="#ffffff" opacity="1"/>
<path d="M185.345+136.722C181.024+135.12+178.528+141.836+182.856+143.438C187.179+145.041+189.675+138.325+185.345+136.722Z" fill-rule="evenodd" fill="#ffffff" opacity="1"/>
<path d="M189.742+117.014C185.419+115.41+182.923+122.128+187.253+123.733C191.574+125.332+194.07+118.616+189.742+117.014Z" fill-rule="evenodd" fill="#ffffff" opacity="1"/>
<path d="M82.2508+149.418C77.9298+147.816+75.4338+154.533+79.7639+156.138C84.0878+157.739+86.5838+151.022+82.2508+149.418Z" fill-rule="evenodd" fill="#ffffff" opacity="1"/>
<path d="M65.4059+157.625C61.0828+156.022+58.5869+162.738+62.9189+164.342C67.2419+165.943+69.7379+159.228+65.4059+157.625Z" fill-rule="evenodd" fill="#ffffff" opacity="1"/>
<path d="M106.277+163.078C101.956+161.476+99.4599+168.192+103.788+169.797C108.111+171.397+110.607+164.681+106.277+163.078Z" fill-rule="evenodd" fill="#ffffff" opacity="1"/>
<path d="M109.412+204.82C98.5219+200.787+92.238+217.7+103.143+221.741C114.031+225.773+120.315+208.86+109.412+204.82Z" fill-rule="evenodd" fill="#ffffff" opacity="1"/>
<path d="M107.65+183.024C100.273+180.29+96.0129+191.755+103.404+194.493C110.782+197.224+115.044+185.763+107.65+183.024Z" fill-rule="evenodd" fill="#ffffff" opacity="1"/>
<path d="M47.4729+155.042C43.1518+153.442+40.6579+160.157+44.9858+161.762C49.3099+163.362+51.8038+156.648+47.4729+155.042Z" fill-rule="evenodd" fill="#ffffff" opacity="1"/>
<path d="M39.1058+150.817C39.1088+150.617+39.1128+150.418+39.1128+150.217C39.1328+148.283+37.8838+146.518+35.8498+146.342C34.0308+146.182+31.9928+147.66+31.9718+149.604C31.9718+149.805+31.9688+150.002+31.9688+150.203C31.9468+152.137+33.1968+153.902+35.2298+154.077C37.0498+154.237+39.0868+152.76+39.1058+150.817Z" fill-rule="evenodd" fill="#ffffff" opacity="1"/>
<path d="M29.1498+132.704C24.8268+131.101+22.3308+137.818+26.6628+139.422C30.9858+141.025+33.4818+134.308+29.1498+132.704Z" fill-rule="evenodd" fill="#ffffff" opacity="1"/>
<path d="M23.9388+115.08C19.6148+113.479+17.1198+120.194+21.4498+121.798C25.7728+123.399+28.2688+116.685+23.9388+115.08Z" fill-rule="evenodd" fill="#ffffff" opacity="1"/>
<path d="M55.3937+68.3441C58.5247+67.9391+63.5577+67.7231+68.8797+69.4121C74.1547+71.0361+79.5937+74.7381+82.3727+79.755C77.2367+77.3331+72.1487+75.6901+67.5007+74.8141C62.8657+73.9521+58.7497+73.9321+56.1177+74.2641C52.8177+74.7111+51.0567+74.9761+49.9767+74.7851C48.8957+74.5871+48.5067+73.9331+48.2107+73.1651C47.9157+72.3971+47.7347+71.6691+48.5957+70.7981C49.4477+69.9331+51.4057+68.8821+55.3937+68.3441Z" fill-rule="evenodd" fill="#ffffff" opacity="1"/>
<path d="M70.7026+27.2951C73.2006+24.5091+77.7356+20.644+83.8096+18.442C89.8326+16.185+96.9736+15.666+103.393+17.064C97.3376+19.664+91.2676+21.823+86.3906+24.375C81.5066+26.864+77.8006+29.7621+75.7876+31.9881C73.2636+34.7791+72.1126+36.3711+71.0416+37.0421C70.0276+37.7421+69.1686+37.5341+68.2936+37.1521C67.4186+36.7691+66.6676+36.3321+66.6576+34.8671C66.7036+33.4591+67.4906+30.8441+70.7026+27.2951Z" fill-rule="evenodd" fill="#ffffff" opacity="1"/>
<path d="M86.0356+26.372C87.3066+24.741+89.4536+22.282+92.5426+20.333C95.5976+18.381+99.6056+17.027+103.408+17.275C100.194+19.277+97.1996+21.319+94.7086+23.358C92.2256+25.39+90.2826+27.405+89.1626+28.834C87.7706+30.639+86.9926+31.582+86.3596+31.973C85.7266+32.368+85.2476+32.207+84.7606+31.949C84.2766+31.694+83.8666+31.402+83.9066+30.599C83.9426+29.8+84.4296+28.449+86.0356+26.372Z" fill-rule="evenodd" fill="#ffffff" opacity="1"/>
<path d="M124.224+172.864C120.202+170.058+114.191+165.049+109.835+157.545C105.465+150.161+103.082+140.222+105.131+131.553C108.504+139.702+112.638+146.908+117.066+152.771C121.494+158.606+126.207+162.935+129.581+165.302C133.841+168.235+136.141+169.771+137.185+171.119C138.225+172.477+137.985+173.634+137.522+174.827C137.059+176.02+136.508+177.044+134.607+177.144C132.724+177.253+129.373+176.415+124.224+172.864Z" fill-rule="evenodd" fill="#ffffff" opacity="1"/>
<path d="M88.1209+173.778C91.9879+170.759+97.7199+165.435+101.663+157.704C105.626+150.096+107.469+140.041+104.952+131.492C102.025+139.813+98.2878+147.232+94.1818+153.325C90.0779+159.394+85.6029+163.971+82.3609+166.513C78.2679+169.675+76.0529+171.331+75.0839+172.734C74.1189+174.145+74.4209+175.288+74.9449+176.455C75.4749+177.622+76.0819+178.615+77.9859+178.611C79.8689+178.62+83.1729+177.602+88.1209+173.778Z" fill-rule="evenodd" fill="#ffffff" opacity="1"/>
<path d="M152.02+75.2619C149.394+74.8729+145.277+74.8079+140.624+75.5759C135.959+76.3529+130.84+77.891+125.656+80.204C128.535+75.247+134.049+71.66+139.36+70.1429C144.715+68.5639+149.74+68.8859+152.864+69.3559C156.84+69.9769+158.776+71.0679+159.61+71.9539C160.452+72.8419+160.257+73.5639+159.944+74.3259C159.634+75.0889+159.231+75.7339+158.145+75.9079C157.061+76.0759+155.308+75.7749+152.02+75.2619Z" fill-rule="evenodd" fill="#ffffff" opacity="1"/>
<path d="M133.231+32.585C131.266+30.319+127.618+27.343+122.787+24.754C117.965+22.098+111.94+19.816+105.94+17.091C112.387+15.826+119.517+16.493+125.492+18.876C131.518+21.203+135.972+25.161+138.412+27.9999C141.549+31.6139+142.279+34.2439+142.298+35.6529C142.259+37.1169+141.497+37.5399+140.615+37.9039C139.731+38.2669+138.869+38.4559+137.873+37.7359C136.812+37.0439+135.697+35.4289+133.231+32.585Z" fill-rule="evenodd" fill="#ffffff" opacity="1"/>
<path d="M119.926+29.155C118.836+27.702+116.93+25.646+114.491+23.563C112.044+21.475+109.095+19.366+105.923+17.299C109.731+17.133+113.708+18.57+116.721+20.587C119.769+22.599+121.863+25.102+123.1+26.757C124.661+28.868+125.124+30.227+125.143+31.026C125.163+31.831+124.752+32.115+124.258+32.359C123.769+32.606+123.287+32.758+122.661+32.351C122.037+31.946+121.279+30.987+119.926+29.155Z" fill-rule="evenodd" fill="#ffffff" opacity="1"/>
</g>
</g>
</svg>
