<?xml version="1.0" encoding="UTF-8" standalone="no"?> <!-- Created with Vectornator for iOS (http://vectornator.io/) --><!DOCTYPE svg PUBLIC "-//W3C//DTD SVG 1.1//EN" "http://www.w3.org/Graphics/SVG/1.1/DTD/svg11.dtd">
<svg style="fill-rule:evenodd;clip-rule:evenodd;stroke-linecap:round;stroke-linejoin:round;" xmlns:vectornator="http://vectornator.io" xmlns:xlink="http://www.w3.org/1999/xlink" xmlns="http://www.w3.org/2000/svg" xml:space="preserve" version="1.1" viewBox="0 0 210 235">
<metadata>
<vectornator:setting key="RulersVisible" value="1"/>
<vectornator:setting key="Units" value="Points"/>
<vectornator:setting key="DynamicGuides" value="1"/>
<vectornator:setting key="GuidesVisible" value="1"/>
<vectornator:setting key="CMYKEnabledKey" value="0"/>
<vectornator:setting key="SnapToGuides" value="1"/>
<vectornator:setting key="GridSpacing" value="14.17500019073486"/>
</metadata>
<defs/>
<g id="Untitled" vectornator:layerName="Untitled">
<g opacity="1">
<path stroke="#ff0070" fill-rule="evenodd" stroke-width="6" d="M202.423+77.7964C189.44+31.2433+154.18+7.561+106.445+5.08006L106.447+5.01284C106.213+5.01991+105.985+5.03371+105.752+5.04078C105.524+5.02965+105.295+5.01027+105.062+5L105.062+5.07021C57.292+6.77626+21.6527+29.8799+7.91488+76.2175C-1.87683+109.243+14.5276+155.632+34.4173+163.049C63.7458+178.672+43.155+225.646+103.238+230.017L103.234+230.106C103.47+230.096+103.694+230.08+103.926+230.068C104.161+230.083+104.381+230.105+104.618+230.119L104.618+230.028C164.763+226.631+144.939+179.331+174.514+164.186C194.526+157.094+211.677+110.977+202.423+77.7964Z" fill="#ff0070" stroke-linecap="butt" opacity="1" stroke-linejoin="miter"/>
<path d="M72.7442+119.835C97.0787+141.825+81.2908+159.944+61.6086+132.615C42.1534+160.267+26.2157+142.411+50.3672+120.019C26.0351+98.0294+41.8229+79.9103+61.5051+107.24C80.9602+79.5876+96.898+97.4438+72.7442+119.835Z" fill-rule="evenodd" fill="#ffffff" opacity="1"/>
<path d="M69.5041+128.834C72.9537+163.935+50.5208+164.12+53.6801+128.964C22.7177+132.968+22.6144+107.53+53.6097+111.022C50.1585+75.9172+72.593+75.734+69.4306+110.891C100.394+106.886+100.499+132.326+69.5041+128.834Z" fill-rule="evenodd" fill="#ffffff" opacity="1"/>
<path d="M84.4587+119.74C96.7571+111.115+91.4312+99.5393+74.6524+104.897C79.1775+85.8079+68.906+79.9094+61.4511+93.9588C53.8781+80.0332+43.6551+86.1025+48.335+105.114C31.5155+100.033+26.2868+111.697+38.655+120.115C26.3543+128.739+31.68+140.315+48.4589+134.957C43.9338+154.046+54.2075+159.945+61.6626+145.895C69.2356+159.821+79.4585+153.752+74.7785+134.741C91.5981+139.822+96.8268+128.156+84.4587+119.74Z" fill-rule="evenodd" fill="#ffffff" opacity="1"/>
<path d="M84.8672+119.734C84.9267+134.334+74.5382+146.253+61.6647+146.361C48.7918+146.467+38.3044+134.718+38.245+120.118C38.187+105.521+48.5733+93.6014+61.446+93.4954C74.3219+93.3878+84.8071+105.136+84.8672+119.734Z" fill-rule="evenodd" fill="#ff0070" opacity="1"/>
<path d="M81.1126+119.767C81.1611+132.014+72.4459+142.012+61.6474+142.102C50.8466+142.191+42.0516+132.335+42.001+120.088C41.9525+107.841+50.6655+97.8417+61.4663+97.7529C72.2648+97.6634+81.0598+107.519+81.1126+119.767Z" fill-rule="evenodd" fill="#ffffff" opacity="1"/>
<path d="M160.732+120.749C185.066+142.739+169.275+160.859+149.594+133.53C130.138+161.182+114.201+143.324+138.354+120.935C114.02+98.9444+129.81+80.8238+149.49+108.155C168.945+80.5026+184.882+98.3588+160.732+120.749Z" fill-rule="evenodd" fill="#ffffff" opacity="1"/>
<path d="M157.491+129.747C160.943+164.851+138.505+165.036+141.668+129.878C110.705+133.881+110.599+108.442+141.594+111.936C138.146+76.8329+160.578+76.6468+157.419+111.805C188.381+107.801+188.486+133.241+157.491+129.747Z" fill-rule="evenodd" fill="#ffffff" opacity="1"/>
<path d="M172.447+120.653C184.744+112.031+179.418+100.453+162.643+105.811C167.165+86.7235+156.891+80.8243+149.436+94.8715C141.864+80.9458+131.64+87.0152+136.323+106.028C119.502+100.949+114.272+112.612+126.64+121.03C114.342+129.652+119.667+141.23+136.446+135.872C131.922+154.96+142.192+160.858+149.649+146.812C157.221+160.736+167.443+154.667+162.764+135.655C179.583+140.733+184.813+129.069+172.447+120.653Z" fill-rule="evenodd" fill="#ffffff" opacity="1"/>
<path d="M172.854+120.649C172.914+135.247+162.525+147.168+149.652+147.274C136.779+147.381+126.291+135.633+126.232+121.034C126.171+106.436+136.561+94.5146+149.434+94.4087C162.309+94.3033+172.794+106.052+172.854+120.649Z" fill-rule="evenodd" fill="#ff0070" opacity="1"/>
<path d="M169.256+120.68C169.305+133.025+160.523+143.105+149.634+143.196C138.747+143.287+129.881+133.351+129.829+121.005C129.781+108.658+138.563+98.5774+149.449+98.4864C160.338+98.3985+169.206+108.332+169.256+120.68Z" fill-rule="evenodd" fill="#ffffff" opacity="1"/>
<path d="M137.848+168.139L132.478+168.214L76.0362+168.296L70.666+168.286C70.666+168.286+67.4406+201.111+105.549+200.88C138.616+200.679+137.848+168.139+137.848+168.139Z" fill-rule="evenodd" fill="#ffffff" opacity="1"/>
<path d="M103.933+125.346C103.933+125.346+92.2753+140.783+95.0107+144.682C95.0107+144.682+95.9756+147.631+99.5883+147.309C103.203+146.987+104.209+145.769+104.209+145.769C104.209+145.769+107.681+147.317+110.089+147C112.496+146.684+114.295+145.168+112.76+140.355C111.225+135.545+103.933+125.346+103.933+125.346Z" fill-rule="evenodd" fill="#ffffff" opacity="1"/>
<path d="M66.1924+64.3437C66.1924+64.3437+57.7635+34.0727+50.0295+33.7568C50.0295+33.7568+45.2676+32.0915+42.1215+37.0755C38.9761+42.0572+44.5768+48.0501+44.5768+48.0501C44.5768+48.0501+34.1323+47.5139+32.1646+50.9347C30.1968+54.3555+30.383+58.1724+38.1076+60.9358C45.8321+63.6993+66.1924+64.3437+66.1924+64.3437Z" fill-rule="evenodd" fill="#ffffff" opacity="1"/>
<path d="M143.145+63.5948C143.145+63.5948+152.201+33.5037+159.938+33.3483C159.938+33.3483+164.735+31.7834+167.777+36.8321C170.819+41.8778+165.093+47.7536+165.093+47.7536C165.093+47.7536+175.548+47.4349+177.446+50.8935C179.341+54.3546+179.075+58.1672+171.296+60.7697C163.514+63.3707+143.145+63.5948+143.145+63.5948Z" fill-rule="evenodd" fill="#ffffff" opacity="1"/>
<path d="M66.7574+79.0806C71.0808+80.6813+73.5764+73.9669+69.2468+72.3617C64.9233+70.761+62.4271+77.4778+66.7574+79.0806Z" fill-rule="evenodd" fill="#ffffff" opacity="1"/>
<path d="M49.4245+76.5072C53.7457+78.1071+56.2412+71.3927+51.9139+69.7883C47.5903+68.1877+45.0948+74.9021+49.4245+76.5072Z" fill-rule="evenodd" fill="#ffffff" opacity="1"/>
<path d="M33.794+82.9286C38.1175+84.5293+40.6131+77.8148+36.2804+76.2113C31.9599+74.609+29.4637+81.3257+33.794+82.9286Z" fill-rule="evenodd" fill="#ffffff" opacity="1"/>
<path d="M24.6551+98.3972C28.9756+99.9993+31.4719+93.2827+27.1438+91.6806C22.821+90.0776+20.3247+96.7943+24.6551+98.3972Z" fill-rule="evenodd" fill="#ffffff" opacity="1"/>
<path d="M20.2577+118.105C24.5805+119.709+27.0767+112.991+22.7471+111.386C18.4259+109.787+15.9297+116.503+20.2577+118.105Z" fill-rule="evenodd" fill="#ffffff" opacity="1"/>
<path d="M127.749+85.7007C132.07+87.303+134.566+80.5862+130.236+78.9811C125.912+77.3805+123.416+84.0971+127.749+85.7007Z" fill-rule="evenodd" fill="#ffffff" opacity="1"/>
<path d="M144.594+77.4945C148.917+79.0974+151.413+72.3807+147.081+70.7772C142.758+69.1764+140.262+75.8909+144.594+77.4945Z" fill-rule="evenodd" fill="#ffffff" opacity="1"/>
<path d="M103.723+72.0412C108.044+73.6433+110.54+66.9267+106.212+65.3223C101.889+63.7216+99.3924+70.4383+103.723+72.0412Z" fill-rule="evenodd" fill="#ffffff" opacity="1"/>
<path d="M100.588+30.2989C111.478+34.332+117.762+17.4187+106.857+13.3782C95.9685+9.34583+89.6846+26.2591+100.588+30.2989Z" fill-rule="evenodd" fill="#ffffff" opacity="1"/>
<path d="M102.35+52.0951C109.727+54.8287+113.987+43.3643+106.596+40.6263C99.218+37.8949+94.9562+49.3563+102.35+52.0951Z" fill-rule="evenodd" fill="#ffffff" opacity="1"/>
<path d="M162.527+80.0772C166.848+81.6771+169.342+74.9619+165.014+73.3574C160.69+71.7568+158.196+78.4713+162.527+80.0772Z" fill-rule="evenodd" fill="#ffffff" opacity="1"/>
<path d="M170.894+84.3021C170.891+84.5022+170.887+84.7016+170.887+84.9025C170.867+86.8366+172.116+88.6011+174.15+88.7775C175.969+88.9367+178.007+87.4591+178.028+85.5151C178.028+85.3142+178.031+85.1171+178.031+84.9162C178.053+82.9821+176.803+81.2176+174.77+81.042C172.95+80.882+170.913+82.3596+170.894+84.3021Z" fill-rule="evenodd" fill="#ffffff" opacity="1"/>
<path d="M180.85+102.415C185.173+104.018+187.669+97.3008+183.337+95.6972C179.014+94.0943+176.518+100.811+180.85+102.415Z" fill-rule="evenodd" fill="#ffffff" opacity="1"/>
<path d="M186.061+120.039C190.385+121.64+192.88+114.925+188.55+113.321C184.227+111.72+181.731+118.434+186.061+120.039Z" fill-rule="evenodd" fill="#ffffff" opacity="1"/>
<path d="M154.606+166.775C151.475+167.18+146.442+167.396+141.12+165.707C135.845+164.083+130.406+160.381+127.627+155.364C132.763+157.786+137.851+159.429+142.499+160.305C147.134+161.167+151.25+161.187+153.882+160.855C157.182+160.408+158.943+160.143+160.023+160.334C161.104+160.532+161.493+161.186+161.789+161.954C162.084+162.722+162.265+163.45+161.404+164.321C160.552+165.186+158.594+166.237+154.606+166.775Z" fill-rule="evenodd" fill="#ffffff" opacity="1"/>
<path d="M139.297+207.824C136.799+210.61+132.264+214.475+126.19+216.677C120.167+218.934+113.026+219.453+106.607+218.055C112.662+215.455+118.732+213.296+123.609+210.744C128.493+208.255+132.199+205.357+134.212+203.131C136.736+200.34+137.887+198.748+138.958+198.077C139.972+197.377+140.831+197.585+141.706+197.967C142.581+198.35+143.332+198.787+143.342+200.252C143.296+201.66+142.509+204.275+139.297+207.824Z" fill-rule="evenodd" fill="#ffffff" opacity="1"/>
<path d="M123.964+208.747C122.693+210.378+120.546+212.837+117.457+214.786C114.402+216.738+110.394+218.092+106.592+217.844C109.806+215.842+112.8+213.8+115.291+211.761C117.774+209.729+119.717+207.714+120.837+206.285C122.229+204.48+123.007+203.537+123.64+203.146C124.273+202.751+124.752+202.912+125.239+203.17C125.723+203.425+126.133+203.717+126.093+204.52C126.057+205.319+125.57+206.67+123.964+208.747Z" fill-rule="evenodd" fill="#ffffff" opacity="1"/>
<path d="M85.7758+62.2549C89.7981+65.0609+95.809+70.0697+100.165+77.5742C104.535+84.9577+106.918+94.8967+104.869+103.566C101.496+95.4174+97.3621+88.2111+92.9343+82.3482C88.5054+76.5126+83.7925+72.1841+80.4185+69.8173C76.159+66.884+73.8584+65.3481+72.8149+63.9996C71.7746+62.6422+72.015+61.485+72.478+60.292C72.9409+59.0991+73.492+58.0754+75.3928+57.9748C77.2761+57.8662+80.6272+58.7039+85.7758+62.2549Z" fill-rule="evenodd" fill="#ffffff" opacity="1"/>
<path d="M121.879+61.3407C118.012+64.3605+112.28+69.6843+108.337+77.4149C104.374+85.0232+102.531+95.0782+105.048+103.627C107.975+95.3057+111.712+87.8871+115.818+81.794C119.922+75.7252+124.397+71.148+127.639+68.6056C131.732+65.4436+133.947+63.788+134.916+62.3851C135.881+60.9738+135.579+59.8313+135.055+58.664C134.525+57.4975+133.918+56.5045+132.014+56.5083C130.131+56.4992+126.827+57.5174+121.879+61.3407Z" fill-rule="evenodd" fill="#ffffff" opacity="1"/>
<path d="M57.9798+159.857C60.6055+160.246+64.7225+160.311+69.3762+159.543C74.0404+158.766+79.1602+157.228+84.3436+154.915C81.4648+159.872+75.9504+163.459+70.6394+164.976C65.285+166.555+60.2598+166.233+57.1358+165.763C53.1596+165.142+51.2241+164.051+50.3897+163.165C49.5477+162.277+49.7424+161.555+50.0552+160.793C50.3658+160.03+50.7688+159.385+51.8549+159.211C52.9388+159.043+54.6916+159.344+57.9798+159.857Z" fill-rule="evenodd" fill="#ffffff" opacity="1"/>
<path d="M76.7682+202.534C78.7337+204.8+82.382+207.776+87.2129+210.365C92.0346+213.021+98.0599+215.303+104.06+218.028C97.6125+219.293+90.4821+218.626+84.5072+216.243C78.4812+213.916+74.0273+209.958+71.5876+207.119C68.4504+203.505+67.7206+200.875+67.7015+199.466C67.7402+198.002+68.5027+197.579+69.3843+197.215C70.2682+196.852+71.1306+196.663+72.127+197.383C73.1879+198.075+74.3028+199.69+76.7682+202.534Z" fill-rule="evenodd" fill="#ffffff" opacity="1"/>
<path d="M90.074+205.964C91.1635+207.417+93.0693+209.473+95.5085+211.556C97.9561+213.644+100.905+215.753+104.077+217.82C100.269+217.986+96.2918+216.549+93.2784+214.532C90.231+212.52+88.1368+210.017+86.8993+208.362C85.3382+206.251+84.8756+204.892+84.8566+204.093C84.8369+203.288+85.2478+203.004+85.7414+202.76C86.2311+202.513+86.7125+202.361+87.3386+202.768C87.9625+203.173+88.7205+204.132+90.074+205.964Z" fill-rule="evenodd" fill="#ffffff" opacity="1"/>
</g>
</g>
</svg>
