<?xml version="1.0" encoding="UTF-8" standalone="no"?> <!-- Created with Vectornator for iOS (http://vectornator.io/) --><!DOCTYPE svg PUBLIC "-//W3C//DTD SVG 1.1//EN" "http://www.w3.org/Graphics/SVG/1.1/DTD/svg11.dtd">
<svg style="fill-rule:evenodd;clip-rule:evenodd;stroke-linecap:round;stroke-linejoin:round;" xmlns:vectornator="http://vectornator.io" xmlns:xlink="http://www.w3.org/1999/xlink" xmlns="http://www.w3.org/2000/svg" xml:space="preserve" version="1.1" viewBox="0 0 210 235">
<metadata>
<vectornator:setting key="DynamicGuides" value="1"/>
<vectornator:setting key="Units" value="Points"/>
<vectornator:setting key="GuidesVisible" value="1"/>
<vectornator:setting key="RulersVisible" value="1"/>
<vectornator:setting key="SnapToGuides" value="1"/>
<vectornator:setting key="GridSpacing" value="14.17500019073486"/>
</metadata>
<defs/>
<g id="Untitled" vectornator:layerName="Untitled">
<g opacity="1">
<path stroke="#ff0070" fill-rule="evenodd" stroke-width="6" d="M202.423+77.7964C189.439+31.2434+154.179+7.56101+106.444+5.08006L106.446+5.01285C106.213+5.01991+105.985+5.03372+105.752+5.04078C105.524+5.02965+105.295+5.01028+105.061+5L105.061+5.07021C57.292+6.77627+21.6527+29.8799+7.91488+76.2175C-1.87683+109.243+14.5276+155.632+34.4173+163.049C63.7458+178.672+43.155+225.646+103.238+230.017L103.233+230.106C103.47+230.095+103.694+230.079+103.926+230.068C104.16+230.083+104.381+230.105+104.617+230.119L104.617+230.028C164.762+226.631+144.938+179.331+174.514+164.186C194.525+157.094+211.677+110.977+202.423+77.7964Z" fill="#ffffff" stroke-linecap="butt" opacity="1" stroke-linejoin="miter"/>
<path d="M72.7442+119.835C97.0786+141.825+81.2908+159.944+61.6086+132.615C42.1534+160.267+26.2156+142.41+50.3672+120.019C26.0351+98.0294+41.8229+79.9104+61.5051+107.239C80.9602+79.5877+96.898+97.4438+72.7442+119.835Z" fill-rule="evenodd" fill="#ff0070" opacity="1"/>
<path d="M69.5041+128.834C72.9536+163.935+50.5208+164.12+53.6801+128.964C22.7177+132.968+22.6144+107.529+53.6097+111.022C50.1585+75.9172+72.593+75.7341+69.4306+110.891C100.394+106.886+100.499+132.326+69.5041+128.834Z" fill-rule="evenodd" fill="#ff0070" opacity="1"/>
<path d="M84.4587+119.739C96.7571+111.115+91.4312+99.5394+74.6524+104.897C79.1775+85.8079+68.906+79.9094+61.4511+93.9588C53.8781+80.0332+43.6551+86.1026+48.335+105.114C31.5155+100.033+26.2868+111.697+38.6549+120.115C26.3543+128.738+31.68+140.315+48.4589+134.957C43.9338+154.046+54.2075+159.945+61.6626+145.895C69.2355+159.821+79.4585+153.752+74.7785+134.741C91.5981+139.821+96.8268+128.156+84.4587+119.739Z" fill-rule="evenodd" fill="#ff0070" opacity="1"/>
<path d="M84.8672+119.734C84.9267+134.334+74.5382+146.253+61.6647+146.361C48.7918+146.467+38.3044+134.718+38.245+120.118C38.187+105.521+48.5733+93.6015+61.446+93.4954C74.3219+93.3878+84.8071+105.136+84.8672+119.734Z" fill-rule="evenodd" fill="#ffffff" opacity="1"/>
<path d="M81.1126+119.767C81.1611+132.014+72.4459+142.012+61.6474+142.102C50.8466+142.191+42.0516+132.335+42.001+120.088C41.9525+107.841+50.6655+97.8418+61.4663+97.7529C72.2648+97.6635+81.0597+107.519+81.1126+119.767Z" fill-rule="evenodd" fill="#ff0070" opacity="1"/>
<path d="M160.732+120.749C185.066+142.739+169.275+160.859+149.593+133.53C130.137+161.182+114.201+143.323+138.354+120.935C114.02+98.9444+129.81+80.8239+149.489+108.155C168.944+80.5027+184.882+98.3588+160.732+120.749Z" fill-rule="evenodd" fill="#ff0070" opacity="1"/>
<path d="M157.491+129.747C160.943+164.851+138.505+165.035+141.668+129.878C110.705+133.881+110.599+108.441+141.594+111.936C138.145+76.8329+160.578+76.6468+157.418+111.805C188.381+107.801+188.486+133.241+157.491+129.747Z" fill-rule="evenodd" fill="#ff0070" opacity="1"/>
<path d="M172.446+120.652C184.744+112.031+179.418+100.453+162.642+105.811C167.164+86.7235+156.89+80.8243+149.436+94.8715C141.863+80.9459+131.64+87.0152+136.323+106.028C119.502+100.949+114.271+112.612+126.64+121.03C114.342+129.651+119.667+141.23+136.446+135.872C131.922+154.96+142.192+160.858+149.649+146.811C157.22+160.736+167.442+154.666+162.763+135.655C179.583+140.733+184.812+129.069+172.446+120.652Z" fill-rule="evenodd" fill="#ff0070" opacity="1"/>
<path d="M172.854+120.649C172.914+135.247+162.524+147.168+149.652+147.274C136.779+147.381+126.291+135.633+126.232+121.033C126.171+106.436+136.56+94.5147+149.434+94.4087C162.308+94.3034+172.794+106.051+172.854+120.649Z" fill-rule="evenodd" fill="#ffffff" opacity="1"/>
<path d="M169.256+120.68C169.305+133.025+160.523+143.105+149.634+143.196C138.747+143.287+129.88+133.35+129.829+121.004C129.781+108.658+138.563+98.5774+149.449+98.4864C160.338+98.3985+169.205+108.332+169.256+120.68Z" fill-rule="evenodd" fill="#ff0070" opacity="1"/>
<path d="M137.848+168.139L132.478+168.214L76.0362+168.296L70.666+168.286C70.666+168.286+67.4406+201.111+105.548+200.88C138.615+200.678+137.848+168.139+137.848+168.139Z" fill-rule="evenodd" fill="#ff0070" opacity="1"/>
<path d="M103.932+125.346C103.932+125.346+92.2753+140.782+95.0107+144.682C95.0107+144.682+95.9756+147.631+99.5883+147.309C103.202+146.987+104.208+145.769+104.208+145.769C104.208+145.769+107.68+147.317+110.089+147C112.496+146.684+114.295+145.167+112.76+140.354C111.224+135.544+103.932+125.346+103.932+125.346Z" fill-rule="evenodd" fill="#ff0070" opacity="1"/>
<path d="M66.1924+64.3438C66.1924+64.3438+57.7635+34.0727+50.0295+33.7568C50.0295+33.7568+45.2676+32.0916+42.1215+37.0755C38.9761+42.0572+44.5768+48.0501+44.5768+48.0501C44.5768+48.0501+34.1323+47.5139+32.1646+50.9348C30.1968+54.3555+30.383+58.1724+38.1076+60.9358C45.8321+63.6993+66.1924+64.3438+66.1924+64.3438Z" fill-rule="evenodd" fill="#ff0070" opacity="1"/>
<path d="M143.145+63.5949C143.145+63.5949+152.2+33.5037+159.938+33.3483C159.938+33.3483+164.735+31.7834+167.776+36.8321C170.818+41.8778+165.092+47.7536+165.092+47.7536C165.092+47.7536+175.548+47.4349+177.445+50.8936C179.341+54.3546+179.074+58.1672+171.296+60.7697C163.513+63.3708+143.145+63.5949+143.145+63.5949Z" fill-rule="evenodd" fill="#ff0070" opacity="1"/>
<path d="M66.7574+79.0807C71.0808+80.6813+73.5763+73.9669+69.2468+72.3618C64.9233+70.761+62.4271+77.4778+66.7574+79.0807Z" fill-rule="evenodd" fill="#ff0070" opacity="1"/>
<path d="M49.4245+76.5072C53.7457+78.1071+56.2412+71.3927+51.9139+69.7884C47.5903+68.1877+45.0948+74.9021+49.4245+76.5072Z" fill-rule="evenodd" fill="#ff0070" opacity="1"/>
<path d="M33.794+82.9286C38.1174+84.5293+40.6131+77.8148+36.2804+76.2113C31.9599+74.6091+29.4637+81.3257+33.794+82.9286Z" fill-rule="evenodd" fill="#ff0070" opacity="1"/>
<path d="M24.6551+98.3973C28.9756+99.9994+31.4719+93.2827+27.1438+91.6806C22.821+90.0776+20.3247+96.7944+24.6551+98.3973Z" fill-rule="evenodd" fill="#ff0070" opacity="1"/>
<path d="M20.2577+118.105C24.5805+119.708+27.0767+112.991+22.7471+111.386C18.4259+109.787+15.9297+116.503+20.2577+118.105Z" fill-rule="evenodd" fill="#ff0070" opacity="1"/>
<path d="M127.748+85.7008C132.069+87.303+134.565+80.5862+130.236+78.9811C125.912+77.3805+123.416+84.0971+127.748+85.7008Z" fill-rule="evenodd" fill="#ff0070" opacity="1"/>
<path d="M144.594+77.4945C148.917+79.0975+151.413+72.3807+147.08+70.7772C142.757+69.1765+140.261+75.891+144.594+77.4945Z" fill-rule="evenodd" fill="#ff0070" opacity="1"/>
<path d="M103.722+72.0412C108.043+73.6433+110.539+66.9267+106.212+65.3223C101.889+63.7216+99.3924+70.4383+103.722+72.0412Z" fill-rule="evenodd" fill="#ff0070" opacity="1"/>
<path d="M100.588+30.2989C111.478+34.332+117.762+17.4188+106.856+13.3782C95.9685+9.34583+89.6846+26.2591+100.588+30.2989Z" fill-rule="evenodd" fill="#ff0070" opacity="1"/>
<path d="M102.349+52.0951C109.727+54.8287+113.987+43.3644+106.595+40.6263C99.218+37.8949+94.9562+49.3563+102.349+52.0951Z" fill-rule="evenodd" fill="#ff0070" opacity="1"/>
<path d="M162.527+80.0772C166.847+81.6771+169.341+74.962+165.014+73.3575C160.69+71.7568+158.195+78.4713+162.527+80.0772Z" fill-rule="evenodd" fill="#ff0070" opacity="1"/>
<path d="M170.893+84.3021C170.891+84.5023+170.887+84.7016+170.887+84.9025C170.866+86.8367+172.115+88.6012+174.15+88.7775C175.968+88.9367+178.006+87.4592+178.028+85.5152C178.028+85.3143+178.031+85.1171+178.031+84.9162C178.052+82.9821+176.802+81.2176+174.77+81.042C172.949+80.8821+170.912+82.3596+170.893+84.3021Z" fill-rule="evenodd" fill="#ff0070" opacity="1"/>
<path d="M180.85+102.415C185.173+104.018+187.669+97.3008+183.336+95.6972C179.013+94.0943+176.518+100.811+180.85+102.415Z" fill-rule="evenodd" fill="#ff0070" opacity="1"/>
<path d="M186.06+120.039C190.384+121.64+192.879+114.925+188.55+113.321C184.227+111.72+181.731+118.434+186.06+120.039Z" fill-rule="evenodd" fill="#ff0070" opacity="1"/>
<path d="M154.605+166.775C151.475+167.18+146.441+167.395+141.12+165.706C135.844+164.083+130.406+160.381+127.626+155.364C132.763+157.786+137.851+159.429+142.498+160.305C147.134+161.167+151.25+161.187+153.882+160.855C157.182+160.407+158.942+160.143+160.022+160.334C161.103+160.532+161.493+161.186+161.788+161.954C162.084+162.721+162.264+163.45+161.404+164.32C160.552+165.186+158.593+166.237+154.605+166.775Z" fill-rule="evenodd" fill="#ff0070" opacity="1"/>
<path d="M139.297+207.824C136.799+210.61+132.264+214.474+126.19+216.677C120.166+218.933+113.025+219.452+106.607+218.055C112.662+215.455+118.731+213.296+123.609+210.743C128.492+208.255+132.199+205.357+134.212+203.13C136.736+200.34+137.886+198.748+138.958+198.076C139.971+197.377+140.831+197.585+141.705+197.967C142.581+198.349+143.332+198.787+143.342+200.251C143.296+201.66+142.509+204.275+139.297+207.824Z" fill-rule="evenodd" fill="#ff0070" opacity="1"/>
<path d="M123.964+208.747C122.692+210.377+120.545+212.837+117.456+214.786C114.402+216.738+110.394+218.092+106.592+217.844C109.806+215.842+112.8+213.8+115.29+211.761C117.773+209.729+119.717+207.713+120.836+206.285C122.229+204.48+123.007+203.537+123.64+203.145C124.272+202.75+124.752+202.912+125.239+203.17C125.722+203.425+126.132+203.717+126.093+204.52C126.056+205.319+125.569+206.67+123.964+208.747Z" fill-rule="evenodd" fill="#ff0070" opacity="1"/>
<path d="M85.7758+62.255C89.7981+65.061+95.809+70.0697+100.165+77.5742C104.535+84.9578+106.917+94.8967+104.869+103.566C101.495+95.4174+97.3621+88.2111+92.9342+82.3483C88.5054+76.5126+83.7925+72.1841+80.4185+69.8174C76.159+66.884+73.8584+65.3481+72.8149+63.9997C71.7746+62.6422+72.015+61.485+72.478+60.2921C72.9409+59.0991+73.492+58.0755+75.3927+57.9749C77.2761+57.8662+80.6272+58.7039+85.7758+62.255Z" fill-rule="evenodd" fill="#ff0070" opacity="1"/>
<path d="M121.879+61.3407C118.012+64.3606+112.279+69.6843+108.336+77.415C104.373+85.0233+102.53+95.0783+105.047+103.627C107.975+95.3057+111.711+87.8872+115.818+81.7941C119.921+75.7252+124.396+71.1481+127.638+68.6057C131.732+65.4436+133.947+63.7881+134.915+62.3851C135.881+60.9738+135.579+59.8313+135.054+58.664C134.524+57.4975+133.918+56.5045+132.014+56.5083C130.131+56.4992+126.827+57.5174+121.879+61.3407Z" fill-rule="evenodd" fill="#ff0070" opacity="1"/>
<path d="M57.9798+159.857C60.6055+160.246+64.7225+160.311+69.3762+159.543C74.0404+158.766+79.1602+157.228+84.3436+154.915C81.4648+159.872+75.9504+163.459+70.6393+164.975C65.285+166.555+60.2598+166.233+57.1357+165.763C53.1596+165.141+51.2241+164.051+50.3897+163.165C49.5477+162.277+49.7424+161.555+50.0552+160.793C50.3658+160.03+50.7688+159.385+51.8549+159.211C52.9388+159.043+54.6916+159.344+57.9798+159.857Z" fill-rule="evenodd" fill="#ff0070" opacity="1"/>
<path d="M76.7682+202.534C78.7337+204.8+82.382+207.776+87.2129+210.365C92.0346+213.021+98.0599+215.303+104.06+218.028C97.6125+219.293+90.4821+218.626+84.5072+216.243C78.4812+213.916+74.0273+209.958+71.5876+207.118C68.4504+203.505+67.7205+200.875+67.7015+199.466C67.7402+198.002+68.5027+197.579+69.3843+197.215C70.2682+196.852+71.1306+196.663+72.127+197.383C73.1879+198.074+74.3028+199.689+76.7682+202.534Z" fill-rule="evenodd" fill="#ff0070" opacity="1"/>
<path d="M90.074+205.963C91.1634+207.417+93.0693+209.473+95.5085+211.556C97.9561+213.644+100.904+215.752+104.077+217.82C100.269+217.986+96.2918+216.549+93.2784+214.532C90.231+212.52+88.1368+210.017+86.8993+208.362C85.3381+206.25+84.8756+204.892+84.8566+204.093C84.8369+203.288+85.2478+203.004+85.7414+202.76C86.2311+202.513+86.7125+202.361+87.3386+202.768C87.9625+203.173+88.7205+204.132+90.074+205.963Z" fill-rule="evenodd" fill="#ff0070" opacity="1"/>
</g>
</g>
</svg>
