<?xml version="1.0" encoding="UTF-8" standalone="no"?> <!-- Created with Vectornator for iOS (http://vectornator.io/) --><!DOCTYPE svg PUBLIC "-//W3C//DTD SVG 1.1//EN" "http://www.w3.org/Graphics/SVG/1.1/DTD/svg11.dtd">
<svg style="fill-rule:evenodd;clip-rule:evenodd;stroke-linecap:round;stroke-linejoin:round;" xmlns:vectornator="http://vectornator.io" xmlns:xlink="http://www.w3.org/1999/xlink" xmlns="http://www.w3.org/2000/svg" xml:space="preserve" version="1.1" viewBox="0 0 210 235">
<metadata>
<vectornator:setting key="DynamicGuides" value="1"/>
<vectornator:setting key="Units" value="Points"/>
<vectornator:setting key="GuidesVisible" value="1"/>
<vectornator:setting key="RulersVisible" value="1"/>
<vectornator:setting key="SnapToGuides" value="1"/>
<vectornator:setting key="GridSpacing" value="14.17500019073486"/>
</metadata>
<defs/>
<g id="Untitled" vectornator:layerName="Untitled">
<g opacity="1">
<path stroke="#ff0070" fill-rule="evenodd" stroke-width="6" d="M7.57683+157.323C20.561+203.876+55.8211+227.558+103.556+230.039L103.554+230.106C103.787+230.099+104.015+230.085+104.248+230.078C104.476+230.089+104.705+230.109+104.939+230.119L104.939+230.049C152.708+228.343+188.347+205.239+202.085+158.901C211.877+125.876+195.472+79.4867+175.582+72.0697C146.254+56.4469+166.844+9.47278+106.761+5.102L106.766+5.01299C106.529+5.024+106.305+5.04+106.073+5.05101C105.839+5.03601+105.618+5.01401+105.382+5L105.382+5.091C45.2373+8.48823+65.0615+55.7882+35.4855+70.9333C15.4745+78.0253-1.67729+124.142+7.57683+157.323Z" fill="#ffffff" stroke-linecap="butt" opacity="1" stroke-linejoin="miter"/>
<path d="M137.255+115.284C112.921+93.294+128.709+75.1749+148.391+102.504C167.846+74.8518+183.784+92.7087+159.632+115.1C183.965+137.089+168.177+155.208+148.495+127.88C129.04+155.531+113.102+137.675+137.255+115.284Z" fill-rule="evenodd" fill="#ff0070" opacity="1"/>
<path d="M140.496+106.285C137.046+71.1839+159.479+70.9988+156.32+106.155C187.282+102.151+187.385+127.59+156.39+124.097C159.841+159.202+137.407+159.385+140.569+124.228C109.606+128.233+109.501+102.793+140.496+106.285Z" fill-rule="evenodd" fill="#ff0070" opacity="1"/>
<path d="M125.541+115.38C113.243+124.004+118.569+135.58+135.347+130.222C130.822+149.311+141.094+155.209+148.549+141.16C156.122+155.086+166.345+149.016+161.665+130.005C178.484+135.086+183.713+123.422+171.345+115.004C183.645+106.381+178.32+94.8037+161.541+100.162C166.066+81.0728+155.792+75.1738+148.337+89.2238C140.764+75.2979+130.541+81.3669+135.221+100.378C118.402+95.298+113.173+106.963+125.541+115.38Z" fill-rule="evenodd" fill="#ff0070" opacity="1"/>
<path d="M125.132+115.385C125.073+100.785+135.461+88.8659+148.335+88.7578C161.208+88.6518+171.695+100.401+171.755+115.001C171.813+129.598+161.426+141.517+148.554+141.623C135.678+141.731+125.193+129.983+125.132+115.385Z" fill-rule="evenodd" fill="#ffffff" opacity="1"/>
<path d="M128.887+115.352C128.839+103.105+137.554+93.1069+148.352+93.0168C159.153+92.9278+167.948+102.784+167.999+115.031C168.047+127.278+159.334+137.277+148.533+137.366C137.735+137.455+128.94+127.6+128.887+115.352Z" fill-rule="evenodd" fill="#ff0070" opacity="1"/>
<path d="M49.2677+114.37C24.9336+92.3803+40.7245+74.2602+60.4066+101.589C79.8625+73.9371+95.7986+91.796+71.6457+114.184C95.9798+136.175+80.1898+154.295+60.5107+126.964C41.0558+154.617+25.1178+136.76+49.2677+114.37Z" fill-rule="evenodd" fill="#ff0070" opacity="1"/>
<path d="M52.5086+105.372C49.0565+70.2682+71.4945+70.0841+68.3316+105.241C99.2946+101.238+99.4007+126.678+68.4057+123.183C71.8548+158.286+49.4218+158.472+52.5817+123.314C21.6187+127.318+21.5136+101.878+52.5086+105.372Z" fill-rule="evenodd" fill="#ff0070" opacity="1"/>
<path d="M37.5537+114.467C25.2557+123.088+30.5818+134.666+47.3577+129.308C42.8358+148.396+53.1098+154.295+60.5638+140.248C68.1368+154.173+78.3598+148.104+73.6767+129.091C90.4977+134.17+95.7287+122.507+83.3597+114.089C95.6576+105.468+90.3326+93.8891+73.5536+99.2471C78.0776+80.1591+67.8075+74.2611+60.3506+88.3082C52.7795+74.3832+42.5575+80.4532+47.2366+99.4642C30.4166+94.3863+25.1876+106.05+37.5537+114.467Z" fill-rule="evenodd" fill="#ff0070" opacity="1"/>
<path d="M37.1457+114.47C37.0856+99.8723+47.4756+87.9512+60.3476+87.8452C73.2206+87.7381+83.7086+99.4861+83.7677+114.086C83.8287+128.683+73.4398+140.604+60.5658+140.71C47.6918+140.816+37.2057+129.068+37.1457+114.47Z" fill-rule="evenodd" fill="#ffffff" opacity="1"/>
<path d="M40.7437+114.439C40.6946+102.094+49.4766+92.0142+60.3656+91.9232C71.2526+91.8321+80.1196+101.769+80.1707+114.115C80.2187+126.461+71.4368+136.542+60.5508+136.633C49.6618+136.721+40.7947+126.787+40.7437+114.439Z" fill-rule="evenodd" fill="#ff0070" opacity="1"/>
<path d="M72.1515+66.9801L77.5215+66.9051L133.963+66.8229L139.333+66.8329C139.333+66.8329+142.559+34.0079+104.451+34.239C71.3844+34.4411+72.1515+66.9801+72.1515+66.9801Z" fill-rule="evenodd" fill="#ff0070" opacity="1"/>
<path d="M106.068+109.773C106.068+109.773+117.724+94.337+114.989+90.437C114.989+90.437+114.024+87.488+110.411+87.81C106.798+88.132+105.792+89.35+105.792+89.35C105.792+89.35+102.32+87.802+99.9106+88.119C97.5036+88.435+95.7046+89.952+97.2396+94.765C98.7756+99.575+106.068+109.773+106.068+109.773Z" fill-rule="evenodd" fill="#ff0070" opacity="1"/>
<path d="M143.807+170.775C143.807+170.775+152.236+201.046+159.97+201.362C159.97+201.362+164.732+203.027+167.878+198.043C171.024+193.062+165.423+187.069+165.423+187.069C165.423+187.069+175.868+187.605+177.835+184.184C179.803+180.763+179.617+176.946+171.892+174.183C164.168+171.419+143.807+170.775+143.807+170.775Z" fill-rule="evenodd" fill="#ff0070" opacity="1"/>
<path d="M66.8549+171.524C66.8549+171.524+57.8+201.615+50.062+201.771C50.062+201.771+45.265+203.336+42.224+198.287C39.182+193.241+44.908+187.366+44.908+187.366C44.908+187.366+34.4519+187.684+32.5549+184.226C30.6589+180.765+30.9259+176.952+38.7039+174.35C46.4869+171.748+66.8549+171.524+66.8549+171.524Z" fill-rule="evenodd" fill="#ff0070" opacity="1"/>
<path d="M143.242+156.038C138.919+154.438+136.424+161.152+140.753+162.757C145.077+164.358+147.573+157.641+143.242+156.038Z" fill-rule="evenodd" fill="#ff0070" opacity="1"/>
<path d="M160.575+158.612C156.254+157.012+153.759+163.726+158.086+165.33C162.41+166.931+164.905+160.217+160.575+158.612Z" fill-rule="evenodd" fill="#ff0070" opacity="1"/>
<path d="M176.206+152.19C171.882+150.589+169.387+157.304+173.719+158.907C178.04+160.51+180.536+153.793+176.206+152.19Z" fill-rule="evenodd" fill="#ff0070" opacity="1"/>
<path d="M185.345+136.721C181.024+135.119+178.528+141.836+182.856+143.438C187.179+145.041+189.675+138.324+185.345+136.721Z" fill-rule="evenodd" fill="#ff0070" opacity="1"/>
<path d="M189.742+117.014C185.419+115.411+182.923+122.128+187.253+123.733C191.574+125.332+194.07+118.616+189.742+117.014Z" fill-rule="evenodd" fill="#ff0070" opacity="1"/>
<path d="M82.2518+149.418C77.9308+147.816+75.4348+154.533+79.7638+156.138C84.0878+157.739+86.5838+151.022+82.2518+149.418Z" fill-rule="evenodd" fill="#ff0070" opacity="1"/>
<path d="M65.4058+157.625C61.0828+156.022+58.5869+162.738+62.9199+164.342C67.2429+165.943+69.7388+159.228+65.4058+157.625Z" fill-rule="evenodd" fill="#ff0070" opacity="1"/>
<path d="M106.278+163.078C101.957+161.476+99.4609+168.192+103.788+169.797C108.111+171.397+110.607+164.681+106.278+163.078Z" fill-rule="evenodd" fill="#ff0070" opacity="1"/>
<path d="M109.412+204.82C98.522+200.787+92.2381+217.7+103.144+221.741C114.032+225.773+120.315+208.86+109.412+204.82Z" fill-rule="evenodd" fill="#ff0070" opacity="1"/>
<path d="M107.651+183.024C100.273+180.29+96.013+191.755+103.405+194.493C110.782+197.224+115.044+185.763+107.651+183.024Z" fill-rule="evenodd" fill="#ff0070" opacity="1"/>
<path d="M47.4728+155.042C43.1528+153.442+40.6588+160.157+44.9858+161.762C49.3099+163.362+51.8048+156.648+47.4728+155.042Z" fill-rule="evenodd" fill="#ff0070" opacity="1"/>
<path d="M39.1068+150.817C39.1088+150.617+39.1128+150.418+39.1128+150.217C39.1338+148.283+37.8848+146.518+35.8498+146.342C34.0318+146.183+31.9938+147.66+31.9718+149.604C31.9718+149.805+31.9688+150.002+31.9688+150.203C31.9478+152.137+33.1978+153.902+35.2298+154.077C37.0508+154.237+39.0878+152.76+39.1068+150.817Z" fill-rule="evenodd" fill="#ff0070" opacity="1"/>
<path d="M29.1497+132.704C24.8267+131.101+22.3308+137.819+26.6638+139.422C30.9868+141.025+33.4817+134.308+29.1497+132.704Z" fill-rule="evenodd" fill="#ff0070" opacity="1"/>
<path d="M23.9397+115.08C19.6157+113.479+17.1207+120.194+21.4497+121.798C25.7727+123.399+28.2687+116.685+23.9397+115.08Z" fill-rule="evenodd" fill="#ff0070" opacity="1"/>
<path d="M55.3945+68.3442C58.5245+67.9392+63.5585+67.7242+68.8795+69.4131C74.1555+71.0361+79.5935+74.7381+82.3735+79.7551C77.2365+77.3331+72.1485+75.6901+67.5015+74.8142C62.8655+73.9522+58.7495+73.9322+56.1175+74.2642C52.8175+74.7122+51.0575+74.9762+49.9775+74.7852C48.8965+74.5872+48.5065+73.9332+48.2115+73.1652C47.9155+72.3982+47.7355+71.6692+48.5955+70.7992C49.4475+69.9332+51.4065+68.8822+55.3945+68.3442Z" fill-rule="evenodd" fill="#ff0070" opacity="1"/>
<path d="M70.7024+27.2951C73.2003+24.5091+77.7353+20.6451+83.8093+18.4421C89.8333+16.1861+96.9743+15.667+103.392+17.064C97.3373+19.664+91.2683+21.823+86.3903+24.3761C81.5073+26.8641+77.8004+29.7621+75.7874+31.9891C73.2634+34.7791+72.1134+36.3711+71.0414+37.0431C70.0284+37.7421+69.1684+37.5341+68.2944+37.1521C67.4184+36.7701+66.6674+36.3321+66.6574+34.8681C66.7034+33.4591+67.4904+30.8441+70.7024+27.2951Z" fill-rule="evenodd" fill="#ff0070" opacity="1"/>
<path d="M86.0353+26.3721C87.3073+24.7421+89.4543+22.2821+92.5433+20.3331C95.5973+18.381+99.6053+17.027+103.407+17.275C100.193+19.277+97.1993+21.319+94.7093+23.358C92.2263+25.39+90.2823+27.4061+89.1634+28.8341C87.7704+30.6391+86.9924+31.5821+86.3594+31.9741C85.7274+32.3691+85.2474+32.2071+84.7604+31.9491C84.2774+31.6941+83.8674+31.4021+83.9064+30.5991C83.9434+29.8001+84.4304+28.4491+86.0353+26.3721Z" fill-rule="evenodd" fill="#ff0070" opacity="1"/>
<path d="M124.224+172.864C120.202+170.058+114.191+165.049+109.835+157.545C105.465+150.161+103.083+140.222+105.131+131.553C108.505+139.702+112.638+146.908+117.066+152.771C121.494+158.606+126.207+162.935+129.581+165.302C133.841+168.235+136.141+169.771+137.185+171.119C138.225+172.477+137.985+173.634+137.522+174.827C137.059+176.02+136.508+177.043+134.607+177.144C132.724+177.253+129.373+176.415+124.224+172.864Z" fill-rule="evenodd" fill="#ff0070" opacity="1"/>
<path d="M88.1209+173.778C91.9879+170.758+97.7209+165.435+101.664+157.704C105.627+150.096+107.47+140.041+104.953+131.492C102.025+139.813+98.2888+147.232+94.1818+153.325C90.0788+159.394+85.6039+163.971+82.3619+166.513C78.2679+169.675+76.0529+171.331+75.0849+172.734C74.1189+174.145+74.4209+175.288+74.9459+176.455C75.4759+177.622+76.0819+178.615+77.9859+178.611C79.8689+178.62+83.1729+177.602+88.1209+173.778Z" fill-rule="evenodd" fill="#ff0070" opacity="1"/>
<path d="M152.02+75.2618C149.394+74.8728+145.277+74.8078+140.623+75.5759C135.959+76.3529+130.839+77.8909+125.656+80.2039C128.535+75.2469+134.049+71.6599+139.36+70.1439C144.715+68.5639+149.74+68.8858+152.864+69.3558C156.84+69.9778+158.775+71.0678+159.61+71.9538C160.452+72.8418+160.257+73.5638+159.944+74.3258C159.634+75.0888+159.231+75.7338+158.145+75.9078C157.061+76.0758+155.308+75.7748+152.02+75.2618Z" fill-rule="evenodd" fill="#ff0070" opacity="1"/>
<path d="M133.231+32.5849C131.266+30.3189+127.617+27.3429+122.786+24.7539C117.965+22.098+111.939+19.816+105.939+17.091C112.387+15.826+119.517+16.4929+125.492+18.8759C131.518+21.2029+135.972+25.1609+138.412+28.0009C141.549+31.6139+142.279+34.2439+142.298+35.6529C142.259+37.1169+141.497+37.5399+140.615+37.9039C139.731+38.2669+138.869+38.4559+137.872+37.7359C136.811+37.0449+135.697+35.4299+133.231+32.5849Z" fill-rule="evenodd" fill="#ff0070" opacity="1"/>
<path d="M119.925+29.156C118.836+27.7019+116.93+25.646+114.491+23.563C112.043+21.475+109.095+19.367+105.922+17.299C109.73+17.133+113.708+18.57+116.721+20.587C119.768+22.5989+121.863+25.1019+123.1+26.7569C124.661+28.8689+125.124+30.2269+125.143+31.0259C125.162+31.8309+124.752+32.1149+124.258+32.3589C123.768+32.6059+123.287+32.7579+122.661+32.3509C122.037+31.9459+121.279+30.9869+119.925+29.156Z" fill-rule="evenodd" fill="#ff0070" opacity="1"/>
</g>
</g>
</svg>
